<?xml version="1.0" encoding="iso-8859-1"?>
<!-- Generator: Adobe Illustrator 19.0.0, SVG Export Plug-In . SVG Version: 6.00 Build 0)  -->
<svg version="1.1" id="Capa_1" xmlns="http://www.w3.org/2000/svg" xmlns:xlink="http://www.w3.org/1999/xlink" x="0px" y="0px"
	 viewBox="0 0 464 464" style="enable-background:new 0 0 464 464;" xml:space="preserve">
<path style="fill:#FAA41B;" d="M0,72h464v320H0V72z"/>
<path style="fill:#EE2849;" d="M100,152c-7.537,0.002-14.751,3.055-20,8.464c-10.789-11.078-28.517-11.312-39.595-0.522
	c-11.078,10.789-11.312,28.517-0.522,39.595c5.285,5.426,12.543,8.48,20.117,8.464h40c15.464,0,28-12.536,28-28S115.464,152,100,152
	z M48,180c0-6.627,5.373-12,12-12s12,5.373,12,12v12H60C53.373,192,48,186.627,48,180z M100,192H88v-12c0-6.627,5.373-12,12-12
	c6.627,0,12,5.373,12,12S106.627,192,100,192z"/>
<path style="fill:#6B778A;" d="M160,104h272v256H160V104z"/>
<path style="fill:#EFF2FA;" d="M32,200h96v96H32V200z"/>
<path style="fill:#EE2849;" d="M64,200h32v96H64V200z"/>
<path style="fill:#E4E8ED;" d="M377.376,224c-0.52,0-1.016,0.12-1.528,0.152l9.528-9.528c8.823-8.791,8.848-23.07,0.057-31.893
	c-2.827-2.838-6.359-4.871-10.233-5.891l2.216-2.216c8.837-8.837,8.837-23.163,0-32s-23.163-8.837-32,0l-17.528,17.528
	c0-0.512,0.152-1.008,0.152-1.528c0.003-12.495-10.124-22.626-22.619-22.629c-6.003-0.001-11.761,2.383-16.005,6.629l-17.528,17.528
	c0-0.512,0.152-1.008,0.152-1.528c0.003-12.495-10.124-22.626-22.619-22.629c-6.003-0.001-11.761,2.383-16.005,6.629l-34.752,34.752
	c-8.837,8.834-8.839,23.159-0.005,31.995c4.244,4.245,10.002,6.63,16.005,6.629c0.52,0,1.016-0.12,1.528-0.152l-17.528,17.528
	c-8.837,8.834-8.839,23.159-0.005,31.995c4.244,4.245,10.002,6.63,16.005,6.629c0.52,0,1.016-0.12,1.528-0.152l-17.528,17.528
	c-8.837,8.837-8.837,23.163,0,32s23.163,8.837,32,0L240.8,311.2c3.154,12.049,15.478,19.26,27.527,16.107
	c3.882-1.016,7.423-3.05,10.257-5.891l17.528-17.528c0,0.512-0.152,1.008-0.152,1.528c-0.003,12.495,10.124,22.626,22.619,22.629
	c6.003,0.001,11.761-2.383,16.005-6.629l58.752-58.752c8.837-8.834,8.839-23.159,0.005-31.995
	c-4.244-4.245-10.002-6.63-16.005-6.629L377.376,224z"/>
<g>
	<path style="fill:#1F9342;" d="M264,208c4.418,0,8,3.582,8,8h16c-0.042-10.134-6.445-19.15-16-22.528V184h-16v9.472
		c-12.473,4.393-19.023,18.066-14.629,30.539c3.38,9.596,12.455,16.009,22.629,15.989c4.418,0,8,3.582,8,8s-3.582,8-8,8
		s-8-3.582-8-8h-16c0.042,10.134,6.445,19.15,16,22.528V280h16v-9.472c12.473-4.393,19.023-18.066,14.629-30.539
		c-3.38-9.596-12.455-16.009-22.629-15.989c-4.418,0-8-3.582-8-8S259.582,208,264,208L264,208z"/>
	<path style="fill:#1F9342;" d="M328,224c-4.418,0-8-3.582-8-8s3.582-8,8-8s8,3.582,8,8h16c-0.042-10.134-6.445-19.15-16-22.528V184
		h-16v9.472c-12.473,4.393-19.023,18.066-14.629,30.539c3.38,9.596,12.455,16.009,22.629,15.989c4.418,0,8,3.582,8,8s-3.582,8-8,8
		s-8-3.582-8-8h-16c0.042,10.134,6.445,19.15,16,22.528V280h16v-9.472c12.473-4.393,19.023-18.066,14.629-30.539
		C347.249,230.393,338.174,223.981,328,224L328,224z"/>
</g>
<g>
</g>
<g>
</g>
<g>
</g>
<g>
</g>
<g>
</g>
<g>
</g>
<g>
</g>
<g>
</g>
<g>
</g>
<g>
</g>
<g>
</g>
<g>
</g>
<g>
</g>
<g>
</g>
<g>
</g>
</svg>
