<?xml version="1.0" encoding="iso-8859-1"?>
<!-- Generator: Adobe Illustrator 19.0.0, SVG Export Plug-In . SVG Version: 6.00 Build 0)  -->
<svg version="1.1" id="Capa_1" xmlns="http://www.w3.org/2000/svg" xmlns:xlink="http://www.w3.org/1999/xlink" x="0px" y="0px"
	 viewBox="0 0 512 512" style="enable-background:new 0 0 512 512;" xml:space="preserve">
<g>
	<circle style="fill:#D3CDBF;" cx="96.5" cy="294.5" r="27.5"/>
	<circle style="fill:#D3CDBF;" cx="168.5" cy="295.5" r="27.5"/>
	<circle style="fill:#D3CDBF;" cx="134.28" cy="354.23" r="27.5"/>
	<circle style="fill:#D3CDBF;" cx="135.5" cy="232.5" r="27.5"/>
	<circle style="fill:#D3CDBF;" cx="328.51" cy="300.5" r="27.5"/>
	<circle style="fill:#D3CDBF;" cx="399.52" cy="294.5" r="27.5"/>
	<circle style="fill:#D3CDBF;" cx="374.3" cy="362.23" r="27.5"/>
	<circle style="fill:#D3CDBF;" cx="434.3" cy="232.5" r="27.5"/>
	<circle style="fill:#D3CDBF;" cx="362.52" cy="232.5" r="27.5"/>
	<circle style="fill:#D3CDBF;" cx="398.52" cy="166.49" r="27.5"/>
</g>
<path style="fill:#5C87BD;" d="M297.809,215.852C291.177,199.255,274.936,187.5,256,187.5s-35.177,11.756-41.809,28.353
	C99.687,502.402,106,485.194,106,489.5c0,8.284,6.716,15,15,15h270c8.284,0,15-6.716,15-15
	C406,485.193,412.302,502.373,297.809,215.852z"/>
<path style="fill:#3F5F94;" d="M278.04,193.284c-9.3,8.147-12.938,21.565-8.089,33.699c28.63,71.646,49.707,124.304,65.219,163.058
	c10.985,27.444,19.327,48.285,25.561,63.906c3.932,9.851-3.327,20.553-13.934,20.553H110.849
	c-6.375,16.345-4.606,12.849-4.882,15.582c-0.801,7.944,4.841,14.418,12.825,14.418h274.294c8.003,0,13.7-6.494,12.941-14.461
	c-0.61-6.402,10.242,22.265-108.219-274.187C293.98,206.27,286.944,198.308,278.04,193.284z"/>
<g>
	<path style="fill:#FFF9EB;" d="M256,247.5c-8.271,0-15-6.729-15-15c0-1.395,0.187-2.765,0.558-4.072
		c0.074-0.262,0.158-0.527,0.247-0.784c0.063-0.185,0.104-0.295,0.146-0.406l0.096-0.243c1.891-4.73,6.936-9.494,13.954-9.494
		c7.018,0,12.064,4.764,13.95,9.484c0.696,1.742,1.05,3.599,1.05,5.516C271,240.771,264.271,247.5,256,247.5z"/>
	<path style="fill:#FFF9EB;" d="M321.248,409.623c-5.555,0-10.811-3.329-13.001-8.802l-4.479-11.189l-5.98-14.943
		c-2.874-7.178,0.616-15.326,7.795-18.199c1.705-0.684,3.467-1.007,5.198-1.007c5.555,0,10.811,3.329,13.001,8.802l5.981,14.942
		l4.479,11.19c2.874,7.178-0.616,15.326-7.795,18.199C324.741,409.3,322.979,409.623,321.248,409.623z"/>
</g>
<path d="M131.499,294.5c0-19.299-15.701-35-35-35s-35,15.701-35,35s15.701,35,35,35S131.499,313.799,131.499,294.5z M96.499,314.5
	c-11.028,0-20-8.972-20-20s8.972-20,20-20s20,8.972,20,20S107.527,314.5,96.499,314.5z"/>
<path d="M399.519,259.5c-19.299,0-35,15.701-35,35s15.701,35,35,35s35-15.701,35-35S418.817,259.5,399.519,259.5z M399.519,314.5
	c-11.028,0-20-8.972-20-20s8.972-20,20-20s20,8.972,20,20S410.547,314.5,399.519,314.5z"/>
<path d="M398.519,201.492c19.299,0,35-15.701,35-35s-15.701-35-35-35s-35,15.701-35,35S379.22,201.492,398.519,201.492z
	 M398.519,146.492c11.028,0,20,8.972,20,20s-8.972,20-20,20s-20-8.972-20-20S387.49,146.492,398.519,146.492z"/>
<path d="M481,225h-0.122c-1.782-54.795-23.076-106.203-60.562-146.208l0.086-0.086c2.929-2.93,2.929-7.678,0-10.607
	c-2.93-2.928-7.678-2.928-10.607,0l-0.086,0.086C369.703,30.698,318.295,9.404,263.5,7.622V7.5c0-4.143-3.357-7.5-7.5-7.5
	s-7.5,3.357-7.5,7.5v0.122c-54.795,1.782-106.203,23.076-146.209,60.562l-0.086-0.086c-2.93-2.928-7.678-2.928-10.607,0
	c-2.929,2.93-2.929,7.678,0,10.607l0.086,0.086C54.198,118.797,32.905,170.205,31.122,225H31c-4.143,0-7.5,3.357-7.5,7.5
	s3.357,7.5,7.5,7.5h0.125c1.82,55.017,23.611,106.763,60.551,146.217l-0.078,0.078c-2.929,2.93-2.929,7.678,0,10.607
	c1.465,1.464,3.385,2.196,5.304,2.196s3.839-0.732,5.304-2.196l0.082-0.082c7.401,6.919,15.313,13.381,23.705,19.329
	c-27.611,69.013-27.881,69.808-27.491,73.524C98.595,502,108.651,512,121,512h270c12.349,0,22.406-10.001,22.499-22.328
	c0.39-3.713,0.249-4.186-27.49-73.523c8.392-5.948,16.303-12.41,23.704-19.328l0.082,0.082c1.465,1.464,3.385,2.196,5.304,2.196
	s3.839-0.732,5.304-2.196c2.929-2.93,2.929-7.678,0-10.607l-0.078-0.078c36.94-39.454,58.731-91.2,60.551-146.217H481
	c4.143,0,7.5-3.357,7.5-7.5S485.143,225,481,225z M452.84,240c-2.974,7.321-10.163,12.496-18.539,12.496
	s-15.565-5.175-18.539-12.496H452.84z M415.759,225c2.972-7.325,10.163-12.504,18.542-12.504s15.57,5.179,18.542,12.504H415.759z
	 M465.391,216.433c-5.831-11.239-17.579-18.937-31.091-18.937c-16.727,0-30.75,11.795-34.192,27.504h-3.4
	c-3.441-15.709-17.465-27.504-34.192-27.504s-30.75,11.795-34.192,27.504h-18.783c-1.566-3.917-3.155-7.895-4.768-11.932
	c-1.743-4.362-4.011-8.389-6.714-12.021L409.633,89.475C441.165,123.323,461.677,167.568,465.391,216.433z M343.974,225
	c2.972-7.325,10.163-12.504,18.542-12.504s15.57,5.179,18.542,12.504H343.974z M381.056,240
	c-2.974,7.321-10.163,12.496-18.539,12.496s-15.565-5.175-18.539-12.496H381.056z M399.025,78.868L287.47,190.423
	c-6.936-5.195-15.143-8.64-23.97-9.895V22.632C315.753,24.476,363.209,45.502,399.025,78.868z M248.5,22.632v157.896
	c-8.827,1.254-17.034,4.7-23.97,9.894L112.975,78.868C148.791,45.502,196.247,24.476,248.5,22.632z M102.367,89.475L213.94,201.048
	c-2.703,3.632-4.971,7.659-6.714,12.021c-1.613,4.037-3.202,8.013-4.768,11.931h-32.765c-3.441-15.709-17.465-27.504-34.192-27.504
	S104.751,209.291,101.31,225H46.132C47.976,172.747,69.002,125.291,102.367,89.475z M116.96,225
	c2.972-7.325,10.163-12.504,18.542-12.504s15.57,5.179,18.542,12.504H116.96z M154.041,240
	c-2.974,7.321-10.163,12.496-18.539,12.496s-15.565-5.175-18.539-12.496H154.041z M46.133,240h55.179
	c3.444,15.705,17.466,27.496,34.19,27.496s30.746-11.791,34.19-27.496h26.772c-3.504,8.766-6.882,17.215-10.139,25.361
	c-5.339-3.169-11.45-4.861-17.821-4.861c-19.299,0-35,15.701-35,35c0,9.876,4.113,18.81,10.714,25.18
	c-3.172-0.946-6.511-1.45-9.936-1.45c-19.299,0-35,15.701-35,35c0,6.938,2.029,13.41,5.525,18.856l-2.518,2.518
	C68.131,338.943,47.941,290.99,46.133,240z M114.282,354.229c0-11.028,8.972-20,20-20c2.735,0,5.375,0.563,7.792,1.589
	l-26.208,26.208C114.846,359.63,114.282,356.995,114.282,354.229z M168.857,309.035l-5.73,5.73
	c-8.425-2.354-14.623-10.1-14.623-19.266c0-11.028,8.972-20,20-20c4.441,0,8.662,1.438,12.129,4.094
	C176.503,289.922,172.582,299.727,168.857,309.035z M152.697,346.41c0.215,0.506,0.41,1.023,0.584,1.551
	c-3.398,8.49-6.583,16.449-9.571,23.912c-2.886,1.546-6.108,2.356-9.429,2.356c-2.771,0-5.413-0.567-7.814-1.59L152.697,346.41z
	 M115.412,383.695c5.448,3.501,11.926,5.534,18.87,5.534c0.844,0,1.683-0.03,2.518-0.09l-5.065,12.657
	c-6.616-4.86-12.9-10.069-18.834-15.59L115.412,383.695z M221.156,218.636c1.784-4.464,4.335-8.437,7.467-11.792
	c0.326-0.234,0.637-0.497,0.93-0.79c0.299-0.299,0.566-0.617,0.804-0.95C237.153,198.724,246.225,195,256,195
	c15.43,0,29.106,9.277,34.844,23.635c12.834,32.117,24.15,60.417,34.126,85.359c0.153,0.383,0.306,0.765,0.458,1.146
	c0.597,1.492,1.189,2.974,1.777,4.442c0.119,0.297,0.237,0.593,0.355,0.889c2.78,6.95,5.453,13.63,8.022,20.051l1.93,4.825h0.001
	c7.148,17.864,13.469,33.657,19.059,47.622l13.283,33.19c19.939,49.838,27.537,68.92,28.66,72.735
	c-0.01,0.181-0.016,0.383-0.016,0.606c0,4.136-3.364,7.5-7.5,7.5H121c-4.136,0-7.5-3.364-7.5-7.5c0-0.222-0.006-0.424-0.016-0.605
	C114.634,485.017,201.613,267.483,221.156,218.636 M331.84,280.776c9.45,1.589,16.674,9.828,16.674,19.724
	c0,3.894-1.123,7.61-3.141,10.766l-2.23-2.23c-2.802-7.003-5.716-14.289-8.746-21.865
	C333.553,285.062,332.701,282.931,331.84,280.776z M378.345,396.998c5.101-0.59,9.871-2.281,14.066-4.829
	c-3.913,3.342-7.963,6.554-12.146,9.627L378.345,396.998z M388.839,375.947c-3.649,3.867-8.819,6.284-14.542,6.284
	c-0.634,0-1.267-0.03-1.898-0.091l-1.899-4.746c-0.695-1.736-1.401-3.5-2.119-5.292l-9.197-22.978c0.438-0.509,0.9-0.992,1.382-1.45
	L388.839,375.947z M376.454,342.346c9.309,1.003,16.724,8.418,17.727,17.728L376.454,342.346z M407.479,373.372
	c1.178-3.501,1.818-7.248,1.818-11.141c0-19.299-15.701-35-35-35c-3.824,0-7.578,0.638-11.123,1.836l-7.047-7.047
	c4.711-6.04,7.387-13.567,7.387-21.519c0-19.299-15.701-35-35-35c-0.915,0-1.828,0.036-2.74,0.108
	c-3.287-8.222-6.698-16.754-10.238-25.608h12.79c3.444,15.705,17.466,27.496,34.19,27.496s30.746-11.791,34.19-27.496h3.404
	c3.444,15.705,17.466,27.496,34.19,27.496c13.51,0,25.256-7.695,31.088-18.932c-3.643,47.779-23.439,92.438-55.678,127.039
	L407.479,373.372z"/>
<path d="M330.744,361.497c-3.286-8.21-11.122-13.515-19.964-13.515c-0.174,0-0.348,0.002-0.522,0.006
	c-10.939-27.342-23.914-59.783-39.421-98.589c4.694-4.126,7.662-10.173,7.662-16.9c0-2.875-0.533-5.667-1.585-8.298
	C274.091,217.133,266.529,210,256,210c-10.527,0-18.092,7.138-20.933,14.247l-0.163,0.419c-0.054,0.146-0.108,0.297-0.188,0.525
	c-0.135,0.39-0.262,0.793-0.376,1.193c-0.558,1.973-0.841,4.029-0.841,6.115c0,12.406,10.094,22.5,22.5,22.5
	c0.306,0,0.611-0.006,0.915-0.019c15.504,38.798,28.476,71.233,39.416,98.573c-2.261,2.048-4.073,4.579-5.31,7.467
	c-2.261,5.279-2.331,11.123-0.196,16.454l10.46,26.133c3.286,8.21,11.122,13.515,19.964,13.515c2.743,0,5.432-0.52,7.985-1.544
	c5.332-2.134,9.514-6.216,11.774-11.495s2.331-11.123,0.196-16.454L330.744,361.497z M248.5,232.5c0-0.704,0.092-1.387,0.273-2.026
	c0.035-0.126,0.076-0.254,0.124-0.391l0.07-0.197l0.043-0.108c0.66-1.652,2.971-4.777,6.989-4.777c4.02,0,6.327,3.118,6.985,4.768
	c0.342,0.854,0.515,1.773,0.515,2.732c0,3.121-1.916,5.802-4.633,6.93c-0.026,0.01-0.052,0.02-0.078,0.03
	c-0.031,0.013-0.063,0.026-0.094,0.039c-0.836,0.322-1.744,0.5-2.694,0.5C251.864,240,248.5,236.636,248.5,232.5z M327.22,398.178
	c-0.684,1.596-1.948,2.83-3.564,3.478c-0.774,0.311-1.585,0.468-2.407,0.468c-2.674,0-5.044-1.604-6.038-4.089L304.75,371.9
	c-0.646-1.611-0.624-3.377,0.059-4.973c0.684-1.596,1.948-2.83,3.564-3.478c0.774-0.311,1.585-0.468,2.407-0.468
	c2.674,0,5.044,1.604,6.038,4.089l10.46,26.134C327.924,394.816,327.902,396.582,327.22,398.178z"/>
<g>
</g>
<g>
</g>
<g>
</g>
<g>
</g>
<g>
</g>
<g>
</g>
<g>
</g>
<g>
</g>
<g>
</g>
<g>
</g>
<g>
</g>
<g>
</g>
<g>
</g>
<g>
</g>
<g>
</g>
</svg>
