<svg id="Layer_1" enable-background="new 0 0 512 512" height="512" viewBox="0 0 512 512" width="512" xmlns="http://www.w3.org/2000/svg"><g><g><g><g id="XMLID_1623_"><g id="XMLID_1624_"><g id="XMLID_1654_"><g id="XMLID_1655_"><g id="XMLID_1656_"><g id="XMLID_1657_"><g id="XMLID_1658_"><g id="XMLID_1659_"><g id="XMLID_1660_"><g id="XMLID_1661_"><g id="XMLID_1662_"><g id="XMLID_1663_"><g id="XMLID_1664_"><g id="XMLID_1665_"><g id="XMLID_1666_"><circle cx="256" cy="256" fill="#ff4d05" r="256"/></g></g></g></g></g></g></g></g></g></g></g></g></g></g></g></g></g><path d="m512 256c0-29.385-4.966-57.606-14.079-83.889l-100.744-100.744-273.782 377.838 48.716 48.716c26.283 9.113 54.505 14.079 83.889 14.079 141.385 0 256-114.615 256-256z" fill="#c30047"/><g><path d="m364.461 457.197h-216.922c-22.389 0-40.708-18.318-40.708-40.708v-320.979c0-22.389 18.318-40.708 40.708-40.708h216.922c22.389 0 40.708 18.318 40.708 40.708v320.98c0 22.389-18.319 40.707-40.708 40.707z" fill="#fff"/><path d="m405.17 95.51v320.98c0 22.39-18.32 40.71-40.71 40.71h-108.46v-402.4h108.46c22.39 0 40.71 18.32 40.71 40.71z" fill="#f1f4f6"/><path d="m304.451 208.204c-11.391-3.381-20.58-2.054-27.768 1.205l8.026-36.409h-57.417l8.026 36.409c-7.189-3.259-16.377-4.586-27.768-1.205-15.503 4.601-29.986 27.605-21.622 58.497 6.15 22.717 33.811 54.115 70.073 72.299 36.262-18.184 63.923-49.582 70.073-72.299 8.362-30.892-6.121-53.896-21.623-58.497z" fill="#494949"/></g><path d="m326.07 266.7c-6.15 22.72-33.81 54.12-70.07 72.3v-166h28.71l-8.03 36.41c7.19-3.26 16.38-4.59 27.77-1.21 15.5 4.6 29.99 27.61 21.62 58.5z" fill="#232323"/><g><path d="m326.744 410.393c3.904 1.159 7.052.704 9.515-.413l-2.75 12.476h19.675l-2.75-12.476c2.463 1.117 5.612 1.572 9.515.413 5.312-1.577 10.275-9.459 7.409-20.045-2.108-7.784-11.586-18.543-24.012-24.775-12.426 6.231-21.904 16.99-24.012 24.775-2.865 10.586 2.098 18.468 7.41 20.045z" fill="#232323"/><path d="m185.256 101.607c-3.903-1.159-7.052-.704-9.515.413l2.75-12.476h-19.675l2.75 12.476c-2.463-1.117-5.612-1.571-9.515-.413-5.312 1.576-10.275 9.459-7.409 20.045 2.107 7.784 11.586 18.543 24.012 24.775 12.426-6.231 21.904-16.99 24.012-24.775 2.865-10.586-2.098-18.468-7.41-20.045z" fill="#494949"/></g></g></svg>