<svg height="512pt" viewBox="0 0 512.08265 512" width="512pt" xmlns="http://www.w3.org/2000/svg"><path d="m35.835938 372.324219c-11.265626-.140625-22.28125-3.34375-31.867188-9.265625-3.9882812-2.660156-5.0625-8.050782-2.402344-12.035156 2.660156-3.988282 8.046875-5.066407 12.035156-2.40625 12.976563 8.128906 29.457032 8.128906 42.433594 0 9.550782-7.097657 18.53125-14.929688 26.859375-23.429688 7.359375-7.039062 14.960938-14.320312 22.5625-20.617188 2.390625-1.976562 5.652344-2.53125 8.558594-1.449218 2.90625 1.082031 5.011719 3.628906 5.53125 6.6875.515625 3.054687-.636719 6.15625-3.023437 8.132812-7.136719 5.902344-14.511719 12.957032-21.636719 19.777344-9.039063 9.226562-18.816407 17.703125-29.234375 25.339844-8.78125 6.015625-19.171875 9.246094-29.816406 9.265625zm0 0" fill="#936642"/><path d="m34.820312 407.90625c-11.765624.511719-23.277343-3.503906-32.171874-11.222656-2.253907-2.175782-3.160157-5.402344-2.367188-8.4375.796875-3.035156 3.164062-5.402344 6.199219-6.199219 3.035156-.792969 6.261719.113281 8.441406 2.367187 5.691406 4.339844 12.746094 6.515626 19.898437 6.136719 29.574219 0 47.484376-32.820312 60.554688-56.78125 1.425781-2.828125 4.277344-4.652343 7.441406-4.765625 3.167969-.109375 6.140625 1.511719 7.761719 4.230469 1.621094 2.722656 1.628906 6.109375.023437 8.839844-14.289062 26.226562-35.863281 65.832031-75.78125 65.832031zm0 0" fill="#936642"/><path d="m399.390625 402.160156-32.03125-6.402344c-3.683594 10.78125-10.644531 20.144532-19.910156 26.777344-1.730469.917969-3.128907 2.355469-4.007813 4.105469l44.328125 6.335937c1.632813.234376 2.84375 1.628907 2.847657 3.28125v49.195313l-3.636719 7.261719c-2.457031 4.945312-.972657 10.941406 3.507812 14.167968 4.476563 3.230469 10.636719 2.742188 14.550781-1.148437l6.65625-6.648437c3.199219-3.207032 5.195313-7.417969 5.648438-11.925782l5.355469-53.5c1.484375-14.929687-8.597657-28.554687-23.308594-31.5zm0 0" fill="#936642"/><path d="m373.257812 277.179688c-34.710937-8.675782-52.066406-26.03125-52.066406-43.386719 0-13.808594-21.953125-27.617188-65.875-6.484375-13.492187 6.179687-23.726562 17.792968-28.160156 31.953125-13.035156 45.375 68 35.273437 68 35.273437s-28.175781 6-30.03125 26.199219c-.257812 3.570313 1.699219 6.929687 4.929688 8.464844 3.230468 1.535156 7.070312.929687 9.671874-1.519531 16.160157-15.164063 46.394532-41.863282 58.820313-41.863282 17.355469.042969 8.679687-8.636718 34.710937-8.636718zm0 0" fill="#5496ce"/><path d="m364.582031 212.652344c0 11.980468-9.714843 21.695312-21.695312 21.695312s-21.695313-9.714844-21.695313-21.695312c0-11.984375 9.714844-21.695313 21.695313-21.695313s21.695312 9.710938 21.695312 21.695313zm0 0" fill="#fedebb"/><path d="m95.363281 285.859375c-3.507812-.015625-6.664062-2.144531-7.992187-5.390625-1.332032-3.25-.574219-6.976562 1.917968-9.449219 17.433594-17.324219 40.78125-27.40625 65.347657-28.222656 4.792969-.160156 8.808593 3.59375 8.972656 8.386719.160156 4.789062-3.589844 8.808594-8.382813 8.972656-20.191406.667969-39.382812 8.960938-53.710937 23.203125-1.636719 1.617187-3.847656 2.515625-6.152344 2.5zm0 0" fill="#bddcf3"/><path d="m497.589844 234.347656c-1.957032-.003906-3.859375-.667968-5.390625-1.882812-7.777344-6.394532-16.828125-11.058594-26.546875-13.6875-4.644532-1.179688-7.453125-5.90625-6.273438-10.550782 1.183594-4.648437 5.90625-7.457031 10.554688-6.273437 12.09375 3.230469 23.363281 9 33.0625 16.921875 2.890625 2.296875 4.011718 6.171875 2.792968 9.65625s-4.507812 5.820312-8.199218 5.816406zm0 0" fill="#bddcf3"/><path d="m510.371094 299.363281c-6.414063-13.367187-29.582032-56.894531-59.011719-56.894531l-12.554687-12.558594c-2.757813-2.75-7.015626-3.328125-10.40625-1.410156-3.390626 1.917969-5.089844 5.863281-4.148438 9.648438l1.078125 4.339843c-6.734375 6.730469-32.066406 20.410157-60.929687 32.105469 2.863281.921875 5.710937 1.859375 8.859374 2.605469-26.03125 0-17.355468 8.675781-34.710937 8.675781-12.453125 0-42.773437 26.796875-58.914063 41.941406-2.609374 2.386719-6.410156 2.953125-9.601562 1.425782-3.191406-1.527344-5.136719-4.835938-4.917969-8.367188 1.753907-20.316406 30.042969-26.339844 30.042969-26.339844-15.644531 1.8125-31.480469 1.003906-46.859375-2.394531-30.511719-4.988281-61.433594-6.992187-92.332031-5.976563-28.773438.761719-51.703125 24.292969-51.722656 53.074219.867187 50.609375 52.066406 42.296875 52.066406 68.113281-.816406 9.921876-4.628906 19.359376-10.933594 27.066407-1.480469 2.007812-2.027344 4.554687-1.5 6.992187s2.082031 4.53125 4.261719 5.746094l68.917969 38.296875v11.496094c0 3.75 1.492187 7.347656 4.140624 10l2.601563 2.601562c2.167969 2.164063 5.332031 2.992188 8.285156 2.175781 2.949219-.820312 5.230469-3.160156 5.976563-6.132812l4.285156-17.175781c.5-1.984375.75-4.023438.746094-6.074219v-2.601562c0-7.375-3.28125-14.371094-8.945313-19.089844l-33.800781-28.171875c-4.925781-4.132813-5.984375-11.296875-2.464844-16.679688 4.367188-6.78125 7.484375-14.289062 9.207032-22.171875.519531-2.476562 2.242187-4.535156 4.589843-5.484375 2.347657-.949219 5.015625-.671875 7.117188.746094 13.882812 9.488281 39.441406 24.75 62.417969 26.902344 3.292968.222656 6.308593 1.925781 8.191406 4.636719l31.789062 47.667968-34.710937-8.679687-11.613281-11.59375c-3.914063-3.894531-10.070313-4.378907-14.550782-1.152344-4.476562 3.230469-5.960937 9.222656-3.507812 14.167969l6.179687 12.359375c3.890625 7.796875 10.996094 13.503906 19.449219 15.621093l41.808594 10.414063c8.871094 2.214844 18.257812-.382813 24.722656-6.847656l2.34375-2.34375c7.933594-7.925781 9.898438-20.042969 4.878906-30.070313l-13.019531-25.945312c-2.003906-4.347656-.109375-9.496094 4.234375-11.507813 26.269531-13.617187 30.6875-87.863281 77.878906-119.320312 0 0 8.675782 8.675781 34.710938 8.675781 8.558594 2.738281 16.5625 6.980469 23.628906 12.53125 2.234375 2.546875 5.742188 3.566406 8.992188 2.601562l5.699218-1.898437c7-2.566406 12.167969-8.582031 13.644532-15.890625.390624-3.367188-.160157-6.78125-1.589844-9.855469zm0 0" fill="#be9379"/><path d="m321.722656 294.535156c-4.289062 0-7.933594-3.136718-8.574218-7.375-1.414063-9.242187-18.9375-16.4375-44.648438-18.300781-4.792969-.347656-8.398438-4.511719-8.054688-9.304687.34375-4.792969 4.511719-8.398438 9.304688-8.050782 20.964844 1.527344 56.710938 7.808594 60.554688 32.976563.71875 4.734375-2.535157 9.160156-7.273438 9.882812-.429688.089844-.871094.148438-1.308594.171875zm0 0" fill="#336a93"/><path d="m228.824219 348.097656c13.238281 10.898438 28.679687 18.800782 45.261719 23.167969 7.234374 1.574219 14.769531-.671875 19.960937-5.953125 13.605469-13.945312 40.71875-45.894531 41.515625-78.96875-13.738281 3.351562-40.785156 27.285156-55.808594 41.351562-2.597656 2.484376-6.460937 3.109376-9.710937 1.570313-3.25-1.542969-5.214844-4.925781-4.9375-8.511719 1.859375-20.21875 30.050781-26.21875 30.050781-26.21875-15.644531 1.8125-31.480469 1.003906-46.859375-2.394531-7.566406-.867187-14.867187-1.960937-22.648437-2.941406-.25 12.261719-1.703126 24.472656-4.339844 36.449219-2.160156 8.308593.789062 17.113281 7.515625 22.449218zm0 0" fill="#ed634c"/><path d="m234.410156 407.351562c-4.0625.046876-7.617187-2.730468-8.550781-6.6875-.933594-3.957031 1.003906-8.03125 4.664063-9.800781 8.292968-5.238281 14.75-12.929687 18.46875-22.007812 2.089843-4.3125 7.285156-6.113281 11.597656-4.023438 4.3125 2.09375 6.113281 7.285157 4.019531 11.597657-5.378906 12.53125-14.589844 23.039062-26.308594 30.007812-1.207031.601562-2.539062.914062-3.890625.914062zm0 0" fill="#cd4f38"/><path d="m43.496094 138.890625c-28.203125 0-38.972656-9.347656-40.847656-11.222656-2.253907-2.179688-3.160157-5.40625-2.367188-8.4375.796875-3.035157 3.164062-5.40625 6.199219-6.199219 3.035156-.792969 6.261719.109375 8.441406 2.367188 8.664063 4.945312 18.644531 7.085937 28.574219 6.132812 16.539062 0 26.035156-6.324219 26.035156-17.355469 0-12.285156-5.78125-14.75-27.109375-17.425781-16.84375-2.097656-42.316406-5.285156-42.316406-34.640625 0-22.5625 22.355469-34.710937 43.390625-34.710937 30.808594 0 41.855468 19.429687 42.3125 20.253906 2.21875 4.164062.699218 9.335937-3.414063 11.644531-4.117187 2.304687-9.320312.902344-11.71875-3.15625-6.511719-8.203125-16.765625-12.5-27.179687-11.386719-10.8125 0-26.035156 5.378906-26.035156 17.355469 0 12.289063 5.78125 14.753906 27.113281 17.425781 16.84375 2.097656 42.3125 5.285156 42.3125 34.640625 0 16.019531-11.367188 34.714844-43.390625 34.714844zm0 0" fill="#23b972"/><path d="m43.496094 156.246094c-4.792969 0-8.675782-3.886719-8.675782-8.679688v-17.355468c0-4.792969 3.882813-8.679688 8.675782-8.679688 4.792968 0 8.679687 3.886719 8.679687 8.679688v17.355468c0 4.792969-3.886719 8.679688-8.679687 8.679688zm0 0" fill="#23b972"/><path d="m43.496094 34.753906c-4.792969 0-8.675782-3.886718-8.675782-8.679687v-17.355469c0-4.792969 3.882813-8.6757812 8.675782-8.6757812 4.792968 0 8.679687 3.8828122 8.679687 8.6757812v17.355469c0 4.792969-3.886719 8.679687-8.679687 8.679687zm0 0" fill="#23b972"/><g fill="#ed634c"><path d="m130.277344 95.5h-17.355469c-4.792969 0-8.679687-3.886719-8.679687-8.679688 0-4.792968 3.886718-8.675781 8.679687-8.675781h17.355469c4.792968 0 8.675781 3.882813 8.675781 8.675781 0 4.792969-3.882813 8.679688-8.675781 8.679688zm0 0"/><path d="m182.34375 95.5h-17.355469c-4.792969 0-8.679687-3.886719-8.679687-8.679688 0-4.792968 3.886718-8.675781 8.679687-8.675781h17.355469c4.792969 0 8.679688 3.882813 8.679688 8.675781 0 4.792969-3.886719 8.679688-8.679688 8.679688zm0 0"/><path d="m234.410156 95.5h-17.355468c-4.792969 0-8.675782-3.886719-8.675782-8.679688 0-4.792968 3.882813-8.675781 8.675782-8.675781h17.355468c4.792969 0 8.679688 3.882813 8.679688 8.675781 0 4.792969-3.886719 8.679688-8.679688 8.679688zm0 0"/><path d="m286.480469 112.855469c-4.792969 0-8.679688-3.886719-8.679688-8.679688s-3.882812-8.675781-8.675781-8.675781-8.679688-3.886719-8.679688-8.679688c0-4.792968 3.886719-8.675781 8.679688-8.675781 14.375 0 26.03125 11.652344 26.03125 26.03125 0 4.792969-3.882812 8.679688-8.675781 8.679688zm0 0"/><path d="m286.480469 164.921875c-4.792969 0-8.679688-3.882813-8.679688-8.675781v-17.355469c0-4.792969 3.886719-8.679687 8.679688-8.679687s8.675781 3.886718 8.675781 8.679687v17.355469c0 4.792968-3.882812 8.675781-8.675781 8.675781zm0 0"/><path d="m286.480469 216.992188c-4.792969 0-8.679688-3.886719-8.679688-8.679688v-17.355469c0-4.792969 3.886719-8.679687 8.679688-8.679687s8.675781 3.886718 8.675781 8.679687v17.355469c0 4.792969-3.882812 8.679688-8.675781 8.679688zm0 0"/></g></svg>