<svg id="Layer_1" height="512" viewBox="0 0 512 512" width="512" xmlns="http://www.w3.org/2000/svg" data-name="Layer 1"><path d="m104.85 16a50.912 50.912 0 0 0 -50.85 51.29v357.55a7.227 7.227 0 0 0 11.78 5.76l21.41-17.21a9.4 9.4 0 0 1 11.805 0l28.873 23.12a7.39 7.39 0 0 0 9.216 0l28.893-23.12a9.47 9.47 0 0 1 11.856 0l28.9 23.12a7.4 7.4 0 0 0 9.219.06l37.908-29.57h.14l81.03-11 33.97-107v-228.33a44.752 44.752 0 0 1 44.77-44.67z" fill="#a0eaea"/><path d="m84 67.29a50.912 50.912 0 0 1 50.85-51.29h-30a50.912 50.912 0 0 0 -50.85 51.29v357.55a7.227 7.227 0 0 0 11.78 5.76l18.22-14.646z" fill="#88ced8"/><path d="m268.045 272h-92.659a6 6 0 1 0 0 12h92.659a6 6 0 1 0 0-12z" fill="#629ca0"/><path d="m458.44 60.67v159.9h-89.35v-159.9a44.675 44.675 0 0 1 89.35 0z" fill="#88ced8"/><path d="m333.2 240.175a77 77 0 1 1 -76.993 77.007 77 77 0 0 1 76.993-77.007z" fill="#edb740"/><path d="m333.2 262.42a54.755 54.755 0 1 1 -54.75 54.76 54.758 54.758 0 0 1 54.75-54.76z" fill="#f3ce7d"/><path d="m401.34 463h-136.27c-6.12 0-11.07 4.55-11.07 10.64v11.23a11.075 11.075 0 0 0 11.07 11.13h136.27c6.15 0 10.66-4.98 10.66-11.13v-11.13a10.413 10.413 0 0 0 -10.66-10.74z" fill="#f3ce7d"/><path d="m401.34 429h-136.27a11.28 11.28 0 0 0 -11.07 11.36v11.13c0 6.15 4.92 11.51 11.07 11.51h136.27c6.15 0 10.66-5.36 10.66-11.51v-11.13c0-6.14-4.51-11.36-10.66-11.36z" fill="#edb740"/><path d="m401.34 396h-136.27a10.921 10.921 0 0 0 -11.07 10.88v11.23a10.873 10.873 0 0 0 11.07 10.89h136.27a10.531 10.531 0 0 0 10.66-10.89v-11.13a10.613 10.613 0 0 0 -10.66-10.98z" fill="#f3ce7d"/><path d="m308.45 317.18a54.771 54.771 0 0 1 39.75-52.663 54.755 54.755 0 1 0 0 105.316 54.756 54.756 0 0 1 -39.75-52.653z" fill="#ceae6f"/><path d="m422.97 60.361a6 6 0 0 1 -6-6v-2.985a6 6 0 1 1 12 0v2.985a6 6 0 0 1 -6 6z" fill="#f4f8fc"/><path d="m422.97 166.34a6 6 0 0 1 -6-6v-86.669a6 6 0 1 1 12 0v86.669a6 6 0 0 1 -6 6z" fill="#f4f8fc"/><path d="m346.4 338h-6.625a22.958 22.958 0 0 1 -16.192-7h19.208a6 6 0 0 0 0-12h-24.2c-.048-1-.089-1.4-.089-2s.041-1 .089-2h24.2a6 6 0 0 0 0-12h-19.206a22.957 22.957 0 0 1 16.192-7h6.623a6 6 0 1 0 0-12h-6.625a33.712 33.712 0 0 0 -30.283 19h-7.092a6 6 0 0 0 0 12h4.145c-.03 1-.047 1.406-.047 2s.017 1 .048 2h-4.146a6 6 0 0 0 0 12h7.092a33.712 33.712 0 0 0 30.283 19h6.625a6 6 0 1 0 0-12z" fill="#4e6cca"/><g fill="#629ca0"><path d="m97.327 212h-2.82a6 6 0 0 0 0 12h2.82a6 6 0 0 0 0-12z"/><path d="m146.784 212h-21.31a6 6 0 1 0 0 12h21.31a6 6 0 0 0 0-12z"/><path d="m328.146 212h-152.76a6 6 0 1 0 0 12h152.76a6 6 0 0 0 0-12z"/><path d="m97.327 152h-2.82a6 6 0 0 0 0 12h2.82a6 6 0 0 0 0-12z"/><path d="m146.784 152h-21.31a6 6 0 1 0 0 12h21.31a6 6 0 0 0 0-12z"/><path d="m328.146 152h-152.76a6 6 0 1 0 0 12h152.76a6 6 0 0 0 0-12z"/><path d="m97.327 92h-2.82a6 6 0 0 0 0 12h2.82a6 6 0 0 0 0-12z"/><path d="m146.784 92h-21.31a6 6 0 1 0 0 12h21.31a6 6 0 0 0 0-12z"/><path d="m175.386 104h152.76a6 6 0 0 0 0-12h-152.76a6 6 0 1 0 0 12z"/><path d="m97.327 272h-2.82a6 6 0 0 0 0 12h2.82a6 6 0 0 0 0-12z"/><path d="m146.784 272h-21.31a6 6 0 1 0 0 12h21.31a6 6 0 0 0 0-12z"/></g><path d="m324.4 420.267a6 6 0 0 1 -6-6v-3.44a6 6 0 0 1 12 0v3.44a6 6 0 0 1 -6 6z" fill="#edb740"/><path d="m306.8 420.267a6 6 0 0 1 -6-6v-3.44a6 6 0 0 1 12 0v3.44a6 6 0 0 1 -6 6z" fill="#edb740"/><path d="m289.188 420.267a6 6 0 0 1 -6-6v-3.44a6 6 0 0 1 12 0v3.44a6 6 0 0 1 -6 6z" fill="#edb740"/><path d="m271.581 420.267a6 6 0 0 1 -6-6v-3.44a6 6 0 0 1 12 0v3.44a6 6 0 0 1 -6 6z" fill="#edb740"/><path d="m359.615 420.267a6 6 0 0 1 -6-6v-3.44a6 6 0 0 1 12 0v3.44a6 6 0 0 1 -6 6z" fill="#edb740"/><path d="m342.008 420.267a6 6 0 0 1 -6-6v-3.44a6 6 0 0 1 12 0v3.44a6 6 0 0 1 -6 6z" fill="#edb740"/><path d="m394.829 420.267a6 6 0 0 1 -6-6v-3.44a6 6 0 0 1 12 0v3.44a6 6 0 0 1 -6 6z" fill="#edb740"/><path d="m377.222 420.267a6 6 0 0 1 -6-6v-3.44a6 6 0 0 1 12 0v3.44a6 6 0 0 1 -6 6z" fill="#edb740"/><path d="m324.4 453.647a6 6 0 0 1 -6-6v-3.439a6 6 0 0 1 12 0v3.439a6 6 0 0 1 -6 6z" fill="#c1943a"/><path d="m306.8 453.647a6 6 0 0 1 -6-6v-3.439a6 6 0 0 1 12 0v3.439a6 6 0 0 1 -6 6z" fill="#c1943a"/><path d="m289.188 453.647a6 6 0 0 1 -6-6v-3.439a6 6 0 1 1 12 0v3.439a6 6 0 0 1 -6 6z" fill="#c1943a"/><path d="m271.581 453.647a6 6 0 0 1 -6-6v-3.439a6 6 0 1 1 12 0v3.439a6 6 0 0 1 -6 6z" fill="#c1943a"/><path d="m359.615 453.647a6 6 0 0 1 -6-6v-3.439a6 6 0 0 1 12 0v3.439a6 6 0 0 1 -6 6z" fill="#c1943a"/><path d="m342.008 453.647a6 6 0 0 1 -6-6v-3.439a6 6 0 0 1 12 0v3.439a6 6 0 0 1 -6 6z" fill="#c1943a"/><path d="m394.829 453.647a6 6 0 0 1 -6-6v-3.439a6 6 0 0 1 12 0v3.439a6 6 0 0 1 -6 6z" fill="#c1943a"/><path d="m377.222 453.647a6 6 0 0 1 -6-6v-3.439a6 6 0 0 1 12 0v3.439a6 6 0 0 1 -6 6z" fill="#c1943a"/><path d="m324.4 487.029a6 6 0 0 1 -6-6v-3.439a6 6 0 0 1 12 0v3.439a6 6 0 0 1 -6 6z" fill="#edb740"/><path d="m306.8 487.029a6 6 0 0 1 -6-6v-3.439a6 6 0 0 1 12 0v3.439a6 6 0 0 1 -6 6z" fill="#edb740"/><path d="m289.188 487.029a6 6 0 0 1 -6-6v-3.439a6 6 0 0 1 12 0v3.439a6 6 0 0 1 -6 6z" fill="#edb740"/><path d="m271.581 487.029a6 6 0 0 1 -6-6v-3.439a6 6 0 0 1 12 0v3.439a6 6 0 0 1 -6 6z" fill="#edb740"/><path d="m359.615 487.029a6 6 0 0 1 -6-6v-3.439a6 6 0 1 1 12 0v3.439a6 6 0 0 1 -6 6z" fill="#edb740"/><path d="m342.008 487.029a6 6 0 0 1 -6-6v-3.439a6 6 0 0 1 12 0v3.439a6 6 0 0 1 -6 6z" fill="#edb740"/><path d="m394.829 487.029a6 6 0 0 1 -6-6v-3.439a6 6 0 0 1 12 0v3.439a6 6 0 0 1 -6 6z" fill="#edb740"/><path d="m377.222 487.029a6 6 0 0 1 -6-6v-3.439a6 6 0 1 1 12 0v3.439a6 6 0 0 1 -6 6z" fill="#edb740"/><path d="m339 385.872a6 6 0 0 0 -12 0v7.965c0 .028.106.056.107.084 1.978.152 4.022.254 6.04.254s3.943-.1 5.926-.255c0-.028-.073-.055-.073-.083z" fill="#bc8f35"/><path d="m327.081 240.429c0 .031-.081.061-.081.092v7.964a6 6 0 0 0 12 0v-7.964c0-.031.1-.06.1-.091-1.983-.153-3.929-.255-5.951-.255s-4.089.102-6.068.254z" fill="#bc8f35"/><path d="m409.95 311.071c-.029 0-.058-.071-.087-.071h-7.963a6 6 0 0 0 0 12h7.965c.03 0 .058.085.088.085.152-1.98.254-3.929.254-5.948s-.107-4.084-.257-6.066z" fill="#bc8f35"/><path d="m264.511 311h-7.964c-.029 0-.058.093-.087.094-.153 1.982-.255 4.022-.255 6.043s.1 3.946.255 5.926c.029 0 .057-.063.087-.063h7.964a6 6 0 0 0 0-12z" fill="#bc8f35"/><path d="m381.779 274.6a5.978 5.978 0 0 0 4.242-1.757l5.632-5.632c.022-.022.036-.048.057-.07a77.365 77.365 0 0 0 -8.472-8.472c-.022.021-.048.036-.07.057l-5.632 5.632a6 6 0 0 0 4.243 10.242z" fill="#bc8f35"/><path d="m280.389 361.51-5.632 5.632c-.022.022-.037.048-.058.071a77.444 77.444 0 0 0 8.472 8.471c.022-.022.049-.036.071-.058l5.632-5.632a6 6 0 0 0 -8.485-8.484z" fill="#bc8f35"/><path d="m283.242 258.73c-.022-.022-.049-.036-.071-.058a77.374 77.374 0 0 0 -8.472 8.473c.022.022.036.048.058.07l5.632 5.632a6 6 0 1 0 8.485-8.485z" fill="#bc8f35"/><path d="m386.021 361.51a6 6 0 0 0 -8.485 8.484l5.632 5.632c.022.022.048.036.07.057a77.541 77.541 0 0 0 8.473-8.471c-.022-.022-.036-.048-.058-.07z" fill="#bc8f35"/></svg>