<svg height="464pt" viewBox="0 0 464 464" width="464pt" xmlns="http://www.w3.org/2000/svg"><path d="m464 64c0-35.347656-28.652344-64-64-64h-336c-35.347656 0-64 28.652344-64 64v256c0 35.347656 28.652344 64 64 64h32c82.917969-22.199219 159.582031-63.269531 224-120 62.339844-55.070312 111.546875-123.410156 144-200zm0 0" fill="#6ffaff"/><path d="m320 264c-64.417969 56.730469-141.082031 97.800781-224 120l-32 80 168-80h168c35.347656 0 64-28.652344 64-64v-256c-32.453125 76.589844-81.660156 144.929688-144 200zm0 0" fill="#46f8ff"/><path d="m269.097656 132.945312-21.898437-67.34375c-2.15625-6.566406-8.289063-11.003906-15.199219-11.003906s-13.042969 4.4375-15.199219 11.003906l-21.878906 67.328126c-2.140625 6.601562-8.292969 11.074218-15.234375 11.070312h-70.792969c-6.929687 0-13.074219 4.460938-15.21875 11.054688-2.140625 6.59375.203125 13.816406 5.8125 17.890624l57.273438 41.597657c5.605469 4.074219 7.957031 11.296875 5.8125 17.890625l-21.878907 67.328125c-2.023437 5.945312-.289062 12.527343 4.410157 16.703125l128.558593-176.800782c-2.082031-1.804687-3.65625-4.121093-4.566406-6.71875zm0 0" fill="#ff5e78"/><path d="m355.105469 144h-70.792969c-3.960938-.046875-7.761719-1.574219-10.648438-4.289062l-128.558593 176.800781c5.558593 5.242187 14.078125 5.742187 20.214843 1.183593l57.273438-41.597656c5.609375-4.078125 13.203125-4.078125 18.8125 0l57.273438 41.597656c5.609374 4.078126 13.203124 4.078126 18.8125.003907 5.609374-4.074219 7.953124-11.296875 5.8125-17.890625l-21.878907-67.328125c-2.144531-6.59375.207031-13.816407 5.8125-17.886719l57.273438-41.601562c5.652343-4.0625 8.027343-11.3125 5.878906-17.929688-2.144531-6.621094-8.328125-11.09375-15.285156-11.0625zm0 0" fill="#ff3051"/></svg>