<svg xmlns="http://www.w3.org/2000/svg" xmlns:xlink="http://www.w3.org/1999/xlink" width="25" height="25" viewBox="0 0 25 25">
    <defs>
        <path id="a" d="M0 0h25v25H0z"/>
    </defs>
    <g fill="none" fill-rule="evenodd">
        <g>
            <mask id="b" fill="#fff">
                <use xlink:href="#a"/>
            </mask>
            <path fill="#7E4E29" d="M12.5 0C19.403 0 25 5.596 25 12.5 25 19.403 19.403 25 12.5 25 5.596 25 0 19.403 0 12.5 0 5.596 5.596 0 12.5 0" mask="url(#b)"/>
        </g>
        <path fill="#FFF" d="M20.033 16.16l-.152.684-.003-.001-.076.27a.841.841 0 0 1-.74.501H16.67l-.207-1.918h3.23c.128 0 .232.047.292.13.06.081.08.202.048.334zm-.79 3.196c-.088.352-.466.655-.808.655h-.928c-.32 0-.622-.286-.657-.627l-.093-.881h2.305c.14 0 .279-.02.41-.061l-.23.914zm-7.301-2.014c0 .505-.364.606-.809.606-.608 0-1.142-.667-1.453-1.17C8.806 15.691 7.51 15 6.061 15c-.223 0-.8.099-.866-.047a7.672 7.672 0 0 1-.67-3.147c0-4.022 3.058-7.283 6.83-7.283 2.931 0 5.431 1.97 6.398 4.737-6.127 1.352-5.97 6.904-5.811 8.082zm1.242-2.536c.326-1.3 1.065-2.469 2.059-3.272l.341 3.272h-2.4zm-.287 2.808c.073-.175.116-.36.13-.547h.026v.035c.064-.075.011-.152.011-.23 0-.078.053-.155-.011-.23v-.871c.064-.024-.02-.075-.019-.075h2.638l.206 1.918h-2.981zM20.6 15.28a1.142 1.142 0 0 0-.91-.474h-3.316l-.396-3.749a5.348 5.348 0 0 1 2.674-.702c.199 0 .396.018.588.039-.618-4.122-3.967-7.27-8.007-7.27-4.479 0-8.11 3.874-8.11 8.65 0 1.545.38 2.995 1.045 4.249a5.35 5.35 0 0 1 .779-.056c1.72 0 3.26.82 4.298 2.111.368.6 1.004.99 1.727.99a2.01 2.01 0 0 0 1.374-.565h3.617l.103.967c.08.756.726 1.363 1.44 1.363h.928c.698 0 1.386-.549 1.567-1.267l.545-2.158c.024-.064.045-.131.06-.198l.192-.87c.084-.382.012-.777-.198-1.06z"/>
    </g>
</svg>
