<svg xmlns="http://www.w3.org/2000/svg" width="24" height="24" viewBox="0 0 24 24">
    <g fill="none" fill-rule="nonzero">
        <path fill="#FF3D00" d="M12 0c6.627 0 12 5.373 12 12s-5.373 12-12 12S0 18.627 0 12 5.373 0 12 0z"/>
        <path fill="#FFF" d="M19.071 4.929A9.935 9.935 0 0 0 12 1.999a9.93 9.93 0 0 0-7.071 2.93A9.935 9.935 0 0 0 1.999 12a9.93 9.93 0 0 0 2.93 7.071A9.93 9.93 0 0 0 12 22.001a9.93 9.93 0 0 0 7.071-2.93A9.93 9.93 0 0 0 22.001 12a9.93 9.93 0 0 0-2.93-7.071zM12 20.677c-4.785 0-8.679-3.892-8.679-8.677S7.215 3.321 12 3.321A8.688 8.688 0 0 1 20.677 12 8.686 8.686 0 0 1 12 20.677zm.86-16.05l-.006-.266A8.115 8.115 0 0 0 12 4.314l-.141.002.009.312c0 3.64-3.324 6.637-7.54 6.934-.02.332-.017.663.005.995 2.188-.142 4.223-.938 5.795-2.282 1.762-1.502 2.732-3.509 2.732-5.647zm6.794 6.679l-.035.076a16.635 16.635 0 0 1-4.133 5.28 18.061 18.061 0 0 1-4.764 2.919c.719.12 1.45.138 2.175.053a18.715 18.715 0 0 0 3.23-2.219 17.886 17.886 0 0 0 3.406-3.88 7.722 7.722 0 0 0 .121-2.23zM16.566 9.95c.5-1.008.857-2.08 1.06-3.186a7.775 7.775 0 0 0-.88-.81 10.989 10.989 0 0 1-1.07 3.556 11.933 11.933 0 0 1-2.97 3.783C10.755 14.96 8.32 16.031 5.697 16.4c.219.312.462.606.726.888 2.583-.467 4.979-1.577 6.927-3.242a12.9 12.9 0 0 0 3.216-4.096z"/>
    </g>
</svg>
