<svg xmlns="http://www.w3.org/2000/svg" width="24" height="24" viewBox="0 0 24 24">
    <g fill="none" fill-rule="nonzero">
        <path fill="#AB0049" d="M12 0c6.627 0 12 5.373 12 12s-5.373 12-12 12S0 18.627 0 12 5.373 0 12 0z"/>
        <path fill="#FFF" d="M12 21.998a9.973 9.973 0 0 1-7.05-2.92A9.966 9.966 0 0 1 2.005 12 9.969 9.969 0 0 1 4.95 4.918c3.898-3.892 10.212-3.892 14.11 0a9.97 9.97 0 0 1 2.935 7.08 9.957 9.957 0 0 1-2.934 7.079A9.99 9.99 0 0 1 12 21.997zM5.516 17.66a.408.408 0 0 1 .103-.558.38.38 0 0 1 .533.095l.008.013.388.585.232-.61-.705-.836a.412.412 0 0 1 .033-.566.388.388 0 0 1 .548.021l.012.015.403.488.173-.628-.758-.692a.418.418 0 0 1-.033-.577.39.39 0 0 1 .55-.035l.431.399.111-.646-.808-.559a.408.408 0 0 1-.104-.559.382.382 0 0 1 .527-.117l.014.01.473.322.043-.676-.859-.415a.414.414 0 0 1-.182-.541.384.384 0 0 1 .508-.194l.018.008.524.258-.025-.692-.905-.293a.405.405 0 0 1-.258-.505c.07-.213.284-.338.491-.265l.594.194-.095-.7-.963-.17a.408.408 0 0 1-.317-.469.392.392 0 0 1 .447-.33l.007.002.665.112-.035-.141-.138-.558-1.024-.043a.393.393 0 0 1-.37-.416V7.39c0-.217.178-.391.394-.391h.011l.748.036-.242-.69-1.1.08a.375.375 0 0 1-.377-.231A8.849 8.849 0 0 0 3.046 12c0 2.454.998 4.678 2.615 6.284l.464.444.043-.082-.653-.985zm.248-12.062l.595-.035-.164-.354-.43.39zm1.068-.877l.024.045.139.291.335-.558a.38.38 0 0 1 .513-.154l.021.011a.41.41 0 0 1 .13.558l-.612 1.048.232.647.353-.462a.394.394 0 0 1 .55-.07.416.416 0 0 1 .062.567l-.682.905.173.682.009.009.37-.381a.375.375 0 0 1 .53-.02L9 7.86a.405.405 0 0 1 0 .567l-.741.762.104.727.412-.319a.375.375 0 0 1 .527.046l.024.034a.405.405 0 0 1-.077.558l-.8.62.034.764.463-.267a.39.39 0 0 1 .53.149l.005.011a.416.416 0 0 1-.155.55l-.853.487-.05.771.541-.212c.197-.08.421.026.5.239a.402.402 0 0 1-.224.513l-.921.363-.129.772.62-.14a.382.382 0 0 1 .46.287l.002.013a.399.399 0 0 1-.29.486h-.003l-.981.23-.207.763.697-.071a.404.404 0 0 1 .431.364.408.408 0 0 1-.353.442l-1.059.105-.283.735.783.018c.216 0 .387.178.387.406a.4.4 0 0 1-.396.4l-1.136-.019-.067.146-.033.063a9.003 9.003 0 0 0 10.486 0l-.034-.063-.069-.143-1.136.018a.399.399 0 0 1-.396-.399c0-.228.171-.408.387-.408l.782-.017-.291-.734-1.05-.105a.405.405 0 1 1 .08-.808l.694.071-.207-.762-.978-.23a.414.414 0 0 1-.303-.486.396.396 0 0 1 .471-.303l.003.002.62.141-.13-.771-.919-.363a.405.405 0 0 1-.225-.514.377.377 0 0 1 .476-.247l.024.008.541.212-.052-.77-.852-.487a.42.42 0 0 1-.156-.551c.099-.19.333-.264.523-.165l.01.006.467.265.034-.763-.8-.62a.408.408 0 0 1-.079-.557.375.375 0 0 1 .521-.104l.031.024.413.318.104-.726-.742-.762a.414.414 0 0 1-.008-.567.385.385 0 0 1 .545-.012l.015.012.37.381.007-.009.163-.684-.679-.905a.417.417 0 0 1 .069-.566c.172-.131.417-.1.55.07l.353.46.231-.646-.609-1.046a.402.402 0 0 1 .12-.553l.009-.005a.38.38 0 0 1 .52.122l.014.021.336.558.137-.292.028-.046A8.99 8.99 0 0 0 12 3.093a8.925 8.925 0 0 0-5.168 1.629zM17.85 17.211a.384.384 0 0 1 .543-.106.414.414 0 0 1 .103.559l-.655.982.034.081.474-.442a8.823 8.823 0 0 0 2.612-6.284 8.895 8.895 0 0 0-2.158-5.806.38.38 0 0 1-.38.231l-1.096-.081-.241.692.748-.037a.391.391 0 0 1 .404.38v.01a.396.396 0 0 1-.372.418h-.006l-1.023.043-.138.558-.027.143.662-.116a.393.393 0 0 1 .454.318l.002.009a.413.413 0 0 1-.319.47l-.964.169-.095.7.595-.194c.206-.072.42.052.49.265a.414.414 0 0 1-.258.505l-.904.293-.026.691.525-.258a.385.385 0 0 1 .516.168l.009.019a.41.41 0 0 1-.189.541l-.852.415.042.675.474-.32a.381.381 0 0 1 .531.093l.01.014a.411.411 0 0 1-.103.561l-.809.559.104.648.438-.401a.39.39 0 0 1 .549.035.417.417 0 0 1-.032.577l-.759.692.173.628.405-.488a.385.385 0 0 1 .544-.046l.014.012a.42.42 0 0 1 .035.567l-.706.834.232.61.39-.586zM17.814 5.21l-.16.354.592.035-.432-.39z"/>
    </g>
</svg>
