<svg xmlns="http://www.w3.org/2000/svg" width="24" height="24" viewBox="0 0 24 24">
    <g fill="none" fill-rule="nonzero">
        <path fill="#FF8E00" d="M12 0c6.627 0 12 5.373 12 12s-5.373 12-12 12S0 18.627 0 12 5.373 0 12 0z"/>
        <path fill="#FFF" stroke="#FFF" stroke-width=".25" d="M5.604 18.189c.077-1.445.29-3.04.747-4.647-1.071-.538-2.172-.822-3.212-.634a8.877 8.877 0 0 0 2.465 5.281m8.189 2.54a34.736 34.736 0 0 0-3.546-4.208c-.881-.876-1.934-1.796-3.047-2.496-.405 1.521-.626 3.19-.659 5.008A8.855 8.855 0 0 0 12 20.91a9.025 9.025 0 0 0 1.793-.18M20.907 12a9.069 9.069 0 0 0-.078-1.16 26.574 26.574 0 0 1-4.688.435c-2.906 0-5.254-.55-6.994-1.638a14.284 14.284 0 0 0-1.659 3.43c3.457 2.065 6.486 6.218 7.302 7.393A8.924 8.924 0 0 0 20.907 12m-4.384-7.671c-.61.147-2.753.762-4.875 2.529-.72.6-1.365 1.266-1.935 1.995 3.56 2.177 9.272 1.344 10.939 1.037a8.934 8.934 0 0 0-4.13-5.561m-9.638.386c.287 1.483.976 2.684 2.048 3.58a13.889 13.889 0 0 1 6.311-4.59 8.856 8.856 0 0 0-8.36 1.01m-3.787 7.22c1.168-.178 2.373.11 3.546.675A15.338 15.338 0 0 1 8.37 9.084c-1.16-.946-1.94-2.186-2.326-3.698a8.882 8.882 0 0 0-2.948 6.55M2.127 12a9.866 9.866 0 0 1 3.884-7.843l.098-.079a9.825 9.825 0 0 1 5.893-1.954 9.795 9.795 0 0 1 4.789 1.245l.105.061a9.902 9.902 0 0 1 4.802 6.715l.005.014.003.042c.107.584.167 1.185.167 1.799 0 4.477-3 8.273-7.095 9.474l-.116.032a9.827 9.827 0 0 1-8.857-1.826l-.099-.081a9.876 9.876 0 0 1-3.55-6.906l-.006-.013-.01-.236L2.127 12"/>
    </g>
</svg>
