<svg xmlns="http://www.w3.org/2000/svg" width="24" height="24" viewBox="0 0 24 24">
    <g fill="none" fill-rule="nonzero">
        <path fill="#E00039" d="M12 0c6.627 0 12 5.373 12 12s-5.373 12-12 12S0 18.627 0 12 5.373 0 12 0z"/>
        <path fill="#FFF" d="M16.735 5.213c-2.161-1.532-7.108-1.907-9.361.692-1.54 1.792-1.629 4.826-1.095 7.02.473 1.793 1.362 3.12 2.459 3.728l.03 2.516a.6.6 0 0 0 .592.605l.03-.003 6.518.232a.68.68 0 0 0 .473-.173.861.861 0 0 0 .209-.433v-2.543l.03-.028c.976-.955 2.133-3.12.592-5.604.473-.636.741-1.416.8-2.282.087-1.531-.506-3.151-1.277-3.727zm-1.391 13.549l-5.274-.174v-1.56l5.302.146-.028 1.588zm1.391-9.91c-.03.721-.295 1.675-1.243 2.252-1.095.608-2.637.55-3.674-.172-.562-.375-1.186-1.098-.919-2.34a.606.606 0 0 0-.502-.722c-.356-.058-.683.144-.742.491a3.69 3.69 0 0 0 .238 2.196c-.445.258-1.126.809-1.007 1.617.03.318.356.578.681.549a.717.717 0 0 0 .592-.693c0-.115.237-.346.505-.49.148.144.295.288.444.375 1.451 1.009 3.496 1.098 5.037.23l.148-.085c1.097 2.05-.237 3.58-.561 3.899l-5.958-.203-.177-.116c-.89-.345-1.63-1.473-2.046-3.033-.593-2.251-.236-4.678.831-5.951 1.689-1.992 5.896-1.704 7.614-.491.269.26.83 1.388.74 2.686z"/>
    </g>
</svg>
