<svg xmlns="http://www.w3.org/2000/svg" width="24" height="24" viewBox="0 0 24 24">
    <g fill="none" fill-rule="nonzero">
        <path fill="#535353" d="M12 0c6.627 0 12 5.373 12 12s-5.373 12-12 12S0 18.627 0 12 5.373 0 12 0z"/>
        <path fill="#FFF" d="M18.454 17.998c-1.953 0-3.543-1.816-3.543-4.048 0-1.413.643-2.656 1.606-3.381l-.27-.602-3.364 3.274-.14.058c.07.203.112.421.112.651 0 .957-.681 1.734-1.517 1.734-.704 0-1.292-.556-1.462-1.302h-.835c-.193 2.027-1.68 3.615-3.505 3.615-1.954 0-3.542-1.815-3.542-4.047 0-2.232 1.59-4.048 3.543-4.048.699 0 1.348.238 1.896.642L9.104 8.15l.063-.06-.19-.63-.643.091-.012.002-.072-.032-.035-.091a.93.93 0 0 1 .25-.642.7.7 0 0 1 .584-.216l1.993.198.099.123v.15l-.095.123-1.447.207.192.615h5.57l-.607-1.354a.487.487 0 0 1 .015-.423.369.369 0 0 1 .323-.207h2.233l.122.024c.055.022.556.229.639.768.061.396-.126.795-.555 1.189A.348.348 0 0 1 17 7.919a.475.475 0 0 1 .058-.608c.252-.231.28-.356.285-.356l-.095-.082h-1.536l1.481 3.31a3.152 3.152 0 0 1 1.261-.277c1.953 0 3.543 1.816 3.543 4.047 0 2.229-1.591 4.046-3.543 4.046zm-7.116-2.81c.599 0 1.085-.556 1.085-1.237 0-.68-.486-1.237-1.085-1.237l-.065.012.11.352c.406.027.728.404.728.872 0 .486-.345.882-.773.882-.283 0-.524-.186-.656-.45h-.348c.152.47.541.806 1.005.806zm-.662-1.67l.005.002.088-.133-.114-.375c-.147.14-.257.314-.321.506h.341zm-5.14-2.75c-1.535 0-2.785 1.427-2.785 3.182s1.25 3.181 2.786 3.181c1.405 0 2.56-1.2 2.746-2.748H5.786a.494.494 0 0 1-.378.194c-.304 0-.55-.282-.55-.627 0-.343.247-.625.55-.625l.068.016 1.481-2.118a2.484 2.484 0 0 0-1.42-.455zm.787 2.75h1.96a3.391 3.391 0 0 0-.741-1.745l-1.22 1.745zm3.13-4.478l-1.437 2.056c.586.679.944 1.528 1.024 2.422h.838c.088-.396.312-.745.63-.993L9.453 9.04zm6.296-.185h-5.687l1.064 3.404.211-.042c.386.006.752.17 1.014.454l.04-.09 3.5-3.405-.143-.322zm2.705 1.913c-.32 0-.625.075-.912.191l1.076 2.402c.24.096.394.331.387.589 0 .345-.246.627-.549.627-.302 0-.549-.282-.549-.627l.035-.196-1.078-2.408c-.72.575-1.194 1.525-1.194 2.604 0 1.755 1.249 3.181 2.784 3.181 1.537 0 2.784-1.426 2.784-3.181 0-1.755-1.247-3.181-2.784-3.181z"/>
    </g>
</svg>
