<svg xmlns="http://www.w3.org/2000/svg" width="25" height="25" viewBox="0 0 25 25">
    <g fill="none" fill-rule="nonzero">
        <path fill="#32AE23" d="M12.132.368c6.498 0 11.765 5.267 11.765 11.764 0 6.498-5.267 11.765-11.765 11.765C5.635 23.897.368 18.63.368 12.132.368 5.635 5.635.368 12.132.368z"/>
        <path fill="#FFF" d="M17.825 8.463l-6.49-4.02a.774.774 0 0 0-.48-.15c-.152.003-.3.038-.436.104a.89.89 0 0 0-.506.77l.003 10.95c-2.08.189-3.92.8-3.92 1.892 0 1.347 2.795 1.962 5.392 1.962 2.597 0 5.393-.615 5.393-1.962s-2.796-1.96-5.393-1.96l-.492.007v-2.053l.01.009s5.665-3.327 6.915-4.041a.806.806 0 0 0 .442-.728.897.897 0 0 0-.438-.78zm-2.022 9.54c-.077.272-1.547.988-4.412.988-2.867 0-4.338-.716-4.413-.972.075-.273 1.544-.988 4.413-.988 2.868 0 4.337.715 4.412.972zm-4.896-5.306l-.011.009-.003-7.384L17.2 9.2c-1.267.73-5.225 2.908-6.294 3.498z"/>
    </g>
</svg>
