<svg xmlns="http://www.w3.org/2000/svg" width="24" height="24" viewBox="0 0 24 24">
    <g fill="none" fill-rule="nonzero">
        <path fill="#015FD4" d="M12 0c6.627 0 12 5.373 12 12s-5.373 12-12 12S0 18.627 0 12 5.373 0 12 0z"/>
        <path fill="#FFF" stroke="#FFF" stroke-width=".25" d="M19.722 5.846a9.72 9.72 0 0 0-4.28-3.097 9.715 9.715 0 0 0-6.865 0 9.891 9.891 0 0 0-4.278 3.097 9.66 9.66 0 0 0-2.172 6.148v.373c.083 1.809.651 3.56 1.646 5.073a9.87 9.87 0 0 0 5.57 4.04c.861.26 1.755.395 2.654.396a10.44 10.44 0 0 0 2.678-.372 9.852 9.852 0 0 0 7.194-9.114v-.396a9.736 9.736 0 0 0-2.147-6.148zm-.066 10.957h-3.642l-1.143-1.559 1.357-4.217 1.821-.593 2.939 2.13a8.709 8.709 0 0 1-1.332 4.239zm-11.67 0h-3.64a9.018 9.018 0 0 1-1.363-4.238l2.94-2.13 1.822.593 1.359 4.216-1.118 1.559zm-3.51-9.816l.9 2.811-2.412 1.758a8.916 8.916 0 0 1 1.512-4.569zm5.397 7.926l-1.317-4.038L12 8.371l3.421 2.504c-.769 2.33-1.117 3.47-1.294 4.04l-4.254-.002zm8.752-5.094l.899-2.811a8.912 8.912 0 0 1 1.492 4.569l-2.39-1.758zm.306-3.644l-1.119 3.47-1.818.594-3.575-2.592V5.734l2.938-2.13a9.057 9.057 0 0 1 3.575 2.572zm-4.539-2.899L12 5.012 9.609 3.276a8.842 8.842 0 0 1 4.784 0zm-5.747.329l2.94 2.13v1.91l-3.577 2.593-1.82-.593-1.12-3.47a9.063 9.063 0 0 1 3.577-2.57zM4.938 17.639h2.961l.923 2.812a8.901 8.901 0 0 1-3.884-2.813zm4.846 3.117l-1.119-3.47 1.14-1.559h4.409l1.143 1.559-1.12 3.47c-1.49.373-2.962.395-4.453 0zm5.42-.306l.9-2.811h2.963a8.99 8.99 0 0 1-3.863 2.81z"/>
    </g>
</svg>
