<svg xmlns="http://www.w3.org/2000/svg" width="24" height="24" viewBox="0 0 24 24">
    <g fill="none" fill-rule="nonzero">
        <path fill="#85B8D5" d="M12 0c6.627 0 12 5.373 12 12s-5.373 12-12 12S0 18.627 0 12 5.373 0 12 0z"/>
        <path fill="#FFF" d="M12.006 17.998c-4.815 0-9.996-1.081-9.996-3.457l-.012-4.588c.197-1.806 5.742-2.954 10.035-2.954 4.161 0 8.595.81 9.719 2.564 0 0 .25.287.25.638v4.34c0 2.376-5.181 3.457-9.996 3.457zm-8.604-5.583v2.126c0 .615 2.926 2.053 8.604 2.053 5.676 0 8.602-1.438 8.602-2.053V12.44c-.53.253-1.081.462-1.646.625-1.871.555-4.332.858-6.93.858-2.615 0-5.085-.305-6.956-.858a9.99 9.99 0 0 1-1.674-.65zm8.63-4.012c-5.673 0-8.598 1.438-8.598 2.053 0 .614 2.925 2.054 8.598 2.054 5.672 0 8.596-1.438 8.596-2.053.002-.616-2.922-2.054-8.597-2.054z"/>
    </g>
</svg>
