<svg xmlns="http://www.w3.org/2000/svg" width="24" height="24" viewBox="0 0 24 24">
    <g fill="none" fill-rule="nonzero">
        <path fill="#00A8EE" d="M12 0c6.627 0 12 5.373 12 12s-5.373 12-12 12S0 18.627 0 12 5.373 0 12 0z"/>
        <path fill="#FFF" d="M15.948 3.28a3.258 3.258 0 0 0-4.253 1.769l-.042.111a3.478 3.478 0 0 0 .056 2.548.762.762 0 0 0-.327.389l-.186.497a.802.802 0 0 0 .383.994l-1.892 5.904a.621.621 0 0 0 .197.706l-.032.07-.29.77a.795.795 0 0 0 .145.8l.004-.005.35.22c-.233.488-.79 1.485-1.623 1.858l-.002.002c-.462.2-.936.196-1.452-.012a1.692 1.692 0 0 1-.972-.947c-.511-1.239.203-3.088.282-3.284.051-.094 1.262-2.351.7-3.927-.204-.571-.614-.976-1.255-1.237-.615-.25-1.199-.232-1.741.053-1.192.63-1.78 2.392-1.976 3.124l-.042.156.156-.033.642-.144.052-.014.017-.05c.22-.698.712-1.93 1.509-2.351.338-.18.711-.186 1.112-.024.4.162.668.432.8.802.425 1.188-.545 3.082-.661 3.302-.04.093-.965 2.292-.296 3.915.266.642.737 1.102 1.404 1.377.704.284 1.382.288 2.021.009l.022-.009c1.18-.531 1.855-1.893 2.074-2.4l.082.024.26.044a.762.762 0 0 0 .406-.432l.288-.77.024-.073c.257.022.5-.125.599-.364l2.469-5.688a.75.75 0 0 0 .93-.46l.187-.495a.771.771 0 0 0 .028-.447l.026-.01a3.302 3.302 0 0 0 1.752-1.854 3.418 3.418 0 0 0-.076-2.596 3.441 3.441 0 0 0-1.859-1.817zm1.162 2.122a2.65 2.65 0 0 1 .059 2.003 2.54 2.54 0 0 1-1.644 1.538l-2.961-1.204a2.7 2.7 0 0 1-.206-2.291 2.518 2.518 0 0 1 3.237-1.482l.085.033c.64.26 1.15.757 1.43 1.403zm-1.747 4.317l-.202.502-2.166-.882-1.091-.457.2-.505 3.25 1.323.009.019zm-1.119.957L11.848 16.2l-1.402-.571 1.842-5.75 1.956.796zm-3.087 6.121l-.307.779-.285-.116-.293-.134.307-.778.569.231.009.018z"/>
    </g>
</svg>
