<svg xmlns="http://www.w3.org/2000/svg" width="24" height="24" viewBox="0 0 24 24">
    <g fill="none" fill-rule="nonzero">
        <path fill="#393939" d="M12 0c6.627 0 12 5.373 12 12s-5.373 12-12 12S0 18.627 0 12 5.373 0 12 0z"/>
        <path fill="#FFF" d="M19.994 11.537h-5.74l5.333-2.203.006-.001-.029-.063-.328-.742-5.338 2.203 4.08-4.075-.643-.641-4.054 4.076 2.204-5.322.003-.011-.197-.078-.614-.244-.019-.011v.003l-2.208 5.33V4h-.9v5.758l-2.2-5.322-.005-.01-.091.038-.716.317 2.207 5.332L6.668 6.02l-.003-.004-.64.64.003.003 4.076 4.073-5.313-2.205-.332.83 5.338 2.203h-5.79v.9H9.77l-5.333 2.202-.004.003.026.066.19.474.115.29.014-.006 5.323-2.222-4.078 4.075.64.642 4.08-4.077-2.212 5.33c.262.124.531.235.804.331l.009-.02 2.229-5.309v5.759h.902v-5.759l2.206 5.33c.279-.1.553-.212.82-.341l-2.218-5.346 4.079 4.075.64-.639-4.103-4.054 5.339 2.205.333-.83-5.338-2.204h5.763v-.897h-.003zM12 13.765a1.775 1.775 0 0 1-1.778-1.778A1.79 1.79 0 0 1 12 10.211c.98.006 1.772.798 1.779 1.777A1.79 1.79 0 0 1 12 13.766zm0-2.683a.902.902 0 1 0 .003 1.804.902.902 0 0 0-.003-1.804zm0-9.733C6.12 1.356 1.356 6.12 1.35 12c0 5.872 4.777 10.651 10.65 10.651 5.874 0 10.651-4.779 10.651-10.651 0-5.874-4.779-10.65-10.651-10.65zm0 20A9.36 9.36 0 0 1 2.65 12 9.36 9.36 0 0 1 12 2.649c5.157 0 9.35 4.194 9.35 9.351 0 5.157-4.193 9.35-9.35 9.35z"/>
    </g>
</svg>
