<svg xmlns="http://www.w3.org/2000/svg" width="25" height="25" viewBox="0 0 25 25">
    <g fill="none" fill-rule="evenodd">
        <path fill="#393A39" d="M0 12.5C0 5.597 5.596 0 12.5 0S25 5.597 25 12.5 19.404 25 12.5 25 0 19.403 0 12.5"/>
        <path fill="#FEFEFE" d="M13.295 21.9v-7.296a2.247 2.247 0 0 0 1.446-1.966l6.883-2.518c.2.763.316 1.557.316 2.38 0 4.937-3.81 8.993-8.645 9.4M3.06 12.5c0-.846.122-1.662.332-2.442l6.861 2.539c.04.92.63 1.695 1.452 2.007v7.295c-4.834-.406-8.645-4.462-8.645-9.398m8.774 0a.666.666 0 1 1 0 0m.666-9.44c3.821 0 7.112 2.286 8.596 5.56l-6.827 2.497a2.24 2.24 0 0 0-1.769-.874 2.24 2.24 0 0 0-1.744.843L3.932 8.562C5.429 5.32 8.7 3.06 12.5 3.06m0-1.06C6.71 2 2 6.71 2 12.5S6.71 23 12.5 23 23 18.29 23 12.5 18.29 2 12.5 2"/>
    </g>
</svg>
