<svg xmlns="http://www.w3.org/2000/svg" width="24" height="24" viewBox="0 0 24 24">
    <g fill="none" fill-rule="nonzero">
        <path fill="#7E4E29" d="M12 0c6.627 0 12 5.373 12 12s-5.373 12-12 12S0 18.627 0 12 5.373 0 12 0z"/>
        <path fill="#FFF" d="M19.015 5.03c-.646-.658-1.776-1.02-3.184-1.02-.586 0-1.206.063-1.84.187-2.416.49-4.63 1.69-6.359 3.447-1.74 1.768-2.955 4.05-3.42 6.423-.438 2.227-.122 4.146.848 5.128.489.498 1.624.796 3.038.796 2.411 0 5.87-.896 8.344-3.407 3.849-3.913 4.31-9.79 2.573-11.555zm-.301 4.869a11.497 11.497 0 0 1-3.067 5.884c-2.819 2.864-6.492 3.09-7.547 3.09l-.5-.024c.02-.873.407-1.851.407-1.851s6.25-6.063 8-8c.949-1.051 2.044-1.256 2.85-1.223a8.747 8.747 0 0 1-.143 2.123zM5.313 14.282c.421-2.155 1.529-4.229 3.117-5.843a11.221 11.221 0 0 1 5.775-3.132 8.679 8.679 0 0 1 1.632-.165l.241.013c-.212 1.286-1.073 2.841-1.073 2.841s-7.001 7.376-8 8c-.498.312-1.236.31-1.859.232a8.54 8.54 0 0 1 .167-1.947z"/>
    </g>
</svg>
