<svg xmlns="http://www.w3.org/2000/svg" width="24" height="24" viewBox="0 0 24 24">
    <g fill="none" fill-rule="nonzero">
        <path fill="#0076B5" d="M12 0c6.627 0 12 5.373 12 12s-5.373 12-12 12S0 18.627 0 12 5.373 0 12 0z"/>
        <path fill="#FFF" d="M15.866 20l-3.551-.012-4.233-.014-.294.002c-.519.004-.862.006-1.237-.185l-.043-.024a3.132 3.132 0 0 1-.788-.691l-.356-.427c-.478-.617-.357-1.073-.243-1.29.115-.22.429-.59 1.23-.59h11.645c.248 0 .834 0 .979.47.144.461-.317.767-.563.921l-2.182 1.712-.146.081-.218.047zm-7.784-1.035l4.236.013 3.375.012 1.537-1.206H6.35l-.272.036.121.216.349.417.013.017c.115.15.29.303.504.44.129.059.286.062.714.056l.303-.002zm.922-2.571l-.136-.018a.506.506 0 0 1-.378-.607l.002-.008c.82-3.038.815-6.34-.013-12.186a.5.5 0 0 1 .218-.48.545.545 0 0 1 .545-.04c.251.123 6.161 3.089 7.104 12.308a.498.498 0 0 1-.22.46.555.555 0 0 1-.528.047c-1.591-.7-4.52-.646-5.715-.111-.277.123-.361.232-.37.262a.53.53 0 0 1-.508.373zm.674-11.847c.594 4.54.639 7.522.14 10.15 1.333-.429 3.639-.505 5.379-.037-.84-5.953-3.95-8.953-5.519-10.114z"/>
    </g>
</svg>
