<svg xmlns="http://www.w3.org/2000/svg" width="24" height="24" viewBox="0 0 24 24">
    <g fill="none" fill-rule="nonzero">
        <path fill="#000" d="M12 0c6.627 0 12 5.373 12 12s-5.373 12-12 12S0 18.627 0 12 5.373 0 12 0z"/>
        <path fill="#FFF" d="M20.403 5.499a10.534 10.534 0 0 0-7.059-4.038c-.45-.059-.904-.088-1.357-.087-5.327 0-9.851 3.99-10.526 9.28a10.548 10.548 0 0 0 2.135 7.847 10.548 10.548 0 0 0 7.057 4.037c.451.06.909.088 1.36.088 5.322 0 9.848-3.989 10.525-9.28a10.534 10.534 0 0 0-2.135-7.847zm.896 7.686c-.598 4.67-4.59 8.189-9.284 8.189-.402 0-.804-.025-1.203-.077a9.315 9.315 0 0 1-6.228-3.563 9.307 9.307 0 0 1-1.882-6.922 9.382 9.382 0 0 1 10.486-8.11 9.315 9.315 0 0 1 6.228 3.562 9.3 9.3 0 0 1 1.883 6.921zm-11.056-2.918c.317-.026.5-.27.471-.58-.028-.307-.25-.498-.566-.471-.317.026-.5.26-.476.564.031.312.25.518.571.488zm-.06-4.052l-.114.01a4.976 4.976 0 0 0 1.02 9.897 4.973 4.973 0 0 0 4.5-5.405v-.007a4.971 4.971 0 0 0-5.405-4.496zm.37 7.444c-1.159.105-2.014-.528-2.099-1.473-.062-.675.309-1.176.867-1.47a1.07 1.07 0 0 1-.637-.903c-.06-.665.451-1.347 1.389-1.427.932-.086 1.56.487 1.622 1.151.045.398-.138.787-.472 1.006.609.188 1.063.616 1.128 1.288.084.943-.642 1.723-1.799 1.828zm-.239-2.612c-.563.051-.885.45-.838.948.046.502.434.853.997.797.558-.048.88-.465.835-.961-.044-.498-.436-.832-.994-.784z"/>
    </g>
</svg>
