<svg xmlns="http://www.w3.org/2000/svg" width="24" height="24" viewBox="0 0 24 24">
    <g fill="none" fill-rule="nonzero">
        <path fill="#E56E00" d="M12 0c6.627 0 12 5.373 12 12s-5.373 12-12 12S0 18.627 0 12 5.373 0 12 0z"/>
        <path fill="#FFF" d="M12 21.93c-.776 0-1.55-.091-2.306-.271l-1.932-3.174 2.24-3.086h4.021l2.198 3.051-1.854 3.195A9.99 9.99 0 0 1 12 21.93zm2.703-7.057l1.242-3.824 3.579-1.146 2.415 2.7a9.978 9.978 0 0 1-1.409 4.506l-3.586.85-2.241-3.086zm-11.204 2.29a10.005 10.005 0 0 1-1.44-4.529l2.354-2.743 3.627 1.178 1.24 3.824-2.22 3.035-3.56-.765zm1.238-8.087l-.36-3.517a10.025 10.025 0 0 1 3.92-2.843l3.258 1.361-.015 3.828-3.233 2.347-3.57-1.176zm7.68-1.186V4.116l3.223-1.423c1.518.6 2.866 1.561 3.926 2.802l-.288 3.567-3.625 1.177-3.236-2.349z"/>
    </g>
</svg>
