<svg xmlns="http://www.w3.org/2000/svg" xmlns:xlink="http://www.w3.org/1999/xlink" width="24" height="24" viewBox="0 0 24 24">
    <defs>
        <path id="a" d="M12 .48C18.362.48 23.52 5.638 23.52 12c0 6.362-5.158 11.52-11.52 11.52C5.638 23.52.48 18.362.48 12 .48 5.638 5.638.48 12 .48zm0 21.12c.77 0 1.536-.09 2.284-.27l1.792-3.03-2.122-2.892H10.07l-2.163 2.925 1.866 3.01c.729.17 1.476.257 2.226.257zm2.611-6.692l2.163 2.927 3.464-.806a9.323 9.323 0 0 0 1.362-4.272l-2.332-2.56-3.457 1.086-1.2 3.625zM3.791 17.08l3.438.726 2.144-2.878-1.198-3.626-3.503-1.117L2.4 12.786a9.347 9.347 0 0 0 1.39 4.294zm1.195-7.667l3.448 1.114L11.556 8.3l.014-3.63-3.146-1.29a9.69 9.69 0 0 0-3.786 2.697l.348 3.335zm7.417-1.125l3.125 2.227L19.03 9.4l.278-3.382a9.658 9.658 0 0 0-3.791-2.657l-3.114 1.35v3.578z"/>
    </defs>
    <g fill="none" fill-rule="evenodd">
        <path fill="#FFF" fill-rule="nonzero" d="M12 0c6.627 0 12 5.373 12 12s-5.373 12-12 12S0 18.627 0 12 5.373 0 12 0z"/>
        <mask id="b" fill="#fff">
            <use xlink:href="#a"/>
        </mask>
        <use fill="#000" fill-rule="nonzero" xlink:href="#a"/>
        <g fill="#111" mask="url(#b)">
            <path d="M0 0h24v24H0z"/>
        </g>
    </g>
</svg>
