<svg xmlns="http://www.w3.org/2000/svg" width="24" height="24" viewBox="0 0 24 24">
    <g fill="none" fill-rule="nonzero">
        <path fill="#3232CB" d="M12 0c6.627 0 12 5.373 12 12s-5.373 12-12 12S0 18.627 0 12 5.373 0 12 0z"/>
        <path fill="#FFF" d="M13.108 3.728a7.364 7.364 0 0 0-5.19 2.159C6.276 7.527 5.7 9.57 6.162 12.146l.164.788c.244 1.172-.006 2.298-.651 2.946l-1.65 1.646a.562.562 0 0 0 0 .8l1.837 1.851c.24.154.541.123.73-.073l1.649-1.643c.475-.473 1.205-.733 2.058-.733.294 0 .597.03.882.092l.802.17c2.556.473 4.59-.091 6.234-1.734a7.31 7.31 0 0 0 2.176-5.193 7.265 7.265 0 0 0-2.115-5.19 7.222 7.222 0 0 0-5.169-2.145zM12.04 16.843l-4.727-4.737-.036-.177c-.389-2.167.083-3.882 1.444-5.24a6.232 6.232 0 0 1 4.388-1.826 6.15 6.15 0 0 1 4.365 1.81 6.168 6.168 0 0 1 1.786 4.383 6.19 6.19 0 0 1-1.845 4.395c-1.363 1.364-3.076 1.82-5.211 1.427l-.164-.035zm-3.926.314a3.301 3.301 0 0 0-.67.498l-1.248 1.247-.968-.974 1.249-1.247.224-.29 1.94-1.742.888.89-1.415 1.618zm-.583-3.621l.634.637-.743.65c.092-.414.128-.847.11-1.287zm3.067 3.073c-.4-.02-.8.012-1.193.092l.6-.686.593.594z"/>
    </g>
</svg>
