<svg xmlns="http://www.w3.org/2000/svg" width="24" height="24" viewBox="0 0 24 24">
    <g fill="none" fill-rule="nonzero">
        <path fill="#C70006" d="M12 0c6.627 0 12 5.373 12 12s-5.373 12-12 12S0 18.627 0 12 5.373 0 12 0z"/>
        <path fill="#FFF" d="M22 4.766l-2.893 2.897-1.491-.223-1.038 1.038-1.22 1.221-1.091 1.094-1.39 1.389a1.672 1.672 0 1 1-2.573-.837c.433-.315.99-.403 1.5-.239l1.386-1.389 1.093-1.094 1.22-1.22 1.057-1.06-.217-1.446 2.893-2.896-.236 3 3-.236zm-5.908 6.354a5.064 5.064 0 0 1-4.8 6.642 5.064 5.064 0 0 1 0-10.126c.55 0 1.082.089 1.576.252l-1.28 1.283a3.543 3.543 0 0 0-3.821 3.242l-.012.283a3.538 3.538 0 0 0 3.535 3.54 3.54 3.54 0 0 0 3.535-3.549l-.014-.287 1.281-1.28zm-4.803-5.2a6.78 6.78 0 0 0 0 13.557 6.78 6.78 0 0 0 6.117-9.673l1.128-1.13a8.248 8.248 0 0 1 1.043 4.024c0 4.578-3.719 8.3-8.288 8.3-4.57 0-8.289-3.723-8.289-8.3 0-4.575 3.718-8.3 8.289-8.3a8.23 8.23 0 0 1 4.02 1.044l-1.13 1.13a6.729 6.729 0 0 0-2.89-.652z"/>
    </g>
</svg>
