<svg xmlns="http://www.w3.org/2000/svg" width="24" height="24" viewBox="0 0 24 24">
    <g fill="none" fill-rule="nonzero">
        <path fill="#FFBF00" d="M12 0c6.627 0 12 5.373 12 12s-5.373 12-12 12S0 18.627 0 12 5.373 0 12 0z"/>
        <path fill="#FFF" d="M16.812 20.72a9.946 9.946 0 0 1-4.99 1.348 10.02 10.02 0 0 1-8.669-5.033 10.056 10.056 0 0 1-1-7.643 10.01 10.01 0 0 1 9.65-7.464c3.582.009 6.887 1.93 8.669 5.037 2.758 4.806 1.116 10.977-3.66 13.755zM14.77 3.733a7.428 7.428 0 0 0 .506 6.25 7.34 7.34 0 0 0 5.136 3.569 8.822 8.822 0 0 0-1.024-5.957 8.787 8.787 0 0 0-4.618-3.863zM4.238 16.4a8.775 8.775 0 0 0 4.617 3.863 7.431 7.431 0 0 0-.502-6.252A7.365 7.365 0 0 0 3.21 10.44a8.795 8.795 0 0 0 1.027 5.961zm7.566-13.209A8.679 8.679 0 0 0 7.44 4.374C5.543 5.477 4.18 7.229 3.514 9.315a8.454 8.454 0 0 1 5.841 4.113 8.538 8.538 0 0 1 .608 7.156c.605.134 1.224.221 1.856.221a8.733 8.733 0 0 0 8.305-6.124 8.46 8.46 0 0 1-5.857-4.112 8.568 8.568 0 0 1-.608-7.158 8.772 8.772 0 0 0-1.856-.219z"/>
    </g>
</svg>
