<svg xmlns="http://www.w3.org/2000/svg" width="25" height="25" viewBox="0 0 25 25">
    <g fill="none" fill-rule="nonzero">
        <path fill="#008BFF" d="M11.875.11c6.497 0 11.765 5.268 11.765 11.765 0 6.497-5.268 11.765-11.765 11.765C5.378 23.64.11 18.372.11 11.875.11 5.378 5.378.11 11.875.11z"/>
        <path fill="#FFF" d="M20.98 8.253l-.021-.054a9.774 9.774 0 0 0-9.091-6.128 9.8 9.8 0 0 0-4.077.894l-.042.022a9.885 9.885 0 0 0-3.723 3.022 9.794 9.794 0 0 0-1.954 5.866c0 3.07 1.468 6 3.91 7.826l.112.086a9.691 9.691 0 0 0 5.77 1.891h.01a9.777 9.777 0 0 0 9.751-8.804 9.709 9.709 0 0 0-.646-4.621zm-12.295 8.36a12.477 12.477 0 0 1-2.295 2.022 8.649 8.649 0 0 1-3.228-6.76c0-1.366.323-2.716.94-3.93a15.77 15.77 0 0 0 4.583 8.668zm4.99-10.369h-.04c-1.476 0-2.942.206-4.361.613a12.313 12.313 0 0 1-.687-3.048 8.615 8.615 0 0 1 3.288-.644 8.724 8.724 0 0 1 7.397 4.119 15.482 15.482 0 0 0-5.597-1.04zm-8.653.263a8.672 8.672 0 0 1 2.52-2.186 13.515 13.515 0 0 0 3.715 7.704 12.332 12.332 0 0 1-1.88 3.738 14.587 14.587 0 0 1-4.355-9.256zm7.285 5.827a12.52 12.52 0 0 1 2.918-.352c.332 0 .68.017 1.065.05a14.574 14.574 0 0 1-5.86 8.433 8.546 8.546 0 0 1-3.089-1.16 13.547 13.547 0 0 0 4.966-6.971zm2.92-1.443c-1.06 0-2.127.128-3.176.383a12.332 12.332 0 0 1-2.357-3.402 14.73 14.73 0 0 1 10.328.924c.377.988.565 2.023.565 3.08l-.002.127a13.138 13.138 0 0 0-3.484-.975l-.044-.009a13.412 13.412 0 0 0-1.83-.128zm2.15 1.28a12.18 12.18 0 0 1 3.11.986 8.738 8.738 0 0 1-8.406 7.425 15.703 15.703 0 0 0 5.295-8.411z"/>
    </g>
</svg>
