<svg xmlns="http://www.w3.org/2000/svg" width="24" height="24" viewBox="0 0 24 24">
    <g fill="none" fill-rule="nonzero">
        <path fill="#86A4B5" d="M12 0c6.627 0 12 5.373 12 12s-5.373 12-12 12S0 18.627 0 12 5.373 0 12 0z"/>
        <path fill="#FFF" d="M21.47 11.56h-2.706l1.234-2.19c.142-.242.046-.534-.189-.68-.239-.146-.522-.048-.665.193l-1.471 2.678h-4.888l2.419-4.38h3.085c.285 0 .474-.196.474-.488s-.187-.486-.474-.486h-2.515l1.33-2.434c.143-.245.047-.536-.19-.683-.239-.145-.524-.048-.665.195L14.922 5.67 13.64 3.528c-.145-.243-.428-.292-.665-.146-.144.098-.19.196-.239.342-.046.146 0 .243.048.389l1.566 2.63-2.374 4.332-2.373-4.332 1.568-2.63a.533.533 0 0 0-.144-.681.501.501 0 0 0-.663.146L9.082 5.72l-1.33-2.433c-.143-.244-.428-.341-.664-.196-.237.146-.332.438-.19.681l1.33 2.435H5.806c-.284 0-.475.194-.475.486 0 .293.19.488.474.488h2.991l2.42 4.38H6.282L4.809 8.883c-.143-.243-.428-.292-.665-.195-.236.147-.284.438-.189.681l1.235 2.19H2.484c-.284 0-.474.195-.474.488 0 .292.19.487.474.487H5.19l-1.235 2.19c-.142.242-.046.533.19.681l.237.048a.556.556 0 0 0 .427-.244l1.471-2.676h4.889l-2.421 4.38H5.807c-.284 0-.475.195-.475.485 0 .293.19.488.474.488h2.421l-1.329 2.385c-.142.241-.047.534.19.681l.236.048a.495.495 0 0 0 .428-.243l1.329-2.433 1.281 2.142c.09.151.252.244.428.243l.237-.05c.237-.146.285-.436.144-.68l-1.568-2.627 2.373-4.335 2.374 4.335-1.566 2.627a.536.536 0 0 0 .144.68l.237.05a.569.569 0 0 0 .427-.243l1.28-2.192 1.331 2.435c.088.15.252.244.426.243l.237-.05c.237-.145.333-.436.189-.679l-1.329-2.386h2.42c.284 0 .475-.195.475-.485 0-.293-.189-.488-.476-.488h-2.941l-2.421-4.38h4.89l1.473 2.678c.087.151.25.244.424.243l.239-.048c.235-.147.282-.438.189-.682l-1.19-2.19h2.708c.284 0 .474-.194.474-.488.002-.291-.235-.437-.52-.437z"/>
    </g>
</svg>
