<svg xmlns="http://www.w3.org/2000/svg" xmlns:xlink="http://www.w3.org/1999/xlink" width="41" height="41" viewBox="0 0 41 41">
  <defs>
    <linearGradient id="linear-gradient" x1="-0.019" y1="1" x2="1.005" y2="0.014" gradientUnits="objectBoundingBox">
      <stop offset="0" stop-color="#EA3E0F"/>
      <stop offset="1" stop-color="#FE7102"/>
    </linearGradient>
    <linearGradient id="linear-gradient-2" x1="0" y1="0.5" x2="1" y2="0.5" xlink:href="#linear-gradient"/>
    <linearGradient id="linear-gradient-4" x1="-0.03" y1="0.5" x2="3.117" y2="0.5" xlink:href="#linear-gradient"/>
    <linearGradient id="linear-gradient-5" x1="-1.123" y1="0.5" x2="2.025" y2="0.5" xlink:href="#linear-gradient"/>
    <linearGradient id="linear-gradient-6" x1="-2.215" y1="0.5" x2="0.932" y2="0.5" xlink:href="#linear-gradient"/>
  </defs>
  <g id="Group_1556" data-name="Group 1556" transform="translate(-192.676 -722.988)">
    <path id="Path_4572" data-name="Path 4572" d="M226.356,752.33a4.821,4.821,0,0,1-4.636,3.957H196.158a3.351,3.351,0,0,1-3.437-3.957l3.846-25.386a4.82,4.82,0,0,1,4.636-3.957h25.563a3.351,3.351,0,0,1,3.437,3.957Z" transform="translate(0 0)" fill="url(#linear-gradient)"/>
    
    
    
    
    
    
    
    
    <path id="Path_4601" data-name="Path 4601" d="M248.175,734.486a15.929,15.929,0,0,0-2.377-1.037c-.709-.219-1.633-.364-2.356-.532,2.286.591,4.808,2.78,9.016,7.094,2.385,2.443,2.968,3,3.22,2.826.03-.188,0-.282-.211-.774-.034-.05-1.365-3.94-7.174-7.514l-.118-.063m-12.707-1.276c.745-.19,1.75-.411,2.507-.544,2.778-.107,6.05,2.544,12.333,8.524,1.549,1.475,4.349,4.138,5.579,4.426l.046.009a.443.443,0,0,0,.444-.1.114.114,0,0,0,.018-.018c.006-.007.011-.015.018-.023a.888.888,0,0,0,.108-.638c.139.491.265.983.359,1.477.211,1.287.857,5.206-3.972,1.663-4.892-3.588-8.749-8.381-13.778-11.808-3.659-2.494-5.138-2.274-6.226-1.817l.106-.158A16.084,16.084,0,0,1,235.468,733.209Z" transform="translate(-32.106 -7.721)"/>
    <path id="Path_4602" data-name="Path 4602" d="M235.7,770.494l0,0c-2.075,1.23-6.8-2.776-11.577-7.138-9.248-8.449-13.792-10.968-16.2-8.98l-.471,3.107c2.532.462,6.558,3.6,12.2,8.573,8.735,7.709,13.532,11.006,15.508,7.632.255-.554.557-1.311.78-1.881a13.594,13.594,0,0,0,.578-2.151A2.1,2.1,0,0,1,235.7,770.494Z" transform="translate(-11.788 -24.534)"/>
    <path id="Path_4603" data-name="Path 4603" d="M221.8,812.605s0-.007,0-.01c-3.7,1.843-11.939-5.711-16.02-9.454-3.73-3.422-6.616-5.824-8.646-6.787l-.689,4.546a37.935,37.935,0,0,1,5.268,4.354c5.3,4.969,9.08,8.2,11.981,9.587h5.229c.43-.255.864-.523,1.225-.755a15.934,15.934,0,0,0,2.034-1.689C222.007,812.5,221.8,812.605,221.8,812.605Zm-26.013-7.351-.339,2.236a1.3,1.3,0,0,1,.269.119,17.294,17.294,0,0,1,2.658,2.441,63.5,63.5,0,0,0,5.2,4.789h3.533a78.48,78.48,0,0,1-6.685-5.711C198.1,806.979,196.729,805.721,195.783,805.255Z" transform="translate(-2.209 -58.553)"/>
    
    
  </g>
</svg>