<svg xmlns="http://www.w3.org/2000/svg" width="202" height="44" viewBox="0 0 202 44">
  <g id="Group_79" data-name="Group 79" transform="translate(-83 -182)">
    <g id="Rectangle_98" data-name="Rectangle 98" transform="translate(83 182)" fill="none" stroke="rgba(255,255,255,0.1)" stroke-width="1">
      <rect width="192" height="44" rx="5" stroke="none"/>
      <rect x="0.5" y="0.5" width="191" height="43" rx="4.5" fill="none"/>
    </g>
    <circle id="Ellipse_5" data-name="Ellipse 5" cx="11" cy="11" r="11" transform="translate(263 193)" fill="#65271a"/>
    <g id="Group_78" data-name="Group 78" transform="translate(-728.867 -63)">
      <g id="information_1_" data-name="information (1)" transform="translate(994.867 259)" opacity="0.6">
        <g id="Group_20" data-name="Group 20">
          <g id="Group_19" data-name="Group 19">
            <path id="Path_95" data-name="Path 95" d="M8,0a8,8,0,1,0,8,8A8,8,0,0,0,8,0ZM8,14.75A6.75,6.75,0,1,1,14.75,8,6.746,6.746,0,0,1,8,14.75Z" fill="#fff"/>
          </g>
        </g>
        <g id="Group_22" data-name="Group 22" transform="translate(7.375 6.698)">
          <g id="Group_21" data-name="Group 21">
            <path id="Path_96" data-name="Path 96" d="M236.625,214.33a.625.625,0,0,0-.625.625v4.025a.625.625,0,1,0,1.25,0v-4.025A.625.625,0,0,0,236.625,214.33Z" transform="translate(-236 -214.33)" fill="#fff"/>
          </g>
        </g>
        <g id="Group_24" data-name="Group 24" transform="translate(7.156 4.245)">
          <g id="Group_23" data-name="Group 23">
            <circle id="Ellipse_3" data-name="Ellipse 3" cx="0.844" cy="0.844" r="0.844" fill="#fff"/>
          </g>
        </g>
      </g>
    </g>
    <text id="_14:29_Martedì_9_Marzo_2021" data-name="14:29 Martedì, 9 Marzo 2021" transform="translate(94 201.5)" fill="#fff" font-size="12" font-family="Poppins-Medium, Poppins" font-weight="500"><tspan x="0" y="0">14:29 MARTEDÌ, 9 MARZO 2021</tspan></text>
    <text id="HELPDESK_0831_234567" data-name="HELPDESK 0831 234567" transform="translate(127 214.5)" fill="#fff" font-size="12" font-family="Poppins-SemiBold, Poppins" font-weight="600"><tspan x="0" y="0">HELPDESK 0831 234567</tspan></text>
  </g>
</svg>
