<svg xmlns="http://www.w3.org/2000/svg" width="576" height="28.524" viewBox="0 0 576 28.524">
  <g id="Group_82" data-name="Group 82" transform="translate(-34 -33)">
    <g id="Group_38" data-name="Group 38" transform="translate(-339.105 -892.958)" opacity="0.6">
      <g id="Group_1" data-name="Group 1" transform="translate(373.105 929.375)">
        <path id="Path_21" data-name="Path 21" d="M144.223-156.29v-.254h0v.254h-.254v-.254a12.8,12.8,0,0,0-3.766-9.087h0a12.822,12.822,0,0,0-9.093-3.763h0a12.821,12.821,0,0,0-9.092,3.763h0a12.806,12.806,0,0,0-3.766,9.087h0v.254h-3.523v-.254a16.376,16.376,0,0,1,16.381-16.372h0a16.376,16.376,0,0,1,16.382,16.372h0v.254Zm2.757-.509a15.807,15.807,0,0,0-4.647-10.962h0a15.826,15.826,0,0,0-11.224-4.646h0a15.824,15.824,0,0,0-11.223,4.646h0a15.8,15.8,0,0,0-4.647,10.962h2.5a13.363,13.363,0,0,1,13.366-13.1h0a13.363,13.363,0,0,1,13.366,13.1h2.5Z" transform="translate(-113.155 179.298)" fill="#fff"/>
        <path id="Path_22" data-name="Path 22" d="M138.258-175.059a.593.593,0,0,0-.795-.3L122.77-169.2a2.961,2.961,0,0,0-.528-.488l6.147-14.679a.592.592,0,0,0-.3-.793.594.594,0,0,0-.786.325l-6.521,14.573a3.2,3.2,0,0,0-.325-.015,2.92,2.92,0,0,0-.483.037l-6.522-14.6a.6.6,0,0,0-.786-.325.6.6,0,0,0-.3.793l6.191,14.766a2.915,2.915,0,0,0-.461.453l-14.8-6.211a.6.6,0,0,0-.8.3.6.6,0,0,0,.325.785l14.654,6.571a3.014,3.014,0,0,0-.032.437h6.027a3.046,3.046,0,0,0-.047-.5l14.513-6.505a.592.592,0,0,0,.323-.785" transform="translate(-102.446 190.016)" fill="#fff"/>
        <path id="Path_23" data-name="Path 23" d="M255.021-218.5h1.039l.13-1.9a6.309,6.309,0,0,0,0-.709h.012s.142.443.236.709l.443,1.222h.886l.443-1.222c.095-.266.236-.709.236-.709h.012a6.317,6.317,0,0,0,0,.709l.13,1.9h1.033l-.342-4.222h-1.122l-.614,1.783c-.094.272-.213.7-.213.7h-.012s-.118-.425-.213-.7l-.614-1.783h-1.122l-.348,4.222Z" transform="translate(-235.473 222.72)" fill="#fff"/>
        <path id="Path_24" data-name="Path 24" d="M195.514-218.5h1.063l-1.435-4.222h-1.086l-1.435,4.222h1.063l.254-.886h1.317l.26.886Zm-.909-3.259s.095.461.171.726l.236.821h-.833l.242-.821c.077-.266.171-.726.171-.726Zm2.149,3.259h1.5a1.992,1.992,0,0,0,2.179-2.12,1.979,1.979,0,0,0-2.179-2.1h-1.5v4.222Zm1.033-.886v-2.451h.425a1.081,1.081,0,0,1,1.151,1.216,1.084,1.084,0,0,1-1.151,1.234Z" transform="translate(-181.068 222.72)" fill="#fff"/>
      </g>
      <g id="Group_2" data-name="Group 2" transform="translate(420.59 926.751)">
        <path id="Path_25" data-name="Path 25" d="M192.6-236.022l.431,1.125,1.2.061-.936.758.314,1.162-1.009-.656-1.01.658.313-1.163-.938-.756,1.2-.063.43-1.126Z" transform="translate(-178.756 236.022)" fill="#fff"/>
        <path id="Path_26" data-name="Path 26" d="M239.122-221.962l-.193,1.19,1.01.656-1.19.185-.312,1.163-.544-1.074-1.2.062.854-.849-.431-1.125,1.071.549.938-.758Z" transform="translate(-218.344 223.848)" fill="#fff"/>
        <path id="Path_27" data-name="Path 27" d="M271.5-189.693l-.758.937.551,1.071-1.125-.431-.848.855.062-1.2-1.075-.544,1.163-.313.185-1.19.656,1.008,1.19-.192Z" transform="translate(-245.72 196.614)" fill="#fff"/>
        <path id="Path_28" data-name="Path 28" d="M285.755-143.807l-1.123.437-.054,1.2-.762-.933-1.161.321.65-1.013-.663-1.006,1.165.306.752-.941.069,1.2,1.128.425Z" transform="translate(-258.132 157.582)" fill="#fff"/>
        <path id="Path_29" data-name="Path 29" d="M271.493-97.306l-1.191-.185-.649,1.014-.193-1.189-1.165-.3,1.07-.551-.07-1.2.855.848,1.122-.438-.542,1.074.764.933Z" transform="translate(-245.71 118.003)" fill="#fff"/>
        <path id="Path_30" data-name="Path 30" d="M239.5-65.015l-.946-.746-1.064.564.416-1.13-.865-.838,1.2.047.531-1.082.327,1.158,1.192.171-1,.669.207,1.187Z" transform="translate(-218.644 90.708)" fill="#fff"/>
        <path id="Path_31" data-name="Path 31" d="M192.481-50.158l-.436-1.124-1.2-.054.933-.762-.32-1.161,1.013.651,1.007-.662-.308,1.164.941.753-1.2.067-.425,1.128Z" transform="translate(-178.645 77.78)" fill="#fff"/>
        <path id="Path_32" data-name="Path 32" d="M146.646-64.145l.177-1.192-1.018-.644,1.188-.2.3-1.168.558,1.067,1.2-.077-.843.859.445,1.119-1.078-.535-.928.769Z" transform="translate(-139.648 89.969)" fill="#fff"/>
        <path id="Path_33" data-name="Path 33" d="M114.424-96.225l.744-.948-.567-1.062,1.131.414.835-.868-.043,1.2,1.083.527-1.158.331-.167,1.192-.671-1-1.188.211Z" transform="translate(-112.476 117.109)" fill="#fff"/>
        <path id="Path_34" data-name="Path 34" d="M99.894-143.4l1.124-.436.054-1.2.762.933,1.161-.321-.65,1.013.662,1.006-1.164-.306-.752.941-.068-1.2-1.129-.425Z" transform="translate(-99.894 157.24)" fill="#fff"/>
        <path id="Path_35" data-name="Path 35" d="M113.5-189.586l1.192.183.647-1.015.195,1.189,1.166.3-1.069.553.072,1.2-.856-.847-1.121.441.541-1.075-.767-.932Z" transform="translate(-111.678 196.535)" fill="#fff"/>
        <path id="Path_36" data-name="Path 36" d="M146.183-222.263l.937.758,1.07-.551-.43,1.125.856.848-1.2-.061-.544,1.075-.313-1.163-1.19-.184,1.009-.657-.193-1.191Z" transform="translate(-139.268 224.108)" fill="#fff"/>
        <path id="Path_37" data-name="Path 37" d="M176.783-194.7c.9.344,1.545.6,2.315.839a8.634,8.634,0,0,0,2.558.385,8.643,8.643,0,0,0,2.578-.391,4.191,4.191,0,0,0,1.316-.7v0l1.331-1.025h-6.658l-2.02-6.538-2.027,6.538h-1.833c.825.271,1.636.576,2.441.884Z" transform="translate(-164.357 206.668)" fill="#fff"/>
        <path id="Path_38" data-name="Path 38" d="M144.193-150.2a37.009,37.009,0,0,1,4,1.344c.9.344,1.545.6,2.315.839a8.626,8.626,0,0,0,2.476.384l1.417-1.09a8.71,8.71,0,0,1-1.335.1,8.633,8.633,0,0,1-2.558-.385c-.77-.238-1.417-.5-2.315-.839a37.13,37.13,0,0,0-4-1.344,8.684,8.684,0,0,0-2.166-.274H142a4.377,4.377,0,0,0-.678.054l1.237.952a8.677,8.677,0,0,1,1.636.257Z" transform="translate(-135.764 162.804)" fill="#fff"/>
        <path id="Path_39" data-name="Path 39" d="M164.717-133.062c.634.22,1.26.457,1.883.695.9.344,1.545.6,2.315.839a8.635,8.635,0,0,0,2.558.385c.141,0,.28,0,.419-.012l-.3-.98-.12,0a8.644,8.644,0,0,1-2.558-.385c-.77-.238-1.417-.5-2.315-.839a37.1,37.1,0,0,0-4-1.344l-.021-.005,2.135,1.642Z" transform="translate(-154.175 148.293)" fill="#fff"/>
        <path id="Path_40" data-name="Path 40" d="M172.226-113.758a8.648,8.648,0,0,1-2.558-.385c-.77-.239-1.417-.5-2.315-.84-.712-.272-1.429-.542-2.156-.788l-1.745,5.735,5.321-4.068,5.312,4.068-1.143-3.752c-.236.019-.474.03-.715.03Z" transform="translate(-154.928 131.898)" fill="#fff"/>
        <path id="Path_41" data-name="Path 41" d="M359.513-185.2h1.108l-1.5-4.4h-1.133l-1.5,4.4h1.108l.264-.923h1.372l.271.923Zm-.948-3.4s.1.48.179.757l.246.855h-.868l.252-.855c.08-.277.178-.757.178-.757Zm2.981,1.188a2.155,2.155,0,0,0,2.16,2.283,1.823,1.823,0,0,0,1.157-.382h.012s-.006.092-.006.185v.123h.9v-2.486h-1.575v.917h.622v.338a1.506,1.506,0,0,1-.892.32,1.249,1.249,0,0,1-1.261-1.335,1.174,1.174,0,0,1,1.3-1.243,1.75,1.75,0,0,1,1.071.406l.517-.806a2.431,2.431,0,0,0-1.692-.585,2.228,2.228,0,0,0-2.308,2.265Zm5.788,2.209h2.843v-.923h-1.766v-.831h1.341v-.923h-1.341v-.8h1.68v-.923h-2.757v4.4Zm4.372,0h1.077v-2.049c0-.277-.049-.751-.049-.751h.012a7.854,7.854,0,0,0,.369.751l1.225,2.049h1.083v-4.4h-1.077v2.055c0,.277.049.751.049.751h-.012a7.836,7.836,0,0,0-.369-.751L372.8-189.6h-1.089v4.4Zm5.221,0h3.434v-.923h-1.736a2.89,2.89,0,0,0-.338.018v-.012a2.442,2.442,0,0,0,.338-.4l1.7-2.418v-.665h-3.323v.923h1.618a2.883,2.883,0,0,0,.339-.019v.012a2.432,2.432,0,0,0-.339.4l-1.7,2.406v.677Zm4.963,0h1.077v-4.4h-1.077v4.4Zm5.338,0h1.108l-1.5-4.4h-1.132l-1.5,4.4h1.108l.265-.923h1.372l.271.923Zm-.948-3.4s.1.48.178.757l.246.855h-.868l.252-.855c.08-.277.179-.757.179-.757Z" transform="translate(-322.084 195.889)" fill="#fff"/>
        <path id="Path_42" data-name="Path 42" d="M356.826-104.593h1.083l.135-1.981a6.481,6.481,0,0,0,0-.738h.013s.148.461.246.738l.461,1.274h.923l.462-1.274c.1-.277.246-.738.246-.738h.012a6.594,6.594,0,0,0,0,.738l.135,1.981h1.077l-.357-4.4h-1.169l-.64,1.859c-.1.283-.221.726-.221.726h-.013s-.123-.443-.222-.726l-.64-1.859h-1.169l-.363,4.4Zm5.067-2.228a2.252,2.252,0,0,0,2.3,2.3,2.252,2.252,0,0,0,2.3-2.3,2.225,2.225,0,0,0-2.3-2.246,2.225,2.225,0,0,0-2.3,2.246Zm1.114,0a1.21,1.21,0,0,1,1.187-1.262,1.21,1.21,0,0,1,1.188,1.262,1.241,1.241,0,0,1-1.188,1.317,1.241,1.241,0,0,1-1.187-1.317Zm3.9,2.228h1.077v-2.049c0-.277-.049-.751-.049-.751h.012a7.885,7.885,0,0,0,.369.751l1.225,2.049h1.083v-4.4h-1.077v2.056c0,.277.049.751.049.751h-.012a7.85,7.85,0,0,0-.369-.751l-1.218-2.056H366.9v4.4Zm4.126-2.228a2.252,2.252,0,0,0,2.3,2.3,2.252,2.252,0,0,0,2.3-2.3,2.225,2.225,0,0,0-2.3-2.246,2.225,2.225,0,0,0-2.3,2.246Zm1.114,0a1.21,1.21,0,0,1,1.188-1.262,1.21,1.21,0,0,1,1.188,1.262,1.241,1.241,0,0,1-1.188,1.317,1.241,1.241,0,0,1-1.188-1.317Zm3.9,2.228h1.077v-1.36h.75a1.419,1.419,0,0,0,1.434-1.526,1.408,1.408,0,0,0-1.434-1.514h-1.828v4.4Zm1.077-2.283v-1.194h.548a.522.522,0,0,1,.541.591.536.536,0,0,1-.56.6Zm2.2.055a2.252,2.252,0,0,0,2.3,2.3,2.252,2.252,0,0,0,2.3-2.3,2.225,2.225,0,0,0-2.3-2.246,2.225,2.225,0,0,0-2.3,2.246Zm1.114,0a1.21,1.21,0,0,1,1.187-1.262,1.21,1.21,0,0,1,1.188,1.262,1.241,1.241,0,0,1-1.188,1.317,1.241,1.241,0,0,1-1.187-1.317Zm3.9,2.228H387.2v-.923h-1.8v-3.477H384.33v4.4Zm3.141,0h1.077v-4.4h-1.077v4.4Z" transform="translate(-322.368 126.094)" fill="#fff"/>
        <path id="Path_43" data-name="Path 43" d="M356.887-144.993h1.563a2.076,2.076,0,0,0,2.271-2.209,2.062,2.062,0,0,0-2.271-2.191h-1.563v4.4Zm1.077-.923v-2.554h.443a1.127,1.127,0,0,1,1.2,1.268,1.13,1.13,0,0,1-1.2,1.286Zm4.356-1.3a2.252,2.252,0,0,0,2.3,2.3,2.252,2.252,0,0,0,2.3-2.3,2.225,2.225,0,0,0-2.3-2.246,2.226,2.226,0,0,0-2.3,2.246Zm1.114,0a1.21,1.21,0,0,1,1.188-1.262,1.21,1.21,0,0,1,1.188,1.262,1.241,1.241,0,0,1-1.187,1.317,1.241,1.241,0,0,1-1.188-1.317Zm5.07.018a2.155,2.155,0,0,0,2.16,2.283,1.824,1.824,0,0,0,1.157-.381h.012s-.006.092-.006.184v.123h.9v-2.486h-1.575v.917h.622v.338a1.506,1.506,0,0,1-.892.32,1.249,1.249,0,0,1-1.262-1.335,1.174,1.174,0,0,1,1.3-1.243,1.752,1.752,0,0,1,1.071.406l.517-.806a2.43,2.43,0,0,0-1.692-.585A2.227,2.227,0,0,0,368.5-147.2Zm8.651,2.209h1.108l-1.5-4.4h-1.132l-1.5,4.4h1.108l.265-.923h1.372l.271.923Zm-.948-3.4s.1.48.178.757l.246.855h-.868l.252-.855c.08-.277.178-.757.178-.757Zm3.692,3.4h1.077v-2.049c0-.277-.049-.751-.049-.751h.012a7.863,7.863,0,0,0,.369.751l1.224,2.049h1.083v-4.4h-1.077v2.055c0,.277.049.751.049.751h-.012a7.869,7.869,0,0,0-.369-.751l-1.218-2.055H379.9v4.4Zm5.895,0h2.843v-.923H386.87v-.831h1.342v-.923H386.87v-.8h1.68v-.923h-2.757v4.4Z" transform="translate(-322.42 161.075)" fill="#fff"/>
        <path id="Path_44" data-name="Path 44" d="M330.134-236.022V-208.4h.38v-27.622Z" transform="translate(-299.256 236.022)" fill="#fff"/>
      </g>
      <g id="Ellipse_2" data-name="Ellipse 2" transform="translate(500.166 925.958)" fill="none" stroke="#fff" stroke-width="1">
        <ellipse cx="14.262" cy="14.262" rx="14.262" ry="14.262" stroke="none"/>
        <ellipse cx="14.262" cy="14.262" rx="13.762" ry="13.762" fill="none"/>
      </g>
      <text id="_18" data-name="+18" transform="translate(505.586 943.691)" fill="#fff" font-size="10" font-family="Poppins-SemiBold, Poppins" font-weight="600"><tspan x="0" y="0">+18</tspan></text>
    </g>
    <text id="Il_gioco_È_vietato_ai_minori_di_18_anni_e_piò_causare_dipendenza_patologica._robabilità_di_vinvita_sul_sito_adm." data-name="Il gioco È vietato ai minori di 18 anni e piò causare dipendenza patologica.
robabilità di vinvita sul sito adm." transform="translate(202 46)" fill="#fff" font-size="10" font-family="Poppins-SemiBold, Poppins" font-weight="600" opacity="0.6"><tspan x="0" y="0">IL GIOCO È VIETATO AI MINORI DI 18 ANNI E PIÒ CAUSARE DIPENDENZA PATOLOGICA.</tspan><tspan x="0" y="11">ROBABILITÀ DI VINVITA SUL SITO ADM.</tspan></text>
  </g>
</svg>
