<svg xmlns="http://www.w3.org/2000/svg" xmlns:xlink="http://www.w3.org/1999/xlink" width="222.877" height="33.587" viewBox="0 0 222.877 33.587">
  <defs>
    <linearGradient id="linear-gradient" x1="-0.019" y1="1" x2="1.005" y2="0.014" gradientUnits="objectBoundingBox">
      <stop offset="0" stop-color="#e61219"/>
      <stop offset="1" stop-color="#ec4117"/>
    </linearGradient>
    <linearGradient id="linear-gradient-2" x1="0" y1="0.5" x2="1" y2="0.5" xlink:href="#linear-gradient"/>
    <linearGradient id="linear-gradient-4" x1="-0.03" y1="0.5" x2="3.117" y2="0.5" xlink:href="#linear-gradient"/>
    <linearGradient id="linear-gradient-5" x1="-1.123" y1="0.5" x2="2.025" y2="0.5" xlink:href="#linear-gradient"/>
    <linearGradient id="linear-gradient-6" x1="-2.215" y1="0.5" x2="0.932" y2="0.5" xlink:href="#linear-gradient"/>
  </defs>
  <g id="Group_1578" data-name="Group 1578" transform="translate(-192.676 -185.54)">
    <path id="Path_4609" data-name="Path 4609" d="M226.353,214.88a4.82,4.82,0,0,1-4.635,3.957H196.157a3.351,3.351,0,0,1-3.436-3.957l3.846-25.383a4.82,4.82,0,0,1,4.635-3.956h25.561A3.351,3.351,0,0,1,230.2,189.5Z" transform="translate(0)" fill="url(#linear-gradient)"/>
    <path id="Path_4610" data-name="Path 4610" d="M416.977,205.944c-1.344,6.635-4.994,9.6-12.376,9.6a22.777,22.777,0,0,1-6.588-.952c-.339-.11-.454-.33-.373-.733l4.685-23.131a.7.7,0,0,1,.713-.55h4.012c.361,0,.557.22.49.55l-1.529,7.551a10.015,10.015,0,0,1,5.059-1.209C416.326,197.073,418.2,199.9,416.977,205.944Zm-5.311.073c.735-3.629-.056-4.875-2.664-4.875a10.915,10.915,0,0,0-3.719.734l-1.908,9.42a15.418,15.418,0,0,0,2.338.146C409.284,211.442,410.805,210.269,411.667,206.017Z" transform="translate(-163.565 -3.705)"/>
    <path id="Path_4611" data-name="Path 4611" d="M513.373,234.506l-.015.074c-.111.55-.389.733-.991.733H501.053c-.246,2.6.969,3.336,4.379,3.336a35.273,35.273,0,0,0,5.064-.44h.2c.361,0,.484.184.418.514l-.579,2.859a.765.765,0,0,1-.655.66,31.451,31.451,0,0,1-5.648.549c-7.061,0-9.481-2.713-8.167-9.2,1.284-6.342,4.687-9.275,10.825-9.275S514.843,227.249,513.373,234.506Zm-11.681-2.345h7.1c.4-2.787-.326-3.739-2.693-3.739C503.653,228.422,502.417,229.375,501.692,232.161Z" transform="translate(-241.867 -30.948)"/>
    <path id="Path_4612" data-name="Path 4612" d="M601.211,218.54c.361,0,.525.183.458.513l-.579,2.859a.854.854,0,0,1-.736.66,23.6,23.6,0,0,1-3.094.219c-4.654,0-6.213-1.612-5.292-6.157l1.619-7.992H591.18c-.441,0-.605-.183-.524-.586l.55-2.713a.671.671,0,0,1,.761-.587h2.407l.995-4.911a.672.672,0,0,1,.761-.587h3.932c.441,0,.6.183.523.587l-.995,4.911h3.932c.441,0,.6.184.523.587l-.549,2.713a.671.671,0,0,1-.76.586H598.8l-1.433,7.075c-.5,2.456-.12,2.969,1.886,2.969a13.473,13.473,0,0,0,1.835-.146Z" transform="translate(-317.619 -10.949)"/>
    <path id="Path_4613" data-name="Path 4613" d="M665.923,227.945c-.1.477-.261.7-.9.66a37.444,37.444,0,0,0-4.033-.293c-2.568,0-3.467.476-3.674,1.5-.041,1.393.505,1.466,3.155,2.052l.459.11c3.229.7,5.03,1.906,4.34,5.315-.735,3.628-3.521,5.5-9.259,5.5a31.056,31.056,0,0,1-5.665-.549.465.465,0,0,1-.4-.624l.557-2.749a.641.641,0,0,1,.833-.55,29.929,29.929,0,0,0,4.813.4c2.688,0,3.66-.44,3.868-1.466.215-1.063-.528-1.356-2.645-1.8l-.765-.184-.459-.11c-2.948-.7-4.752-2.09-4.062-5.5.742-3.665,3.531-5.352,9.308-5.352a27.975,27.975,0,0,1,4.653.4c.353.036.47.257.387.66Z" transform="translate(-364.947 -30.948)"/>
    <path id="Path_4614" data-name="Path 4614" d="M747.886,203.379l-2.257,11.143a.671.671,0,0,1-.761.586h-3.932c-.442,0-.605-.183-.524-.586l1.983-9.787c.542-2.676.1-3.483-1.822-3.483a9.426,9.426,0,0,0-4.195,1.1l-2.472,12.207a.7.7,0,0,1-.713.549h-4.012c-.361,0-.557-.219-.49-.549l4.818-23.791a.672.672,0,0,1,.761-.586H738.2c.441,0,.6.183.523.586l-1.619,7.991a11.493,11.493,0,0,1,6.039-1.686C747.317,197.073,748.747,199.126,747.886,203.379Z" transform="translate(-427.791 -3.705)"/>
    <path id="Path_4615" data-name="Path 4615" d="M827.738,233.554c1.284-6.341,4.559-9.238,11.1-9.238s8.642,2.9,7.357,9.238-4.559,9.237-11.1,9.237S826.454,239.9,827.738,233.554Zm13.16,0c.794-3.923.021-5.059-2.908-5.059-2.848,0-4.122,1.136-4.916,5.059s.018,5.058,2.867,5.058C838.87,238.612,840.1,237.475,840.9,233.554Z" transform="translate(-506.567 -30.948)"/>
    <path id="Path_4616" data-name="Path 4616" d="M933.113,233.407c-1.277,6.305-4.83,9.384-10.246,9.384a7.593,7.593,0,0,1-3.987-.916l-1.4,6.891a.7.7,0,0,1-.713.55h-4.012c-.361,0-.557-.221-.49-.55l4.744-23.423a.672.672,0,0,1,.761-.587h3.41c.441,0,.6.184.523.587l-.163.807a11.382,11.382,0,0,1,6.108-1.833C932.306,224.316,934.323,227.432,933.113,233.407Zm-5.311.074c.772-3.813-.059-5.058-2.466-5.058a9.533,9.533,0,0,0-3.924.952l-1.8,8.87a9.323,9.323,0,0,0,2.88.44C925.584,238.685,927.007,237.4,927.8,233.48Z" transform="translate(-574.308 -30.948)"/>
    <g id="Group_1575" data-name="Group 1575" transform="translate(232.3 214.594)" opacity="0.3">
      <path id="Path_4617" data-name="Path 4617" d="M391.5,329.852H390l-1.056,4.379h1.545c.989,0,1.725-.361,1.923-1.186l.012-.05a.724.724,0,0,0-.528-.968,1.274,1.274,0,0,0,.951-.963l.015-.062C393.061,330.187,392.487,329.852,391.5,329.852Zm.262,3.049-.02.081c-.124.516-.573.664-1.128.664h-.826l.333-1.378h.9C391.528,332.268,391.87,332.442,391.76,332.9Zm.393-1.838-.022.086a.857.857,0,0,1-.943.633h-.954l.324-1.341h.776C391.9,330.442,392.272,330.567,392.153,331.063Z" transform="translate(-388.947 -329.772)"/>
      <path id="Path_4618" data-name="Path 4618" d="M412.454,334.23h2.79l.143-.59h-2.093l.323-1.342h1.524l.13-.54h-1.523l.317-1.317h2.093l.143-.59H413.51Z" transform="translate(-407.708 -329.771)"/>
      <path id="Path_4619" data-name="Path 4619" d="M437.137,330.441h1.21l-.914,3.789h.7l.914-3.789h1.218l.142-.59h-3.125Z" transform="translate(-427.408 -329.771)"/>
      <path id="Path_4620" data-name="Path 4620" d="M458.244,330.441h1.21l-.913,3.789h.7l.913-3.789h1.218l.142-.59h-3.125Z" transform="translate(-444.254 -329.771)"/>
      <path id="Path_4621" data-name="Path 4621" d="M476.416,334.23h.7l1.056-4.379h-.7Z" transform="translate(-458.757 -329.771)"/>
      <path id="Path_4622" data-name="Path 4622" d="M491.644,333.006l-1.261-3.155h-.648l-1.056,4.379h.7l.757-3.143,1.265,3.143h.655l1.056-4.379h-.7Z" transform="translate(-468.545 -329.771)"/>
      <path id="Path_4623" data-name="Path 4623" d="M517.43,329.454a2.047,2.047,0,0,0-2.032,1.521l-.358,1.485c-.215.893.318,1.515,1.3,1.515a2.052,2.052,0,0,0,2.045-1.515l.164-.684h-1.673l-.13.541h.975l-.039.162a1.184,1.184,0,0,1-1.2.906c-.534,0-.895-.3-.75-.906l.319-1.323c.189-.783.616-1.111,1.236-1.111.548,0,.895.3.767.894h.7C518.94,330.068,518.4,329.454,517.43,329.454Z" transform="translate(-489.546 -329.454)"/>
      <path id="Path_4624" data-name="Path 4624" d="M549.865,329.852l-2.686,4.379h.726l.587-.988h1.865l.1.988h.733l-.546-4.379Zm-1.067,2.863,1.3-2.192.219,2.192Z" transform="translate(-515.235 -329.772)"/>
      <path id="Path_4625" data-name="Path 4625" d="M576.577,333.006l-1.261-3.155h-.648l-1.056,4.379h.7l.757-3.143,1.264,3.143h.655l1.056-4.379h-.7Z" transform="translate(-536.331 -329.771)"/>
      <path id="Path_4626" data-name="Path 4626" d="M601.789,329.852h-1.609l-1.056,4.379h1.609a2.037,2.037,0,0,0,2.072-1.628l.273-1.13C603.336,330.4,602.779,329.852,601.789,329.852Zm.559,1.758-.2.85a1.3,1.3,0,0,1-1.347,1.186h-.833l.773-3.2h.833C602.182,330.442,602.565,330.708,602.348,331.61Z" transform="translate(-556.693 -329.772)"/>
      <path id="Path_4627" data-name="Path 4627" d="M638.035,329.454A2.042,2.042,0,0,0,636,330.969l-.358,1.485c-.215.894.317,1.521,1.306,1.521a2.093,2.093,0,0,0,2.078-1.652h-.7a1.271,1.271,0,0,1-1.238,1.062c-.548,0-.9-.311-.755-.913l.367-1.521a1.187,1.187,0,0,1,1.194-.906c.69,0,.843.49.735,1.025h.7A1.2,1.2,0,0,0,638.035,329.454Z" transform="translate(-585.798 -329.454)"/>
      <path id="Path_4628" data-name="Path 4628" d="M658.161,329.852l-2.686,4.379h.727l.587-.988h1.865l.1.988h.733l-.546-4.379Zm-1.067,2.863,1.3-2.192.219,2.192Z" transform="translate(-601.667 -329.772)"/>
      <path id="Path_4629" data-name="Path 4629" d="M684.108,329.454a1.728,1.728,0,0,0-1.878,1.236c-.392,1.627,2.349.975,2.094,2.031a1.053,1.053,0,0,1-1.134.69c-.6,0-.927-.292-.768-.95h-.69c-.237.981.294,1.527,1.319,1.527a1.826,1.826,0,0,0,1.974-1.279c.389-1.615-2.365-.938-2.1-2.019a.956.956,0,0,1,1.052-.671c.591,0,.878.317.732.919h.69C685.621,329.994,685.111,329.454,684.108,329.454Z" transform="translate(-622.578 -329.454)"/>
      <path id="Path_4630" data-name="Path 4630" d="M704.673,334.23h.7l1.056-4.379h-.7Z" transform="translate(-640.933 -329.771)"/>
      <path id="Path_4631" data-name="Path 4631" d="M719.9,333.006l-1.261-3.155h-.648l-1.056,4.379h.7l.758-3.143,1.264,3.143h.655l1.056-4.379h-.7Z" transform="translate(-650.721 -329.771)"/>
      <path id="Path_4632" data-name="Path 4632" d="M745.7,329.48a2.05,2.05,0,0,0-2.04,1.522l-.355,1.472c-.216.894.318,1.515,1.307,1.515a2.057,2.057,0,0,0,2.045-1.515L747.01,331C747.226,330.108,746.68,329.48,745.7,329.48Zm.614,1.5-.367,1.522a1.187,1.187,0,0,1-1.194.906c-.548,0-.9-.311-.755-.913l.367-1.521a1.186,1.186,0,0,1,1.194-.906C746.1,330.065,746.458,330.375,746.312,330.977Z" transform="translate(-671.727 -329.475)"/>
      <path id="Path_4633" data-name="Path 4633" d="M780.959,329.454a2.048,2.048,0,0,0-2.033,1.521l-.358,1.485c-.215.893.319,1.515,1.3,1.515a2.052,2.052,0,0,0,2.045-1.515l.165-.684h-1.673l-.13.541h.975l-.039.162a1.184,1.184,0,0,1-1.2.906c-.534,0-.9-.3-.749-.906l.319-1.323c.188-.783.616-1.111,1.235-1.111.548,0,.895.3.767.894h.7C782.47,330.068,781.935,329.454,780.959,329.454Z" transform="translate(-699.872 -329.454)"/>
      <path id="Path_4634" data-name="Path 4634" d="M801.416,329.852l-2.686,4.379h.726l.587-.988h1.865l.1.988h.733l-.547-4.379Zm-1.067,2.863,1.3-2.192.219,2.192Z" transform="translate(-716.001 -329.772)"/>
      <path id="Path_4635" data-name="Path 4635" d="M827.615,332.677l-.713-2.826h-.683l-1.056,4.379h.7l.73-3.031.584,2.273h.5l1.69-2.286-.734,3.044h.7l1.056-4.379H829.7Z" transform="translate(-737.097 -329.771)"/>
      <path id="Path_4636" data-name="Path 4636" d="M854.588,334.23h2.79l.143-.59h-2.093l.323-1.342h1.523l.13-.541h-1.523l.318-1.316h2.093l.143-.59h-2.791Z" transform="translate(-760.583 -329.771)"/>
      <path id="Path_4637" data-name="Path 4637" d="M878.532,329.454a1.729,1.729,0,0,0-1.879,1.235c-.392,1.628,2.349.975,2.095,2.031a1.055,1.055,0,0,1-1.134.69c-.6,0-.926-.292-.768-.95h-.69c-.237.981.294,1.527,1.319,1.527a1.827,1.827,0,0,0,1.975-1.279c.389-1.615-2.366-.937-2.105-2.019a.956.956,0,0,1,1.052-.67c.591,0,.878.317.732.919h.69C880.046,329.994,879.536,329.454,878.532,329.454Z" transform="translate(-777.751 -329.454)"/>
    </g>
    <path id="Path_4638" data-name="Path 4638" d="M248.174,197.037A15.923,15.923,0,0,0,245.8,196c-.709-.219-1.632-.364-2.356-.532,2.286.591,4.808,2.78,9.015,7.094,2.384,2.443,2.968,3,3.219,2.826.03-.188,0-.282-.211-.774-.034-.05-1.365-3.939-7.174-7.514l-.118-.063m-12.706-1.276c.745-.19,1.75-.41,2.507-.544,2.778-.106,6.05,2.544,12.332,8.523,1.549,1.475,4.348,4.138,5.578,4.425l.046.009a.443.443,0,0,0,.444-.1.117.117,0,0,0,.018-.018c.006-.007.011-.015.018-.023a.889.889,0,0,0,.108-.638c.139.491.265.983.359,1.477.211,1.287.857,5.206-3.972,1.663-4.891-3.588-8.748-8.38-13.777-11.807-3.659-2.493-5.138-2.274-6.225-1.817l.106-.158A16.1,16.1,0,0,1,235.468,195.761Z" transform="translate(-32.106 -7.721)" fill="#fff"/>
    <path id="Path_4639" data-name="Path 4639" d="M235.7,233.045l0,0c-2.074,1.23-6.8-2.776-11.576-7.138-9.247-8.448-13.79-10.967-16.2-8.979l-.471,3.107c2.532.462,6.557,3.595,12.2,8.572,8.735,7.709,13.531,11.005,15.507,7.631.255-.554.557-1.311.78-1.881a13.594,13.594,0,0,0,.578-2.151A2.1,2.1,0,0,1,235.7,233.045Z" transform="translate(-11.788 -24.535)" fill="#fff"/>
    <path id="Path_4640" data-name="Path 4640" d="M221.794,275.156s0-.006,0-.01c-3.7,1.843-11.938-5.71-16.018-9.453-3.73-3.422-6.615-5.823-8.645-6.787l-.689,4.546a37.938,37.938,0,0,1,5.268,4.353c5.3,4.969,9.079,8.2,11.98,9.586h5.228c.43-.256.863-.523,1.225-.755a15.941,15.941,0,0,0,2.034-1.689C222,275.049,221.794,275.156,221.794,275.156Zm-26.011-7.35-.339,2.235a1.308,1.308,0,0,1,.269.12,17.282,17.282,0,0,1,2.658,2.441,63.527,63.527,0,0,0,5.2,4.789h3.532a78.473,78.473,0,0,1-6.684-5.711C198.1,269.53,196.729,268.272,195.783,267.806Z" transform="translate(-2.209 -58.555)" fill="#fff"/>
    <g id="Group_1576" data-name="Group 1576" transform="translate(359.045 189.861)">
      <path id="Path_4641" data-name="Path 4641" d="M1072.664,206.943H1059.9q-.7,0-.806.574l-2.323,12.092a.435.435,0,0,0,.251.506.679.679,0,0,0,.658,0,8.468,8.468,0,0,1,3.8-.844,4.238,4.238,0,0,1,2.989.946,2.5,2.5,0,0,1,.726,2.466l-.059.3a3.82,3.82,0,0,1-1.711,2.466,5.719,5.719,0,0,1-3.321.979,7.619,7.619,0,0,1-3.061-.574.671.671,0,0,0-.555-.034.7.7,0,0,0-.432.337l-1.931,3.005q-.329.507.167.743a12.014,12.014,0,0,0,5.374,1.216,13.221,13.221,0,0,0,7.639-2.313,8.851,8.851,0,0,0,4.026-5.658l.116-.607a5.731,5.731,0,0,0-1.218-5.337q-1.868-1.959-5.658-1.959h-.58c-.336,0-.476-.135-.426-.405l.539-2.8a.48.48,0,0,1,.541-.4h7.117a.9.9,0,0,0,.516-.169.644.644,0,0,0,.291-.406l.681-3.546Q1073.361,206.943,1072.664,206.943Zm-39,11.416a6,6,0,0,1,.537,4.255l-.11.575a8.8,8.8,0,0,1-3.988,5.657,13.274,13.274,0,0,1-7.67,2.28,12.018,12.018,0,0,1-5.375-1.216q-.5-.235-.166-.743l1.931-3.005a.67.67,0,0,1,.442-.287,1.048,1.048,0,0,1,.615.017,7.5,7.5,0,0,0,2.991.541,5.776,5.776,0,0,0,3.318-.963,3.73,3.73,0,0,0,1.7-2.415l.058-.3a2.546,2.546,0,0,0-.757-2.5,4.156,4.156,0,0,0-2.945-.979,10.3,10.3,0,0,0-2.327.237.627.627,0,0,1-.728-.237l-.334-.676a.555.555,0,0,1,.167-.676l6.074-5.64a.4.4,0,0,0,.136-.406.288.288,0,0,0-.322-.235h-5.143a.636.636,0,0,1-.452-.169.416.416,0,0,1-.134-.406l.681-3.546q.11-.573.807-.574h13.189a.571.571,0,0,1,.433.169.438.438,0,0,1,.115.4l-.474,2.467a1.594,1.594,0,0,1-.639.911l-5.11,4.459a.384.384,0,0,0-.166.355c.012.146.1.23.281.253A5.279,5.279,0,0,1,1033.662,218.359Z" transform="translate(-1016.757 -206.943)" fill="url(#linear-gradient-2)"/>
      <path id="Path_4642" data-name="Path 4642" d="M1141.176,207.771v2.821a.606.606,0,0,1-.06.262l-9.666,20.092a.6.6,0,0,1-.544.342h-4.341a.748.748,0,0,1-.667-1.088l9.122-17.973a.29.29,0,0,0-.259-.421h-9.922a.6.6,0,0,1-.6-.6v-3.431a.6.6,0,0,1,.6-.6h15.731A.6.6,0,0,1,1141.176,207.771Z" transform="translate(-1102.538 -207.122)" fill="url(#linear-gradient-2)"/>
    </g>
    <g id="Group_1577" data-name="Group 1577" transform="translate(357.648 216.847)">
      <path id="Path_4643" data-name="Path 4643" d="M1026.546,340.613h-15.964a.388.388,0,0,0-.359.222l-.357.817a.357.357,0,0,0,.359.482h15.964a.388.388,0,0,0,.359-.222l.357-.817A.357.357,0,0,0,1026.546,340.613Z" transform="translate(-1009.838 -340.613)" fill="url(#linear-gradient-4)"/>
      <path id="Path_4644" data-name="Path 4644" d="M1119.042,340.613h-15.964a.388.388,0,0,0-.359.222l-.357.817a.357.357,0,0,0,.359.482h15.964a.388.388,0,0,0,.359-.222l.357-.817A.357.357,0,0,0,1119.042,340.613Z" transform="translate(-1083.661 -340.613)" fill="url(#linear-gradient-5)"/>
      <path id="Path_4645" data-name="Path 4645" d="M1211.538,340.613h-15.964a.388.388,0,0,0-.359.222l-.357.817a.357.357,0,0,0,.359.482h15.964a.388.388,0,0,0,.359-.222l.357-.817A.357.357,0,0,0,1211.538,340.613Z" transform="translate(-1157.483 -340.613)" fill="url(#linear-gradient-6)"/>
    </g>
  </g>
</svg>
