<svg xmlns="http://www.w3.org/2000/svg" xmlns:xlink="http://www.w3.org/1999/xlink" width="222.897" height="33.59" viewBox="0 0 222.897 33.59">
  <defs>
    <linearGradient id="linear-gradient" x1="-0.019" y1="1" x2="1.005" y2="0.014" gradientUnits="objectBoundingBox">
      <stop offset="0" stop-color="#EA3E0F"/>
      <stop offset="1" stop-color="#FE7102"/>
    </linearGradient>
    <linearGradient id="linear-gradient-2" x1="0" y1="0.5" x2="1" y2="0.5" xlink:href="#linear-gradient"/>
    <linearGradient id="linear-gradient-4" x1="-0.03" y1="0.5" x2="3.117" y2="0.5" xlink:href="#linear-gradient"/>
    <linearGradient id="linear-gradient-5" x1="-1.123" y1="0.5" x2="2.025" y2="0.5" xlink:href="#linear-gradient"/>
    <linearGradient id="linear-gradient-6" x1="-2.215" y1="0.5" x2="0.932" y2="0.5" xlink:href="#linear-gradient"/>
  </defs>
  <g id="Group_1556" data-name="Group 1556" transform="translate(-192.676 -722.988)">
    <path id="Path_4572" data-name="Path 4572" d="M226.356,752.33a4.821,4.821,0,0,1-4.636,3.957H196.158a3.351,3.351,0,0,1-3.437-3.957l3.846-25.386a4.82,4.82,0,0,1,4.636-3.957h25.563a3.351,3.351,0,0,1,3.437,3.957Z" transform="translate(0 0)" fill="url(#linear-gradient)"/>
    <path id="Path_4573" data-name="Path 4573" d="M416.979,743.394c-1.344,6.635-4.995,9.6-12.378,9.6a22.779,22.779,0,0,1-6.588-.953c-.339-.11-.454-.33-.373-.733l4.685-23.133a.7.7,0,0,1,.713-.55h4.013c.361,0,.557.22.49.55l-1.529,7.552a10.017,10.017,0,0,1,5.06-1.21C416.328,734.522,418.2,737.345,416.979,743.394Zm-5.311.073c.735-3.629-.056-4.876-2.664-4.876a10.913,10.913,0,0,0-3.72.734l-1.908,9.421a15.424,15.424,0,0,0,2.338.146C409.285,748.892,410.807,747.719,411.668,743.467Z" transform="translate(-163.561 -3.705)" fill="#fff"/>
    <path id="Path_4574" data-name="Path 4574" d="M513.375,771.955l-.015.074c-.111.55-.389.733-.991.733H501.054c-.247,2.6.969,3.336,4.38,3.336a35.29,35.29,0,0,0,5.065-.44h.2c.361,0,.485.184.418.514l-.579,2.86a.765.765,0,0,1-.655.66,31.456,31.456,0,0,1-5.649.549c-7.061,0-9.482-2.713-8.167-9.2,1.284-6.342,4.687-9.275,10.826-9.275S514.845,764.7,513.375,771.955Zm-11.682-2.345h7.1c.4-2.787-.326-3.739-2.693-3.739C503.653,765.87,502.417,766.823,501.692,769.61Z" transform="translate(-241.862 -30.947)" fill="#fff"/>
    <path id="Path_4575" data-name="Path 4575" d="M601.212,755.99c.361,0,.525.183.458.513l-.579,2.86a.854.854,0,0,1-.736.66,23.6,23.6,0,0,1-3.094.219c-4.654,0-6.213-1.613-5.292-6.158l1.619-7.992H591.18c-.441,0-.605-.183-.524-.587l.55-2.713a.672.672,0,0,1,.761-.587h2.407l.995-4.912a.672.672,0,0,1,.761-.587h3.932c.441,0,.6.183.523.587l-.995,4.912h3.933c.441,0,.6.184.523.587l-.55,2.713a.671.671,0,0,1-.76.587H598.8l-1.433,7.075c-.5,2.456-.12,2.969,1.887,2.969a13.48,13.48,0,0,0,1.835-.146Z" transform="translate(-317.611 -10.949)" fill="#fff"/>
    <path id="Path_4576" data-name="Path 4576" d="M665.925,765.394c-.1.477-.261.7-.9.66A37.461,37.461,0,0,0,661,765.76c-2.568,0-3.467.477-3.674,1.5-.041,1.393.505,1.466,3.155,2.052l.459.11c3.229.7,5.031,1.906,4.34,5.316-.735,3.629-3.521,5.5-9.259,5.5a31.061,31.061,0,0,1-5.666-.549.465.465,0,0,1-.4-.624l.557-2.75a.641.641,0,0,1,.833-.55,29.939,29.939,0,0,0,4.813.4c2.689,0,3.66-.44,3.868-1.466.215-1.063-.528-1.357-2.646-1.8l-.765-.184-.459-.11c-2.948-.7-4.753-2.09-4.062-5.5.742-3.666,3.531-5.352,9.309-5.352a27.949,27.949,0,0,1,4.653.4c.354.036.47.257.387.66Z" transform="translate(-364.938 -30.947)" fill="#fff"/>
    <path id="Path_4577" data-name="Path 4577" d="M747.888,740.828l-2.257,11.144a.671.671,0,0,1-.761.586h-3.932c-.442,0-.605-.183-.524-.586l1.983-9.788c.542-2.676.1-3.483-1.823-3.483a9.426,9.426,0,0,0-4.2,1.1l-2.472,12.208a.7.7,0,0,1-.713.549h-4.012c-.361,0-.557-.219-.49-.549l4.818-23.793a.672.672,0,0,1,.761-.586H738.2c.441,0,.6.183.523.586l-1.619,7.992a11.494,11.494,0,0,1,6.039-1.686C747.319,734.522,748.749,736.575,747.888,740.828Z" transform="translate(-427.782 -3.705)" fill="#fff"/>
    <path id="Path_4578" data-name="Path 4578" d="M827.738,771c1.285-6.342,4.559-9.239,11.1-9.239s8.642,2.9,7.358,9.239-4.56,9.238-11.1,9.238S826.454,777.344,827.738,771Zm13.161,0c.795-3.923.021-5.06-2.908-5.06-2.849,0-4.122,1.137-4.917,5.06s.018,5.058,2.867,5.058C838.871,776.061,840.1,774.924,840.9,771Z" transform="translate(-506.556 -30.947)" fill="#fff"/>
    <path id="Path_4579" data-name="Path 4579" d="M933.115,770.855c-1.277,6.306-4.831,9.385-10.247,9.385a7.594,7.594,0,0,1-3.987-.916l-1.4,6.892a.7.7,0,0,1-.713.55h-4.013c-.361,0-.557-.221-.49-.55l4.744-23.425a.672.672,0,0,1,.761-.587h3.411c.441,0,.6.184.523.587l-.163.807a11.381,11.381,0,0,1,6.109-1.834C932.307,761.764,934.325,764.88,933.115,770.855Zm-5.312.074c.772-3.813-.059-5.058-2.466-5.058a9.534,9.534,0,0,0-3.925.953l-1.8,8.871a9.326,9.326,0,0,0,2.88.44C925.585,776.134,927.009,774.851,927.8,770.929Z" transform="translate(-574.295 -30.947)" fill="#fff"/>
    <g id="Group_1553" data-name="Group 1553" transform="translate(232.304 752.044)" opacity="0.7">
      <path id="Path_4580" data-name="Path 4580" d="M391.5,867.3H390l-1.056,4.379h1.545c.989,0,1.725-.361,1.924-1.187l.012-.05a.724.724,0,0,0-.528-.968,1.275,1.275,0,0,0,.951-.963l.015-.062C393.062,867.635,392.488,867.3,391.5,867.3Zm.262,3.049-.02.081c-.124.515-.573.664-1.128.664h-.826l.333-1.378h.9C391.528,869.716,391.87,869.89,391.76,870.349Zm.393-1.838-.022.086a.857.857,0,0,1-.943.633h-.954l.324-1.341h.776C391.9,867.89,392.273,868.015,392.153,868.511Z" transform="translate(-388.947 -867.22)" fill="#fff"/>
      <path id="Path_4581" data-name="Path 4581" d="M412.454,871.679h2.79l.143-.59h-2.093l.323-1.342h1.524l.13-.54h-1.523l.317-1.317h2.093l.143-.59H413.51Z" transform="translate(-407.708 -867.219)" fill="#fff"/>
      <path id="Path_4582" data-name="Path 4582" d="M437.137,867.89h1.21l-.914,3.789h.7l.914-3.789h1.218l.142-.59h-3.125Z" transform="translate(-427.407 -867.219)" fill="#fff"/>
      <path id="Path_4583" data-name="Path 4583" d="M458.244,867.89h1.21l-.913,3.789h.7l.913-3.789h1.218l.142-.59h-3.125Z" transform="translate(-444.253 -867.219)" fill="#fff"/>
      <path id="Path_4584" data-name="Path 4584" d="M476.416,871.679h.7l1.056-4.379h-.7Z" transform="translate(-458.756 -867.219)" fill="#fff"/>
      <path id="Path_4585" data-name="Path 4585" d="M491.645,870.455l-1.261-3.155h-.648l-1.056,4.379h.7l.758-3.143,1.265,3.143h.655l1.056-4.379h-.7Z" transform="translate(-468.543 -867.219)" fill="#fff"/>
      <path id="Path_4586" data-name="Path 4586" d="M517.43,866.9a2.047,2.047,0,0,0-2.032,1.521l-.358,1.485c-.215.893.318,1.515,1.3,1.515a2.052,2.052,0,0,0,2.045-1.515l.165-.684h-1.673l-.13.541h.975l-.039.162a1.184,1.184,0,0,1-1.2.907c-.534,0-.895-.3-.75-.907l.319-1.323c.189-.783.616-1.111,1.236-1.111.548,0,.895.3.767.894h.7C518.941,867.516,518.405,866.9,517.43,866.9Z" transform="translate(-489.543 -866.902)" fill="#fff"/>
      <path id="Path_4587" data-name="Path 4587" d="M549.865,867.3l-2.686,4.379h.727l.587-.988h1.865l.1.988h.733l-.546-4.379Zm-1.068,2.863,1.3-2.192.219,2.192Z" transform="translate(-515.232 -867.22)" fill="#fff"/>
      <path id="Path_4588" data-name="Path 4588" d="M576.577,870.455l-1.261-3.155h-.648l-1.056,4.379h.7l.758-3.143,1.264,3.143h.655l1.056-4.379h-.7Z" transform="translate(-536.328 -867.219)" fill="#fff"/>
      <path id="Path_4589" data-name="Path 4589" d="M601.789,867.3h-1.609l-1.056,4.379h1.609a2.037,2.037,0,0,0,2.072-1.628l.273-1.13C603.336,867.853,602.78,867.3,601.789,867.3Zm.559,1.758-.2.85a1.3,1.3,0,0,1-1.347,1.186h-.833l.773-3.2h.833C602.182,867.89,602.566,868.156,602.348,869.058Z" transform="translate(-556.69 -867.22)" fill="#fff"/>
      <path id="Path_4590" data-name="Path 4590" d="M638.036,866.9A2.042,2.042,0,0,0,636,868.417l-.358,1.485c-.215.894.317,1.521,1.306,1.521a2.093,2.093,0,0,0,2.078-1.652h-.7a1.271,1.271,0,0,1-1.238,1.062c-.548,0-.9-.311-.755-.913l.367-1.522a1.187,1.187,0,0,1,1.194-.906c.691,0,.843.49.735,1.025h.7A1.2,1.2,0,0,0,638.036,866.9Z" transform="translate(-585.794 -866.902)" fill="#fff"/>
      <path id="Path_4591" data-name="Path 4591" d="M658.161,867.3l-2.686,4.379h.727l.587-.988h1.865l.1.988h.733l-.546-4.379Zm-1.067,2.863,1.3-2.192.219,2.192Z" transform="translate(-601.662 -867.22)" fill="#fff"/>
      <path id="Path_4592" data-name="Path 4592" d="M684.108,866.9a1.728,1.728,0,0,0-1.879,1.236c-.392,1.627,2.349.975,2.094,2.031a1.053,1.053,0,0,1-1.134.69c-.6,0-.927-.292-.768-.95h-.69c-.237.981.294,1.527,1.319,1.527a1.827,1.827,0,0,0,1.974-1.279c.389-1.615-2.365-.938-2.1-2.019a.956.956,0,0,1,1.052-.671c.591,0,.878.317.732.919h.691C685.622,867.442,685.111,866.9,684.108,866.9Z" transform="translate(-622.573 -866.902)" fill="#fff"/>
      <path id="Path_4593" data-name="Path 4593" d="M704.673,871.679h.7l1.056-4.379h-.7Z" transform="translate(-640.927 -867.219)" fill="#fff"/>
      <path id="Path_4594" data-name="Path 4594" d="M719.9,870.455l-1.261-3.155h-.648l-1.056,4.379h.7l.758-3.143,1.264,3.143h.655l1.056-4.379h-.7Z" transform="translate(-650.715 -867.219)" fill="#fff"/>
      <path id="Path_4595" data-name="Path 4595" d="M745.7,866.929a2.05,2.05,0,0,0-2.04,1.522l-.355,1.472c-.216.894.318,1.515,1.307,1.515a2.057,2.057,0,0,0,2.045-1.515l.355-1.472C747.226,867.557,746.68,866.929,745.7,866.929Zm.614,1.5-.367,1.522a1.187,1.187,0,0,1-1.194.907c-.548,0-.9-.311-.755-.913l.367-1.521a1.187,1.187,0,0,1,1.194-.907C746.1,867.513,746.458,867.824,746.313,868.426Z" transform="translate(-671.72 -866.923)" fill="#fff"/>
      <path id="Path_4596" data-name="Path 4596" d="M780.96,866.9a2.048,2.048,0,0,0-2.033,1.521l-.358,1.485c-.215.893.319,1.515,1.3,1.515a2.052,2.052,0,0,0,2.045-1.515l.165-.684h-1.673l-.13.541h.975l-.039.162a1.185,1.185,0,0,1-1.2.907c-.534,0-.9-.3-.749-.907l.319-1.323c.188-.783.616-1.111,1.235-1.111.548,0,.895.3.767.894h.7C782.47,867.516,781.935,866.9,780.96,866.9Z" transform="translate(-699.865 -866.902)" fill="#fff"/>
      <path id="Path_4597" data-name="Path 4597" d="M801.416,867.3l-2.686,4.379h.726l.586-.988h1.865l.1.988h.734L802.2,867.3Zm-1.067,2.863,1.3-2.192.219,2.192Z" transform="translate(-715.994 -867.22)" fill="#fff"/>
      <path id="Path_4598" data-name="Path 4598" d="M827.615,870.126,826.9,867.3h-.684l-1.056,4.379h.7l.73-3.031.584,2.273h.5l1.69-2.286-.734,3.044h.7l1.056-4.379H829.7Z" transform="translate(-737.089 -867.219)" fill="#fff"/>
      <path id="Path_4599" data-name="Path 4599" d="M854.588,871.679h2.791l.143-.59h-2.093l.323-1.342h1.523l.13-.541h-1.524l.318-1.316h2.093l.143-.59h-2.791Z" transform="translate(-760.575 -867.219)" fill="#fff"/>
      <path id="Path_4600" data-name="Path 4600" d="M878.532,866.9a1.729,1.729,0,0,0-1.879,1.235c-.392,1.628,2.349.976,2.1,2.031a1.055,1.055,0,0,1-1.135.69c-.6,0-.926-.292-.768-.95h-.69c-.237.981.294,1.527,1.319,1.527a1.827,1.827,0,0,0,1.975-1.28c.389-1.615-2.366-.937-2.105-2.019a.956.956,0,0,1,1.052-.67c.591,0,.878.317.732.919h.69C880.046,867.442,879.536,866.9,878.532,866.9Z" transform="translate(-777.743 -866.902)" fill="#fff"/>
    </g>
    <path id="Path_4601" data-name="Path 4601" d="M248.175,734.486a15.929,15.929,0,0,0-2.377-1.037c-.709-.219-1.633-.364-2.356-.532,2.286.591,4.808,2.78,9.016,7.094,2.385,2.443,2.968,3,3.22,2.826.03-.188,0-.282-.211-.774-.034-.05-1.365-3.94-7.174-7.514l-.118-.063m-12.707-1.276c.745-.19,1.75-.411,2.507-.544,2.778-.107,6.05,2.544,12.333,8.524,1.549,1.475,4.349,4.138,5.579,4.426l.046.009a.443.443,0,0,0,.444-.1.114.114,0,0,0,.018-.018c.006-.007.011-.015.018-.023a.888.888,0,0,0,.108-.638c.139.491.265.983.359,1.477.211,1.287.857,5.206-3.972,1.663-4.892-3.588-8.749-8.381-13.778-11.808-3.659-2.494-5.138-2.274-6.226-1.817l.106-.158A16.084,16.084,0,0,1,235.468,733.209Z" transform="translate(-32.106 -7.721)"/>
    <path id="Path_4602" data-name="Path 4602" d="M235.7,770.494l0,0c-2.075,1.23-6.8-2.776-11.577-7.138-9.248-8.449-13.792-10.968-16.2-8.98l-.471,3.107c2.532.462,6.558,3.6,12.2,8.573,8.735,7.709,13.532,11.006,15.508,7.632.255-.554.557-1.311.78-1.881a13.594,13.594,0,0,0,.578-2.151A2.1,2.1,0,0,1,235.7,770.494Z" transform="translate(-11.788 -24.534)"/>
    <path id="Path_4603" data-name="Path 4603" d="M221.8,812.605s0-.007,0-.01c-3.7,1.843-11.939-5.711-16.02-9.454-3.73-3.422-6.616-5.824-8.646-6.787l-.689,4.546a37.935,37.935,0,0,1,5.268,4.354c5.3,4.969,9.08,8.2,11.981,9.587h5.229c.43-.255.864-.523,1.225-.755a15.934,15.934,0,0,0,2.034-1.689C222.007,812.5,221.8,812.605,221.8,812.605Zm-26.013-7.351-.339,2.236a1.3,1.3,0,0,1,.269.119,17.294,17.294,0,0,1,2.658,2.441,63.5,63.5,0,0,0,5.2,4.789h3.533a78.48,78.48,0,0,1-6.685-5.711C198.1,806.979,196.729,805.721,195.783,805.255Z" transform="translate(-2.209 -58.553)"/>
    <g id="Group_1554" data-name="Group 1554" transform="translate(359.06 727.309)">
      <path id="Path_4604" data-name="Path 4604" d="M1072.669,744.391H1059.9q-.7,0-.806.574l-2.323,12.094a.435.435,0,0,0,.251.506.679.679,0,0,0,.658,0,8.469,8.469,0,0,1,3.8-.844,4.238,4.238,0,0,1,2.989.946,2.5,2.5,0,0,1,.726,2.466l-.059.3a3.819,3.819,0,0,1-1.711,2.466,5.719,5.719,0,0,1-3.321.979,7.619,7.619,0,0,1-3.062-.574.672.672,0,0,0-.556-.033.7.7,0,0,0-.431.337l-1.931,3.006q-.329.507.167.743a12.016,12.016,0,0,0,5.374,1.216,13.222,13.222,0,0,0,7.64-2.313,8.85,8.85,0,0,0,4.026-5.659l.116-.607a5.731,5.731,0,0,0-1.218-5.337q-1.868-1.96-5.658-1.959H1064c-.336,0-.477-.135-.426-.405l.539-2.8a.48.48,0,0,1,.541-.4h7.118a.9.9,0,0,0,.516-.169.644.644,0,0,0,.291-.406l.681-3.546Q1073.366,744.39,1072.669,744.391Zm-39.006,11.417a6,6,0,0,1,.537,4.255l-.11.575a8.8,8.8,0,0,1-3.989,5.658,13.276,13.276,0,0,1-7.671,2.28,12.02,12.02,0,0,1-5.376-1.216q-.5-.235-.166-.743l1.931-3.006a.67.67,0,0,1,.442-.287,1.047,1.047,0,0,1,.615.017,7.506,7.506,0,0,0,2.991.541,5.778,5.778,0,0,0,3.318-.963,3.73,3.73,0,0,0,1.7-2.415l.058-.3a2.546,2.546,0,0,0-.758-2.5,4.156,4.156,0,0,0-2.945-.979,10.3,10.3,0,0,0-2.328.237.627.627,0,0,1-.728-.237l-.334-.676a.555.555,0,0,1,.167-.676l6.074-5.641a.4.4,0,0,0,.136-.405.288.288,0,0,0-.322-.235h-5.144a.636.636,0,0,1-.452-.169.417.417,0,0,1-.135-.406l.681-3.546q.11-.573.807-.574h13.19a.57.57,0,0,1,.433.169.437.437,0,0,1,.115.4l-.474,2.467a1.6,1.6,0,0,1-.639.911l-5.111,4.46a.385.385,0,0,0-.166.355c.012.146.1.23.281.253A5.279,5.279,0,0,1,1033.663,755.808Z" transform="translate(-1016.757 -744.391)" fill="url(#linear-gradient-2)"/>
      <path id="Path_4605" data-name="Path 4605" d="M1141.177,745.219v2.821a.6.6,0,0,1-.06.262l-9.667,20.094a.6.6,0,0,1-.544.342h-4.341a.749.749,0,0,1-.667-1.088l9.123-17.974a.29.29,0,0,0-.259-.421h-9.922a.6.6,0,0,1-.6-.6v-3.431a.6.6,0,0,1,.6-.6h15.733A.6.6,0,0,1,1141.177,745.219Z" transform="translate(-1102.537 -744.57)" fill="url(#linear-gradient-2)"/>
    </g>
    <g id="Group_1555" data-name="Group 1555" transform="translate(357.663 754.297)">
      <path id="Path_4606" data-name="Path 4606" d="M1026.548,878.061h-15.965a.388.388,0,0,0-.359.222l-.357.818a.357.357,0,0,0,.359.482h15.965a.388.388,0,0,0,.359-.222l.357-.818A.357.357,0,0,0,1026.548,878.061Z" transform="translate(-1009.838 -878.061)" fill="url(#linear-gradient-4)"/>
      <path id="Path_4607" data-name="Path 4607" d="M1119.044,878.061h-15.965a.388.388,0,0,0-.359.222l-.357.818a.357.357,0,0,0,.359.482h15.965a.388.388,0,0,0,.359-.222l.357-.818A.357.357,0,0,0,1119.044,878.061Z" transform="translate(-1083.659 -878.061)" fill="url(#linear-gradient-5)"/>
      <path id="Path_4608" data-name="Path 4608" d="M1211.54,878.061h-15.965a.388.388,0,0,0-.359.222l-.357.818a.357.357,0,0,0,.359.482h15.965a.388.388,0,0,0,.359-.222l.357-.818A.357.357,0,0,0,1211.54,878.061Z" transform="translate(-1157.48 -878.061)" fill="url(#linear-gradient-6)"/>
    </g>
  </g>
</svg>
