<?xml version="1.0" encoding="utf-8"?>
<!-- Generator: Adobe Illustrator 25.1.0, SVG Export Plug-In . SVG Version: 6.00 Build 0)  -->
<svg version="1.1" id="Layer_1" xmlns="http://www.w3.org/2000/svg" xmlns:xlink="http://www.w3.org/1999/xlink" x="0px" y="0px"
	 viewBox="0 0 222.9 33.6" style="enable-background:new 0 0 222.9 33.6;" xml:space="preserve">
<style type="text/css">
	.st0{fill:url(#Path_4572_1_);}
	.st1{fill:url(#Path_4604_1_);}
	.st2{fill:url(#Path_4605_1_);}
	.st3{fill:url(#Path_4606_1_);}
	.st4{fill:url(#Path_4607_1_);}
	.st5{fill:url(#Path_4608_1_);}
</style>
<g id="Group_1556" transform="translate(-192.676 -722.988)">
	
		<linearGradient id="Path_4572_1_" gradientUnits="userSpaceOnUse" x1="-5217.4985" y1="2801.6348" x2="-5216.4746" y2="2802.6208" gradientTransform="matrix(37.5936 0 0 -33.3061 196336.4062 94067.7891)">
		<stop  offset="0" style="stop-color:#EA3E0F"/>
		<stop  offset="1" style="stop-color:#FE7102"/>
	</linearGradient>
	<path id="Path_4572" class="st0" d="M226.4,752.3c-0.4,2.3-2.3,3.9-4.6,4h-25.6c-1.8,0.1-3.4-1.4-3.5-3.2c0-0.3,0-0.5,0.1-0.8
		l3.8-25.4c0.4-2.3,2.3-3.9,4.6-4h25.6c1.8-0.1,3.4,1.4,3.5,3.2c0,0.3,0,0.5-0.1,0.8L226.4,752.3z"/>
	<path id="Path_4573" d="M253.4,739.7c-1.3,6.6-5,9.6-12.4,9.6c-2.2,0-4.5-0.3-6.6-1c-0.3-0.1-0.5-0.3-0.4-0.7l4.7-23.1
		c0.1-0.3,0.4-0.6,0.7-0.5h4c0.4,0,0.6,0.2,0.5,0.5l-1.5,7.6c1.6-0.8,3.3-1.3,5.1-1.2C252.8,730.8,254.6,733.6,253.4,739.7z
		 M248.1,739.8c0.7-3.6-0.1-4.9-2.7-4.9c-1.3,0-2.5,0.3-3.7,0.7l-1.9,9.4c0.8,0.1,1.6,0.2,2.3,0.1
		C245.7,745.2,247.2,744,248.1,739.8z"/>
	<path id="Path_4574" d="M271.5,741L271.5,741c-0.1,0.6-0.4,0.8-1,0.8h-11.3c-0.2,2.6,1,3.3,4.4,3.3c1.7,0,3.4-0.2,5.1-0.4h0.2
		c0.4,0,0.5,0.2,0.4,0.5l-0.6,2.9c0,0.3-0.3,0.6-0.7,0.7c-1.9,0.4-3.8,0.5-5.6,0.5c-7.1,0-9.5-2.7-8.2-9.2c1.3-6.3,4.7-9.3,10.8-9.3
		S273,733.8,271.5,741z M259.8,738.7h7.1c0.4-2.8-0.3-3.7-2.7-3.7C261.8,734.9,260.6,735.9,259.8,738.7L259.8,738.7z"/>
	<path id="Path_4575" d="M283.6,745c0.4,0,0.5,0.2,0.5,0.5l-0.6,2.9c-0.1,0.4-0.4,0.6-0.7,0.7c-1,0.1-2.1,0.2-3.1,0.2
		c-4.7,0-6.2-1.6-5.3-6.2l1.6-8h-2.4c-0.4,0-0.6-0.2-0.5-0.6l0.5-2.7c0-0.4,0.4-0.6,0.7-0.6c0,0,0,0,0,0h2.4l1-4.9
		c0-0.4,0.4-0.6,0.7-0.6c0,0,0,0,0,0h3.9c0.4,0,0.6,0.2,0.5,0.6l-1,4.9h3.9c0.4,0,0.6,0.2,0.5,0.6l-0.5,2.7c0,0.4-0.4,0.6-0.7,0.6
		c0,0,0,0,0,0h-3.9l-1.4,7.1c-0.5,2.5-0.1,3,1.9,3c0.6,0,1.2-0.1,1.8-0.1L283.6,745z"/>
	<path id="Path_4576" d="M301,734.4c-0.1,0.5-0.3,0.7-0.9,0.7c-1.3-0.2-2.7-0.3-4-0.3c-2.6,0-3.5,0.5-3.7,1.5c0,1.4,0.5,1.5,3.2,2.1
		l0.5,0.1c3.2,0.7,5,1.9,4.3,5.3c-0.7,3.6-3.5,5.5-9.3,5.5c-1.9,0-3.8-0.2-5.7-0.5c-0.3,0-0.4-0.2-0.4-0.5c0,0,0-0.1,0-0.1l0.6-2.8
		c0-0.4,0.3-0.6,0.7-0.6c0,0,0.1,0,0.1,0c1.6,0.3,3.2,0.4,4.8,0.4c2.7,0,3.7-0.4,3.9-1.5c0.2-1.1-0.5-1.4-2.6-1.8l-0.8-0.2l-0.5-0.1
		c-2.9-0.7-4.8-2.1-4.1-5.5c0.7-3.7,3.5-5.4,9.3-5.4c1.6,0,3.1,0.1,4.7,0.4c0.4,0,0.5,0.3,0.4,0.7L301,734.4z"/>
	<path id="Path_4577" d="M320.1,737.1l-2.3,11.1c0,0.4-0.4,0.6-0.7,0.6c0,0,0,0,0,0h-3.9c-0.4,0-0.6-0.2-0.5-0.6l2-9.8
		c0.5-2.7,0.1-3.5-1.8-3.5c-1.5,0-2.9,0.4-4.2,1.1l-2.5,12.2c-0.1,0.3-0.4,0.6-0.7,0.5h-4c-0.4,0-0.6-0.2-0.5-0.5l4.8-23.8
		c0-0.4,0.4-0.6,0.7-0.6c0,0,0,0,0,0h3.9c0.4,0,0.6,0.2,0.5,0.6l-1.6,8c1.8-1.1,3.9-1.7,6-1.7C319.5,730.8,321,732.9,320.1,737.1z"
		/>
	<path id="Path_4578" d="M321.2,740.1c1.3-6.3,4.6-9.2,11.1-9.2s8.6,2.9,7.4,9.2s-4.6,9.2-11.1,9.2S319.9,746.4,321.2,740.1z
		 M334.3,740.1c0.8-3.9,0-5.1-2.9-5.1c-2.8,0-4.1,1.1-4.9,5.1s0,5.1,2.9,5.1C332.3,745.1,333.5,744,334.3,740.1L334.3,740.1z"/>
	<path id="Path_4579" d="M358.8,739.9c-1.3,6.3-4.8,9.4-10.2,9.4c-1.4,0.1-2.8-0.3-4-0.9l-1.4,6.9c-0.1,0.3-0.4,0.6-0.7,0.5h-4
		c-0.4,0-0.6-0.2-0.5-0.5l4.7-23.4c0-0.4,0.4-0.6,0.7-0.6c0,0,0,0,0,0h3.4c0.4,0,0.6,0.2,0.5,0.6l-0.2,0.8c1.8-1.2,3.9-1.8,6.1-1.8
		C358,730.8,360,733.9,358.8,739.9z M353.5,740c0.8-3.8-0.1-5.1-2.5-5.1c-1.4,0-2.7,0.4-3.9,1l-1.8,8.9c0.9,0.3,1.9,0.4,2.9,0.4
		C351.3,745.2,352.7,743.9,353.5,740L353.5,740z"/>
	<g id="Group_1553" transform="translate(232.304 752.044)">
		<path id="Path_4580" d="M2.6,0.1H1.1L0,4.5h1.5c1,0,1.7-0.4,1.9-1.2l0,0c0.1-0.4,0-0.8-0.4-0.9c0,0-0.1,0-0.1,0
			c0.5-0.1,0.8-0.5,1-1l0-0.1C4.1,0.4,3.5,0.1,2.6,0.1z M2.8,3.1L2.8,3.1C2.7,3.7,2.2,3.9,1.7,3.9H0.8l0.3-1.4h0.9
			C2.6,2.5,2.9,2.7,2.8,3.1L2.8,3.1z M3.2,1.3L3.2,1.3C3.1,1.8,2.7,2.1,2.2,2h-1l0.3-1.3h0.8C3,0.7,3.3,0.8,3.2,1.3L3.2,1.3z"/>
		<path id="Path_4581" d="M4.7,4.5h2.8l0.1-0.6H5.6l0.3-1.3h1.5L7.6,2H6l0.3-1.3h2.1l0.1-0.6H5.8L4.7,4.5z"/>
		<path id="Path_4582" d="M9.7,0.7h1.2L10,4.5h0.7l0.9-3.8h1.2L13,0.1H9.9L9.7,0.7z"/>
		<path id="Path_4583" d="M14,0.7h1.2l-0.9,3.8H15l0.9-3.8h1.2l0.1-0.6h-3.1L14,0.7z"/>
		<path id="Path_4584" d="M17.7,4.5h0.7l1.1-4.4h-0.7L17.7,4.5z"/>
		<path id="Path_4585" d="M23.1,3.2l-1.3-3.2h-0.6l-1.1,4.4h0.7l0.8-3.1l1.3,3.1h0.7l1.1-4.4h-0.7L23.1,3.2z"/>
		<path id="Path_4586" d="M27.9,0c-0.9,0-1.8,0.6-2,1.5L25.5,3c-0.2,0.9,0.3,1.5,1.3,1.5c1,0,1.8-0.6,2-1.5L29,2.3h-1.7l-0.1,0.5h1
			l0,0.2C28,3.6,27.5,4,26.9,3.9c-0.5,0-0.9-0.3-0.8-0.9l0.3-1.3c0.2-0.8,0.6-1.1,1.2-1.1c0.5,0,0.9,0.3,0.8,0.9h0.7
			C29.4,0.6,28.9,0,27.9,0z"/>
		<path id="Path_4587" d="M34.6,0.1l-2.7,4.4h0.7l0.6-1h1.9l0.1,1H36l-0.5-4.4H34.6z M33.6,2.9l1.3-2.2l0.2,2.2H33.6z"/>
		<path id="Path_4588" d="M40.2,3.2L39,0.1h-0.6l-1.1,4.4H38l0.8-3.1L40,4.5h0.7l1.1-4.4H41L40.2,3.2z"/>
		<path id="Path_4589" d="M45.1,0.1h-1.6l-1.1,4.4H44c1,0,1.9-0.7,2.1-1.6l0.3-1.1C46.6,0.6,46.1,0.1,45.1,0.1z M45.7,1.8l-0.2,0.8
			c-0.1,0.7-0.7,1.2-1.3,1.2h-0.8l0.8-3.2h0.8C45.5,0.7,45.9,0.9,45.7,1.8z"/>
		<path id="Path_4590" d="M52.2,0c-0.9,0-1.8,0.6-2,1.5L49.8,3c-0.2,0.9,0.3,1.5,1.3,1.5c1,0,1.9-0.7,2.1-1.7h-0.7
			c-0.1,0.6-0.6,1.1-1.2,1.1c-0.5,0-0.9-0.3-0.8-0.9l0.4-1.5c0.1-0.5,0.6-0.9,1.2-0.9c0.7,0,0.8,0.5,0.7,1h0.7
			c0.2-0.6-0.1-1.3-0.7-1.5C52.7,0,52.4,0,52.2,0z"/>
		<path id="Path_4591" d="M56.5,0.1l-2.7,4.4h0.7l0.6-1H57l0.1,1h0.7l-0.5-4.4H56.5z M55.4,2.9l1.3-2.2L57,2.9H55.4z"/>
		<path id="Path_4592" d="M61.5,0c-0.8-0.1-1.6,0.4-1.9,1.2c-0.4,1.6,2.3,1,2.1,2C61.6,3.7,61.1,4,60.6,4c-0.6,0-0.9-0.3-0.8-1h-0.7
			c-0.2,1,0.3,1.5,1.3,1.5c0.9,0.1,1.7-0.4,2-1.3c0.4-1.6-2.4-0.9-2.1-2c0.1-0.5,0.6-0.7,1.1-0.7c0.6,0,0.9,0.3,0.7,0.9h0.7
			C63,0.5,62.5,0,61.5,0z"/>
		<path id="Path_4593" d="M63.7,4.5h0.7l1.1-4.4h-0.7L63.7,4.5z"/>
		<path id="Path_4594" d="M69.2,3.2l-1.3-3.2h-0.6l-1.1,4.4h0.7l0.8-3.1l1.3,3.1h0.7l1.1-4.4H70L69.2,3.2z"/>
		<path id="Path_4595" d="M74,0c-1,0-1.8,0.6-2,1.5L71.6,3c-0.2,0.9,0.3,1.5,1.3,1.5c0.9,0,1.8-0.6,2-1.5l0.4-1.5
			C75.5,0.6,75,0,74,0z M74.6,1.5L74.2,3C74.1,3.6,73.6,4,73,3.9c-0.5,0-0.9-0.3-0.8-0.9l0.4-1.5c0.1-0.5,0.6-0.9,1.2-0.9
			C74.4,0.6,74.7,0.9,74.6,1.5L74.6,1.5z"/>
		<path id="Path_4596" d="M81.1,0c-0.9,0-1.8,0.6-2,1.5L78.7,3C78.5,3.9,79,4.5,80,4.5c1,0,1.8-0.6,2-1.5l0.2-0.7h-1.7l-0.1,0.5h1
			l0,0.2c-0.1,0.5-0.6,0.9-1.2,0.9c-0.5,0-0.9-0.3-0.7-0.9l0.3-1.3c0.2-0.8,0.6-1.1,1.2-1.1c0.5,0,0.9,0.3,0.8,0.9h0.7
			C82.6,0.6,82.1,0,81.1,0z"/>
		<path id="Path_4597" d="M85.4,0.1l-2.7,4.4h0.7l0.6-1h1.9l0.1,1h0.7l-0.5-4.4H85.4z M84.4,2.9l1.3-2.2l0.2,2.2H84.4z"/>
		<path id="Path_4598" d="M90.5,2.9l-0.7-2.8h-0.7l-1.1,4.4h0.7l0.7-3l0.6,2.3h0.5l1.7-2.3l-0.7,3h0.7l1.1-4.4h-0.7L90.5,2.9z"/>
		<path id="Path_4599" d="M94,4.5h2.8l0.1-0.6h-2.1l0.3-1.3h1.5L96.8,2h-1.5l0.3-1.3h2.1l0.1-0.6h-2.8L94,4.5z"/>
		<path id="Path_4600" d="M100.8,0c-0.8-0.1-1.6,0.4-1.9,1.2c-0.4,1.6,2.3,1,2.1,2c-0.2,0.5-0.6,0.8-1.1,0.7c-0.6,0-0.9-0.3-0.8-1
			h-0.7c-0.2,1,0.3,1.5,1.3,1.5c0.9,0.1,1.7-0.4,2-1.3c0.4-1.6-2.4-0.9-2.1-2c0.1-0.5,0.6-0.7,1.1-0.7c0.6,0,0.9,0.3,0.7,0.9h0.7
			C102.3,0.5,101.8,0,100.8,0z"/>
	</g>
	<path id="Path_4601" d="M216.1,726.8c-0.8-0.4-1.6-0.8-2.4-1c-0.7-0.2-1.6-0.4-2.4-0.5c2.3,0.6,4.8,2.8,9,7.1c2.4,2.4,3,3,3.2,2.8
		c0-0.2,0-0.3-0.2-0.8c0,0-1.4-3.9-7.2-7.5L216.1,726.8 M203.4,725.5c0.7-0.2,1.8-0.4,2.5-0.5c2.8-0.1,6.1,2.5,12.3,8.5
		c1.5,1.5,4.3,4.1,5.6,4.4l0,0c0.2,0.1,0.3,0,0.4-0.1c0,0,0,0,0,0c0,0,0,0,0,0c0.1-0.2,0.2-0.4,0.1-0.6c0.1,0.5,0.3,1,0.4,1.5
		c0.2,1.3,0.9,5.2-4,1.7c-4.9-3.6-8.7-8.4-13.8-11.8c-3.7-2.5-5.1-2.3-6.2-1.8l0.1-0.2C201.7,726.1,202.5,725.8,203.4,725.5
		L203.4,725.5z"/>
	<path id="Path_4602" d="M223.9,746L223.9,746c-2.1,1.2-6.8-2.8-11.6-7.1c-9.2-8.4-13.8-11-16.2-9l-0.5,3.1
		c2.5,0.5,6.6,3.6,12.2,8.6c8.7,7.7,13.5,11,15.5,7.6c0.3-0.6,0.6-1.3,0.8-1.9c0.3-0.7,0.4-1.4,0.6-2.2
		C224.5,745.5,224.3,745.8,223.9,746z"/>
	<path id="Path_4603" d="M219.6,754.1C219.6,754.1,219.6,754,219.6,754.1c-3.7,1.8-11.9-5.7-16-9.5c-3.7-3.4-6.6-5.8-8.6-6.8
		l-0.7,4.5c1.9,1.3,3.6,2.7,5.3,4.4c5.3,5,9.1,8.2,12,9.6h5.2c0.4-0.3,0.9-0.5,1.2-0.8c0.7-0.5,1.4-1.1,2-1.7
		C219.8,753.9,219.6,754.1,219.6,754.1z M193.6,746.7l-0.3,2.2c0.1,0,0.2,0.1,0.3,0.1c1,0.7,1.9,1.5,2.7,2.4
		c1.6,1.7,3.4,3.3,5.2,4.8h3.5c-2.3-1.8-4.6-3.7-6.7-5.7C195.9,748.4,194.5,747.2,193.6,746.7L193.6,746.7z"/>
	<g id="Group_1554" transform="translate(359.06 727.309)">
		
			<linearGradient id="Path_4604_1_" gradientUnits="userSpaceOnUse" x1="-5626.0469" y1="2050.9521" x2="-5625.0469" y2="2050.9521" gradientTransform="matrix(56.5198 0 0 -24.1871 317982.9062 49618.6211)">
			<stop  offset="0" style="stop-color:#EA3E0F"/>
			<stop  offset="1" style="stop-color:#FE7102"/>
		</linearGradient>
		<path id="Path_4604" class="st1" d="M55.9,0H43.1c-0.5,0-0.7,0.2-0.8,0.6L40,12.7c-0.1,0.2,0.1,0.4,0.3,0.5c0.2,0.1,0.5,0.1,0.7,0
			c1.2-0.6,2.5-0.9,3.8-0.8c1.1-0.1,2.2,0.3,3,0.9c0.7,0.6,1,1.6,0.7,2.5L48.4,16c-0.2,1-0.8,1.9-1.7,2.5c-1,0.7-2.1,1-3.3,1
			c-1,0-2.1-0.2-3.1-0.6c-0.2-0.1-0.4-0.1-0.6,0c-0.2,0-0.3,0.2-0.4,0.3l-1.9,3c-0.2,0.3-0.2,0.6,0.2,0.7c1.7,0.8,3.5,1.2,5.4,1.2
			c2.7,0,5.4-0.8,7.6-2.3c2.1-1.3,3.5-3.3,4-5.7l0.1-0.6c0.5-1.9,0.1-3.9-1.2-5.3c-1.2-1.3-3.1-2-5.7-2h-0.6c-0.3,0-0.5-0.1-0.4-0.4
			l0.5-2.8c0-0.3,0.3-0.4,0.5-0.4H55c0.2,0,0.4-0.1,0.5-0.2c0.1-0.1,0.3-0.2,0.3-0.4l0.7-3.5C56.6,0.2,56.4,0,55.9,0z M16.9,11.4
			c0.7,1.3,0.9,2.8,0.5,4.3l-0.1,0.6c-0.5,2.4-1.9,4.4-4,5.7c-2.3,1.5-4.9,2.3-7.7,2.3c-1.9,0-3.7-0.4-5.4-1.2
			c-0.3-0.2-0.4-0.4-0.2-0.7l1.9-3c0.1-0.2,0.3-0.3,0.4-0.3c0.2-0.1,0.4-0.1,0.6,0c0.9,0.4,2,0.6,3,0.5c1.2,0,2.3-0.3,3.3-1
			c0.9-0.5,1.5-1.4,1.7-2.4l0.1-0.3c0.2-0.9-0.1-1.9-0.8-2.5c-0.8-0.7-1.9-1-2.9-1c-0.8,0-1.6,0.1-2.3,0.2c-0.3,0.1-0.6,0-0.7-0.2
			l-0.3-0.7c-0.1-0.2,0-0.5,0.2-0.7l6.1-5.6c0.1-0.1,0.2-0.3,0.1-0.4c0-0.2-0.2-0.3-0.3-0.2H5c-0.2,0-0.3-0.1-0.5-0.2
			C4.4,4.4,4.4,4.3,4.4,4.1l0.7-3.5C5.2,0.2,5.4,0,5.9,0h13.2c0.2,0,0.3,0.1,0.4,0.2c0.1,0.1,0.1,0.3,0.1,0.4L19.2,3
			c-0.1,0.4-0.3,0.7-0.6,0.9l-5.1,4.5c-0.1,0.1-0.2,0.2-0.2,0.4c0,0.1,0.1,0.2,0.3,0.3C14.9,9.3,16.2,10.2,16.9,11.4z"/>
		
			<linearGradient id="Path_4605_1_" gradientUnits="userSpaceOnUse" x1="-5396.2246" y1="2050.6882" x2="-5395.2246" y2="2050.6882" gradientTransform="matrix(16.9369 0 0 -24.1141 91416.9609 49462.5586)">
			<stop  offset="0" style="stop-color:#EA3E0F"/>
			<stop  offset="1" style="stop-color:#FE7102"/>
		</linearGradient>
		<path id="Path_4605" class="st2" d="M38.6,0.6v2.8c0,0.1,0,0.2-0.1,0.3l-9.7,20.1c-0.1,0.2-0.3,0.3-0.5,0.3H24
			c-0.4,0-0.7-0.3-0.7-0.7c0-0.1,0-0.2,0.1-0.3l9.1-18c0.1-0.1,0-0.3-0.1-0.4c0,0-0.1,0-0.1,0h-9.9c-0.3,0-0.6-0.3-0.6-0.6V0.7
			c0-0.3,0.3-0.6,0.6-0.6H38C38.4,0.1,38.6,0.3,38.6,0.6z"/>
	</g>
	<g id="Group_1555" transform="translate(357.663 754.297)">
		
			<linearGradient id="Path_4606_1_" gradientUnits="userSpaceOnUse" x1="-5397.7227" y1="727.0675" x2="-5394.5757" y2="727.0675" gradientTransform="matrix(17.0861 0 0 -1.5237 92225.3047 1108.625)">
			<stop  offset="0" style="stop-color:#EA3E0F"/>
			<stop  offset="1" style="stop-color:#FE7102"/>
		</linearGradient>
		<path id="Path_4606" class="st3" d="M16.7,0h-16C0.6,0,0.5,0.1,0.4,0.2L0,1C0,1.2,0.1,1.4,0.2,1.5c0,0,0.1,0,0.2,0h16
			c0.2,0,0.3-0.1,0.4-0.2l0.4-0.8c0.1-0.2,0-0.4-0.2-0.5C16.8,0,16.8,0,16.7,0z"/>
		
			<linearGradient id="Path_4607_1_" gradientUnits="userSpaceOnUse" x1="-5398.8154" y1="727.0675" x2="-5395.6675" y2="727.0675" gradientTransform="matrix(17.0861 0 0 -1.5237 92243.9766 1108.625)">
			<stop  offset="0" style="stop-color:#EA3E0F"/>
			<stop  offset="1" style="stop-color:#FE7102"/>
		</linearGradient>
		<path id="Path_4607" class="st4" d="M35.4,0h-16c-0.2,0-0.3,0.1-0.4,0.2L18.7,1c-0.1,0.2,0,0.4,0.2,0.5c0,0,0.1,0,0.2,0h16
			c0.2,0,0.3-0.1,0.4-0.2l0.4-0.8c0.1-0.2,0-0.4-0.2-0.5C35.5,0,35.4,0,35.4,0z"/>
		
			<linearGradient id="Path_4608_1_" gradientUnits="userSpaceOnUse" x1="-5399.9077" y1="727.0675" x2="-5396.7607" y2="727.0675" gradientTransform="matrix(17.0861 0 0 -1.5237 92262.6562 1108.625)">
			<stop  offset="0" style="stop-color:#EA3E0F"/>
			<stop  offset="1" style="stop-color:#FE7102"/>
		</linearGradient>
		<path id="Path_4608" class="st5" d="M54.1,0h-16c-0.2,0-0.3,0.1-0.4,0.2L37.4,1c-0.1,0.2,0,0.4,0.2,0.5c0,0,0.1,0,0.2,0h16
			c0.2,0,0.3-0.1,0.4-0.2l0.4-0.8c0.1-0.2,0-0.4-0.2-0.5C54.2,0,54.1,0,54.1,0z"/>
	</g>
</g>
</svg>
