<svg xmlns="http://www.w3.org/2000/svg" xmlns:xlink="http://www.w3.org/1999/xlink" width="195.685" height="21" viewBox="0 0 195.685 21">
  <defs>
    <clipPath id="clip-path">
      <circle id="Ellipse_69" data-name="Ellipse 69" cx="6.727" cy="6.727" r="6.727" fill="none"/>
    </clipPath>
  </defs>
  <g id="Group_792" data-name="Group 792" transform="translate(-1424 -1469)">
    <g id="gioco_responsabile_w" transform="translate(1420.298 1465.254)">
      <g id="Group_704" data-name="Group 704" transform="translate(3.702 7.91)" opacity="0.5" clip-path="url(#clip-path)">
        <rect id="Rectangle_598" data-name="Rectangle 598" width="13.453" height="13.454" fill="#283138"/>
        <circle id="Ellipse_31" data-name="Ellipse 31" cx="6.727" cy="6.727" r="6.727" transform="translate(0 0.001)" fill="#283138"/>
        <circle id="Ellipse_32" data-name="Ellipse 32" cx="6.55" cy="6.55" r="6.55" transform="translate(0.177 0.177)" fill="#283138"/>
        <circle id="Ellipse_33" data-name="Ellipse 33" cx="6.372" cy="6.372" r="6.372" transform="translate(0.354 0.355)" fill="#283138"/>
        <circle id="Ellipse_34" data-name="Ellipse 34" cx="6.195" cy="6.195" r="6.195" transform="translate(0.531 0.532)" fill="#283138"/>
        <circle id="Ellipse_35" data-name="Ellipse 35" cx="6.019" cy="6.019" r="6.019" transform="translate(0.708 0.708)" fill="#283138"/>
        <circle id="Ellipse_36" data-name="Ellipse 36" cx="5.841" cy="5.841" r="5.841" transform="translate(0.885 0.886)" fill="#283138"/>
        <circle id="Ellipse_37" data-name="Ellipse 37" cx="5.664" cy="5.664" r="5.664" transform="translate(1.062 1.063)" fill="#283138"/>
        <circle id="Ellipse_38" data-name="Ellipse 38" cx="5.488" cy="5.488" r="5.488" transform="translate(1.239 1.24)" fill="#283138"/>
        <circle id="Ellipse_39" data-name="Ellipse 39" cx="5.311" cy="5.311" r="5.311" transform="translate(1.416 1.416)" fill="#283138"/>
        <circle id="Ellipse_40" data-name="Ellipse 40" cx="5.133" cy="5.133" r="5.133" transform="translate(1.593 1.594)" fill="#283138"/>
        <circle id="Ellipse_41" data-name="Ellipse 41" cx="4.956" cy="4.956" r="4.956" transform="translate(1.77 1.771)" fill="#283138"/>
        <circle id="Ellipse_42" data-name="Ellipse 42" cx="4.78" cy="4.78" r="4.78" transform="translate(1.947 1.947)" fill="#283138"/>
        <circle id="Ellipse_43" data-name="Ellipse 43" cx="4.602" cy="4.602" r="4.602" transform="translate(2.124 2.125)" fill="#283138"/>
        <circle id="Ellipse_44" data-name="Ellipse 44" cx="4.425" cy="4.425" r="4.425" transform="translate(2.301 2.302)" fill="#283138"/>
        <circle id="Ellipse_45" data-name="Ellipse 45" cx="4.249" cy="4.249" r="4.249" transform="translate(2.478 2.479)" fill="#283138"/>
        <circle id="Ellipse_46" data-name="Ellipse 46" cx="4.071" cy="4.071" r="4.071" transform="translate(2.655 2.656)" fill="#283138"/>
        <circle id="Ellipse_47" data-name="Ellipse 47" cx="3.894" cy="3.894" r="3.894" transform="translate(2.832 2.833)" fill="#283138"/>
        <circle id="Ellipse_48" data-name="Ellipse 48" cx="3.717" cy="3.717" r="3.717" transform="translate(3.009 3.01)" fill="#283138"/>
        <circle id="Ellipse_49" data-name="Ellipse 49" cx="3.54" cy="3.54" r="3.54" transform="translate(3.186 3.187)" fill="#283138"/>
        <circle id="Ellipse_50" data-name="Ellipse 50" cx="3.363" cy="3.363" r="3.363" transform="translate(3.363 3.364)" fill="#283138"/>
        <circle id="Ellipse_51" data-name="Ellipse 51" cx="3.186" cy="3.186" r="3.186" transform="translate(3.54 3.541)" fill="#283138"/>
        <circle id="Ellipse_52" data-name="Ellipse 52" cx="3.009" cy="3.009" r="3.009" transform="translate(3.717 3.718)" fill="#283138"/>
        <circle id="Ellipse_53" data-name="Ellipse 53" cx="2.832" cy="2.832" r="2.832" transform="translate(3.894 3.895)" fill="#283138"/>
        <circle id="Ellipse_54" data-name="Ellipse 54" cx="2.655" cy="2.655" r="2.655" transform="translate(4.071 4.072)" fill="#283138"/>
        <circle id="Ellipse_55" data-name="Ellipse 55" cx="2.478" cy="2.478" r="2.478" transform="translate(4.249 4.249)" fill="#283138"/>
        <circle id="Ellipse_56" data-name="Ellipse 56" cx="2.301" cy="2.301" r="2.301" transform="translate(4.425 4.426)" fill="#283138"/>
        <circle id="Ellipse_57" data-name="Ellipse 57" cx="2.124" cy="2.124" r="2.124" transform="translate(4.602 4.603)" fill="#283138"/>
        <circle id="Ellipse_58" data-name="Ellipse 58" cx="1.947" cy="1.947" r="1.947" transform="translate(4.78 4.78)" fill="#283138"/>
        <circle id="Ellipse_59" data-name="Ellipse 59" cx="1.77" cy="1.77" r="1.77" transform="translate(4.956 4.957)" fill="#283138"/>
        <circle id="Ellipse_60" data-name="Ellipse 60" cx="1.593" cy="1.593" r="1.593" transform="translate(5.133 5.134)" fill="#283138"/>
        <circle id="Ellipse_61" data-name="Ellipse 61" cx="1.416" cy="1.416" r="1.416" transform="translate(5.31 5.311)" fill="#283138"/>
        <circle id="Ellipse_62" data-name="Ellipse 62" cx="1.239" cy="1.239" r="1.239" transform="translate(5.488 5.488)" fill="#283138"/>
        <circle id="Ellipse_63" data-name="Ellipse 63" cx="1.062" cy="1.062" r="1.062" transform="translate(5.664 5.665)" fill="#283138"/>
        <circle id="Ellipse_64" data-name="Ellipse 64" cx="0.885" cy="0.885" r="0.885" transform="translate(5.841 5.842)" fill="#283138"/>
        <circle id="Ellipse_65" data-name="Ellipse 65" cx="0.708" cy="0.708" r="0.708" transform="translate(6.019 6.019)" fill="#283138"/>
        <circle id="Ellipse_66" data-name="Ellipse 66" cx="0.531" cy="0.531" r="0.531" transform="translate(6.195 6.196)" fill="#283138"/>
        <circle id="Ellipse_67" data-name="Ellipse 67" cx="0.354" cy="0.354" r="0.354" transform="translate(6.372 6.373)" fill="#283138"/>
        <circle id="Ellipse_68" data-name="Ellipse 68" cx="0.177" cy="0.177" r="0.177" transform="translate(6.55 6.55)" fill="#283138"/>
      </g>
      <path id="Path_1006" data-name="Path 1006" d="M36.383,13.973a3.011,3.011,0,0,1-1.237.27,2.843,2.843,0,0,1-1.663-.533,3.43,3.43,0,0,1-1.172-1.45,3.57,3.57,0,0,1-.32-1.458A2.912,2.912,0,0,1,33.759,8.09a3.676,3.676,0,0,1,1.524-.344q1.016,0,1.278.582a.946.946,0,0,1,.074.36.661.661,0,0,1-.41.647,1.66,1.66,0,0,1-.811.029,1.814,1.814,0,0,0-1.024.135,1.183,1.183,0,0,0-.741,1.18,2.183,2.183,0,0,0,.2.893q.491,1.114,1.377,1.114a1.294,1.294,0,0,0,.86-.328,1,1,0,0,0,.418-.8,1.044,1.044,0,0,0-.041-.279l-.565.26a.775.775,0,0,1-.328.075.71.71,0,0,1-.7-.469.8.8,0,0,1-.074-.331.716.716,0,0,1,.475-.691l1.27-.567a1.157,1.157,0,0,1,.459-.107.886.886,0,0,1,.794.631A3.375,3.375,0,0,1,38.1,11.43a2.687,2.687,0,0,1-.428,1.485A2.951,2.951,0,0,1,36.383,13.973Z" transform="translate(-12.704 0)" fill="#283138"/>
      <path id="Path_1007" data-name="Path 1007" d="M44.737,13.523a.838.838,0,0,1,.017-.165l.729-4.6a.841.841,0,0,1,.266-.528.758.758,0,0,1,.52-.193.85.85,0,0,1,.6.225.765.765,0,0,1,.242.586.834.834,0,0,1-.017.165l-.727,4.6a.841.841,0,0,1-.266.528.757.757,0,0,1-.52.193.848.848,0,0,1-.6-.225.764.764,0,0,1-.244-.586Z" transform="translate(-18.428 -0.132)" fill="#283138"/>
      <path id="Path_1008" data-name="Path 1008" d="M53.411,14.308a2.853,2.853,0,0,1-1.86-1.047,3.136,3.136,0,0,1-.672-2.015,3.684,3.684,0,0,1,.049-.59,3.305,3.305,0,0,1,1.009-1.981A2.782,2.782,0,0,1,53.9,7.91a3.189,3.189,0,0,1,.507.041A2.81,2.81,0,0,1,56.251,9a3.18,3.18,0,0,1,.688,2.028,3.385,3.385,0,0,1-.049.573,3.331,3.331,0,0,1-1,1.975,2.77,2.77,0,0,1-1.965.771A3.187,3.187,0,0,1,53.411,14.308Zm.762-4.834a.937.937,0,0,0-.213-.025,1.151,1.151,0,0,0-.9.409,2.076,2.076,0,0,0-.467,1.065,2.585,2.585,0,0,0-.033.409,1.644,1.644,0,0,0,.279.975,1.161,1.161,0,0,0,.811.475,1.047,1.047,0,0,0,.22.025,1.165,1.165,0,0,0,.91-.418,2.065,2.065,0,0,0,.451-1.057,2.4,2.4,0,0,0,.033-.393,1.681,1.681,0,0,0-.27-.975,1.193,1.193,0,0,0-.818-.492Z" transform="translate(-21.187 -0.073)" fill="#283138"/>
      <path id="Path_1009" data-name="Path 1009" d="M66.512,14.443A2.848,2.848,0,0,1,64.66,13.4a3.1,3.1,0,0,1-.68-2.007,3.581,3.581,0,0,1,.049-.59,3.314,3.314,0,0,1,1.012-1.987,2.792,2.792,0,0,1,1.971-.766,3.3,3.3,0,0,1,.508.041,3.122,3.122,0,0,1,1.123.409,1.1,1.1,0,0,1,.655.893.752.752,0,0,1-.209.528.672.672,0,0,1-.512.225,1.5,1.5,0,0,1-.647-.254,1.815,1.815,0,0,0-.661-.229,1.471,1.471,0,0,0-.22-.017,1.163,1.163,0,0,0-.893.393,1.934,1.934,0,0,0-.459,1.047,2.159,2.159,0,0,0-.033.369,1.543,1.543,0,0,0,.279.942,1.2,1.2,0,0,0,.819.483,1.785,1.785,0,0,0,.237.017,2.187,2.187,0,0,0,.537-.082,2.088,2.088,0,0,1,.447-.082.706.706,0,0,1,.57.275.716.716,0,0,1,.165.6.91.91,0,0,1-.614.7,2.758,2.758,0,0,1-1.057.18,3.25,3.25,0,0,1-.535-.04Z" transform="translate(-27.07 -0.134)" fill="#283138"/>
      <path id="Path_1010" data-name="Path 1010" d="M77.636,14.308a2.853,2.853,0,0,1-1.86-1.047,3.136,3.136,0,0,1-.672-2.015,3.684,3.684,0,0,1,.049-.59,3.305,3.305,0,0,1,1.012-1.981,2.782,2.782,0,0,1,1.962-.766,3.189,3.189,0,0,1,.507.041A2.81,2.81,0,0,1,80.479,9a3.18,3.18,0,0,1,.688,2.028,3.384,3.384,0,0,1-.049.573,3.33,3.33,0,0,1-1.008,1.975,2.771,2.771,0,0,1-1.966.771,3.189,3.189,0,0,1-.508-.041ZM78.4,9.475a.939.939,0,0,0-.213-.025,1.151,1.151,0,0,0-.9.409,2.076,2.076,0,0,0-.467,1.065,2.573,2.573,0,0,0-.033.409,1.645,1.645,0,0,0,.279.975,1.161,1.161,0,0,0,.811.475,1.047,1.047,0,0,0,.22.025,1.165,1.165,0,0,0,.91-.418,2.065,2.065,0,0,0,.451-1.057,2.4,2.4,0,0,0,.033-.393,1.681,1.681,0,0,0-.271-.975,1.193,1.193,0,0,0-.818-.492Z" transform="translate(-32.066 -0.073)" fill="#283138"/>
      <path id="Path_1011" data-name="Path 1011" d="M34.493,25.5a8.371,8.371,0,0,1-.041,1.073.631.631,0,0,1-.226.489.682.682,0,0,1-.51.145.668.668,0,0,1-.465-.232.652.652,0,0,1-.142-.516l.331-3.779a.694.694,0,0,1,.226-.489.669.669,0,0,1,.516-.145l1.181.1a2.109,2.109,0,0,1,1.241.466,1.48,1.48,0,0,1,.466,1.16q0,.11-.007.22a1.319,1.319,0,0,1-.4.864,1.588,1.588,0,0,1-.816.412l.857,1.093a.594.594,0,0,1,.142.425.679.679,0,0,1-.229.462.621.621,0,0,1-.5.165.638.638,0,0,1-.5-.283Zm.762-2.085-.526-.047-.074.852.526.047q.459.04.493-.391t-.418-.461Z" transform="translate(-13.204 -6.42)" fill="#283138"/>
      <path id="Path_1012" data-name="Path 1012" d="M36.144,27.433a.491.491,0,0,1-.075,0,.692.692,0,0,1-.539-.307L34.507,25.64c0,.226-.014.527-.046.9a.684.684,0,0,1-.246.527.734.734,0,0,1-.551.157.723.723,0,0,1-.5-.252.707.707,0,0,1-.154-.557l.331-3.777a.749.749,0,0,1,.245-.526.728.728,0,0,1,.556-.158l1.181.1a2.17,2.17,0,0,1,1.273.479,1.539,1.539,0,0,1,.484,1.2q0,.11-.007.226a1.377,1.377,0,0,1-.415.9,1.614,1.614,0,0,1-.759.407l.8,1.026a.65.65,0,0,1,.153.463.734.734,0,0,1-.247.5A.669.669,0,0,1,36.144,27.433ZM34.381,25.27l1.236,1.792a.582.582,0,0,0,.459.26.566.566,0,0,0,.458-.151.621.621,0,0,0,.212-.426.538.538,0,0,0-.131-.386L35.705,25.2l.086-.017a1.543,1.543,0,0,0,.789-.4,1.273,1.273,0,0,0,.382-.83c0-.074.007-.147.007-.22a1.432,1.432,0,0,0-.447-1.121,2.068,2.068,0,0,0-1.212-.452l-1.181-.1a.615.615,0,0,0-.476.132.645.645,0,0,0-.208.453l-.331,3.779a.6.6,0,0,0,.129.477.61.61,0,0,0,.429.214.621.621,0,0,0,.47-.133.575.575,0,0,0,.206-.45,8.374,8.374,0,0,0,.041-1.067Zm.826-.987a.562.562,0,0,1-.079,0l-.58-.052.084-.958.58.052a.534.534,0,0,1,.38.165.463.463,0,0,1,.088.353.43.43,0,0,1-.472.443Zm-.542-.154.473.042a.428.428,0,0,0,.32-.071.378.378,0,0,0,.113-.27.362.362,0,0,0-.063-.275.432.432,0,0,0-.306-.127h0l-.472-.042Z" transform="translate(-13.158 -6.377)" fill="#283138"/>
      <path id="Path_1013" data-name="Path 1013" d="M42.946,27.383l-1.708-.331a.7.7,0,0,1-.408-.226.624.624,0,0,1-.159-.429.543.543,0,0,1,.02-.142l.712-3.644q.122-.621.661-.621a1,1,0,0,1,.162.014l1.639.317a.628.628,0,0,1,.347,1.073.594.594,0,0,1-.445.189.716.716,0,0,1-.142-.014l-1-.2-.122.634.918.182a.681.681,0,0,1,.4.226.606.606,0,0,1,.142.395.634.634,0,0,1-.641.641.8.8,0,0,1-.142-.013l-.924-.182-.128.675,1.059.209a.606.606,0,0,1,.526.614.635.635,0,0,1-.179.452.592.592,0,0,1-.448.189A.8.8,0,0,1,42.946,27.383Z" transform="translate(-16.603 -6.398)" fill="#283138"/>
      <path id="Path_1014" data-name="Path 1014" d="M43.043,27.406a.864.864,0,0,1-.151-.014h0l-1.708-.331a.759.759,0,0,1-.441-.243.68.68,0,0,1-.172-.464.6.6,0,0,1,.022-.156l.71-3.64c.086-.441.327-.664.716-.664a1.073,1.073,0,0,1,.171.014l1.641.318a.684.684,0,0,1,.379,1.164.649.649,0,0,1-.484.205.771.771,0,0,1-.153-.014l-.951-.185-.1.528.865.172a.737.737,0,0,1,.436.245.661.661,0,0,1,.154.429.674.674,0,0,1-.2.5.691.691,0,0,1-.645.187l-.872-.172-.11.569,1.007.2a.661.661,0,0,1,.57.667.689.689,0,0,1-.193.489.647.647,0,0,1-.488.2Zm-.132-.121a.548.548,0,0,0,.541-.159.6.6,0,0,0,.041-.776.561.561,0,0,0-.359-.2l-1.113-.22.148-.781.978.193a.582.582,0,0,0,.551-.158.562.562,0,0,0,.17-.417.547.547,0,0,0-.129-.36.631.631,0,0,0-.374-.207l-.97-.193.142-.74,1.058.206a.672.672,0,0,0,.132.013.538.538,0,0,0,.406-.172.576.576,0,0,0-.323-.982l-1.639-.317A.944.944,0,0,0,42.019,22c-.331,0-.532.189-.606.577L40.7,26.22a.5.5,0,0,0-.019.131.567.567,0,0,0,.145.393.652.652,0,0,0,.378.209Z" transform="translate(-16.558 -6.354)" fill="#283138"/>
      <path id="Path_1015" data-name="Path 1015" d="M49.487,27.379a3.152,3.152,0,0,1-1.12-.2q-.688-.256-.688-.729A.661.661,0,0,1,47.851,26a.574.574,0,0,1,.448-.192,1.837,1.837,0,0,1,.564.132,1.841,1.841,0,0,0,.57.132q.519,0,.52-.412,0-.2-.587-.371a4.39,4.39,0,0,1-1.08-.412,1.228,1.228,0,0,1-.587-1.1,1.564,1.564,0,0,1,.561-1.243,1.9,1.9,0,0,1,1.282-.452,2.38,2.38,0,0,1,.911.189q.58.25.58.654a.707.707,0,0,1-.169.466.559.559,0,0,1-.452.2,1.48,1.48,0,0,1-.445-.1,1.488,1.488,0,0,0-.452-.1q-.386,0-.386.27,0,.142.587.31a3.466,3.466,0,0,1,1.08.459,1.427,1.427,0,0,1,.587,1.221,1.6,1.6,0,0,1-.573,1.275,1.973,1.973,0,0,1-1.321.456Z" transform="translate(-19.75 -6.436)" fill="#283138"/>
      <path id="Path_1016" data-name="Path 1016" d="M49.443,27.39a3.221,3.221,0,0,1-1.139-.2c-.48-.179-.723-.441-.723-.78a.716.716,0,0,1,.186-.491.629.629,0,0,1,.489-.21,1.864,1.864,0,0,1,.582.138,1.8,1.8,0,0,0,.551.128c.417,0,.466-.2.466-.358,0-.06-.071-.182-.548-.319a4.387,4.387,0,0,1-1.094-.418,1.284,1.284,0,0,1-.612-1.145,1.623,1.623,0,0,1,.579-1.29,1.962,1.962,0,0,1,1.317-.465,2.446,2.446,0,0,1,.932.193c.408.175.614.412.614.7a.762.762,0,0,1-.181.5.613.613,0,0,1-.5.22,1.514,1.514,0,0,1-.463-.1,1.445,1.445,0,0,0-.434-.1c-.3,0-.331.123-.331.216,0,.01.015.106.548.258a3.534,3.534,0,0,1,1.1.467,1.484,1.484,0,0,1,.609,1.267,1.662,1.662,0,0,1-.592,1.316,2.035,2.035,0,0,1-1.355.468Zm-1.188-1.572a.517.517,0,0,0-.408.174.606.606,0,0,0-.158.419c0,.293.214.514.653.678a3.112,3.112,0,0,0,1.1.192,1.928,1.928,0,0,0,1.288-.442,1.558,1.558,0,0,0,.554-1.234,1.381,1.381,0,0,0-.565-1.178,3.436,3.436,0,0,0-1.064-.453c-.441-.126-.626-.234-.626-.362,0-.148.076-.324.441-.324a1.523,1.523,0,0,1,.47.1,1.437,1.437,0,0,0,.427.1.5.5,0,0,0,.41-.183.648.648,0,0,0,.156-.431c0-.245-.185-.448-.548-.606a2.337,2.337,0,0,0-.89-.185,1.857,1.857,0,0,0-1.247.441,1.519,1.519,0,0,0-.541,1.207,1.167,1.167,0,0,0,.562,1.054,4.375,4.375,0,0,0,1.065.4c.428.123.626.257.626.423,0,.213-.1.466-.573.466a1.869,1.869,0,0,1-.588-.135,1.8,1.8,0,0,0-.546-.127Z" transform="translate(-19.705 -6.393)" fill="#283138"/>
      <path id="Path_1017" data-name="Path 1017" d="M56.841,25.759l-.573.1.162.924a.829.829,0,0,1,.014.148.618.618,0,0,1-.2.479.707.707,0,0,1-.5.182.631.631,0,0,1-.422-.152.692.692,0,0,1-.226-.429l-.661-3.731a.835.835,0,0,1-.013-.148.613.613,0,0,1,.58-.654l1.174-.209a2.424,2.424,0,0,1,.4-.034,1.818,1.818,0,0,1,1.171.391,1.7,1.7,0,0,1,.611,1.066,2.234,2.234,0,0,1,.027.337,1.611,1.611,0,0,1-.435,1.137A1.938,1.938,0,0,1,56.841,25.759Zm-.466-2.276-.513.088.189,1.08.513-.095A.465.465,0,0,0,57,24.049a.632.632,0,0,0-.128-.4.481.481,0,0,0-.386-.175A.441.441,0,0,0,56.376,23.483Z" transform="translate(-22.78 -6.507)" fill="#283138"/>
      <path id="Path_1018" data-name="Path 1018" d="M55.7,27.6a.686.686,0,0,1-.457-.165A.748.748,0,0,1,55,26.977l-.661-3.731a.888.888,0,0,1-.014-.158.661.661,0,0,1,.625-.708l1.174-.209a2.5,2.5,0,0,1,.408-.035,1.877,1.877,0,0,1,1.2.4,1.758,1.758,0,0,1,.63,1.1,2.305,2.305,0,0,1,.028.347,1.671,1.671,0,0,1-.45,1.174,2,2,0,0,1-1.14.606h0l-.52.092.153.871a.884.884,0,0,1,.014.158.674.674,0,0,1-.217.519A.763.763,0,0,1,55.7,27.6Zm.83-5.357a2.364,2.364,0,0,0-.389.033l-1.173.209a.56.56,0,0,0-.535.6.785.785,0,0,0,.013.139l.661,3.731a.643.643,0,0,0,.208.4.574.574,0,0,0,.386.139.657.657,0,0,0,.459-.168.561.561,0,0,0,.182-.441.771.771,0,0,0-.013-.139l-.171-.978.626-.11a1.892,1.892,0,0,0,1.08-.574,1.566,1.566,0,0,0,.421-1.1,2.195,2.195,0,0,0-.026-.331,1.653,1.653,0,0,0-.588-1.027,1.772,1.772,0,0,0-1.138-.379Zm-.57,2.424-.208-1.187.564-.1a.5.5,0,0,1,.119-.014.535.535,0,0,1,.426.194.69.69,0,0,1,.141.441.52.52,0,0,1-.477.559Zm-.082-1.1.17.972.459-.085a.414.414,0,0,0,.386-.453.582.582,0,0,0-.117-.371.425.425,0,0,0-.342-.155.389.389,0,0,0-.095.012h0Z" transform="translate(-22.735 -6.463)" fill="#283138"/>
      <path id="Path_1019" data-name="Path 1019" d="M64.192,27.347a2.349,2.349,0,0,1-1.532-.864,2.583,2.583,0,0,1-.551-1.66,3.035,3.035,0,0,1,.041-.486,2.724,2.724,0,0,1,.834-1.63,2.291,2.291,0,0,1,1.616-.631,2.633,2.633,0,0,1,.418.034,2.314,2.314,0,0,1,1.518.867,2.618,2.618,0,0,1,.567,1.67,2.779,2.779,0,0,1-.04.472,2.743,2.743,0,0,1-.83,1.626,2.281,2.281,0,0,1-1.622.632A2.629,2.629,0,0,1,64.192,27.347Zm.627-3.981a.777.777,0,0,0-.176-.02.948.948,0,0,0-.742.337,1.708,1.708,0,0,0-.386.877,2.133,2.133,0,0,0-.027.337,1.354,1.354,0,0,0,.229.8.955.955,0,0,0,.668.391.867.867,0,0,0,.182.02.96.96,0,0,0,.749-.344,1.7,1.7,0,0,0,.371-.87,1.99,1.99,0,0,0,.027-.324,1.384,1.384,0,0,0-.22-.8A.982.982,0,0,0,64.819,23.366Z" transform="translate(-26.23 -6.436)" fill="#283138"/>
      <path id="Path_1020" data-name="Path 1020" d="M64.564,27.389a2.7,2.7,0,0,1-.426-.035h0a2.412,2.412,0,0,1-1.566-.881,2.644,2.644,0,0,1-.565-1.693,3.1,3.1,0,0,1,.041-.5,2.788,2.788,0,0,1,.85-1.66,2.353,2.353,0,0,1,1.653-.645,2.719,2.719,0,0,1,.427.034,2.378,2.378,0,0,1,1.552.887,2.683,2.683,0,0,1,.578,1.7,2.85,2.85,0,0,1-.041.481,2.81,2.81,0,0,1-.846,1.657A2.344,2.344,0,0,1,64.564,27.389Zm-.013-5.3a2.249,2.249,0,0,0-1.579.616,2.685,2.685,0,0,0-.817,1.6,3,3,0,0,0-.04.478,2.542,2.542,0,0,0,.542,1.626,2.307,2.307,0,0,0,1.5.843h0a2.589,2.589,0,0,0,.409.033,2.238,2.238,0,0,0,1.582-.62,2.7,2.7,0,0,0,.815-1.593A2.737,2.737,0,0,0,67,24.6a2.576,2.576,0,0,0-.555-1.636,2.272,2.272,0,0,0-1.484-.847,2.578,2.578,0,0,0-.41-.033Zm-.027,4.036a.919.919,0,0,1-.193-.021,1.008,1.008,0,0,1-.7-.413,1.413,1.413,0,0,1-.239-.834,2.2,2.2,0,0,1,.028-.346,1.769,1.769,0,0,1,.4-.9,1,1,0,0,1,.783-.356.833.833,0,0,1,.186.021,1.039,1.039,0,0,1,.708.427,1.443,1.443,0,0,1,.233.835,2.07,2.07,0,0,1-.028.331,1.763,1.763,0,0,1-.386.9,1.017,1.017,0,0,1-.789.365Zm.074-2.766a.889.889,0,0,0-.7.319,1.665,1.665,0,0,0-.372.85,2.1,2.1,0,0,0-.026.331,1.307,1.307,0,0,0,.22.771.907.907,0,0,0,.632.369.827.827,0,0,0,.174.02.9.9,0,0,0,.708-.326,1.658,1.658,0,0,0,.358-.843,1.949,1.949,0,0,0,.026-.315,1.337,1.337,0,0,0-.213-.771.933.933,0,0,0-.638-.382h0A.734.734,0,0,0,64.6,23.356Z" transform="translate(-26.184 -6.391)" fill="#283138"/>
      <path id="Path_1021" data-name="Path 1021" d="M75.1,24.746q-.135-.54-.338-2.139a1.113,1.113,0,0,1-.007-.121.615.615,0,0,1,.165-.441.688.688,0,0,1,.429-.209.669.669,0,0,1,.5.128.68.68,0,0,1,.253.479l.466,3.805a.883.883,0,0,1,.007.11.643.643,0,0,1-.162.448.673.673,0,0,1-.432.213.62.62,0,0,1-.307-.044.768.768,0,0,1-.28-.172l-2.22-2.287q.135.54.337,2.112a1.119,1.119,0,0,1,.007.122.615.615,0,0,1-.165.441.689.689,0,0,1-.429.209.671.671,0,0,1-.5-.128.68.68,0,0,1-.253-.479L71.7,22.987a.882.882,0,0,1-.007-.11.642.642,0,0,1,.162-.448.673.673,0,0,1,.432-.213.64.64,0,0,1,.31.044.7.7,0,0,1,.275.172Z" transform="translate(-30.535 -6.325)" fill="#283138"/>
      <path id="Path_1022" data-name="Path 1022" d="M72.779,27.414a.707.707,0,0,1-.441-.145.735.735,0,0,1-.275-.516L71.6,22.948a.94.94,0,0,1-.007-.115.7.7,0,0,1,.176-.485.729.729,0,0,1,.465-.23.7.7,0,0,1,.336.047.761.761,0,0,1,.3.186l2.088,2.173c-.083-.4-.182-1.054-.3-1.954a1.193,1.193,0,0,1-.007-.128.67.67,0,0,1,.18-.476.743.743,0,0,1,.461-.226.721.721,0,0,1,.542.139.736.736,0,0,1,.275.515l.466,3.806a.953.953,0,0,1,.007.115.7.7,0,0,1-.176.485.728.728,0,0,1-.465.23.668.668,0,0,1-.331-.047.823.823,0,0,1-.3-.185l-2.086-2.149c.083.4.182,1.043.3,1.928a1.153,1.153,0,0,1,.007.128.669.669,0,0,1-.18.475.744.744,0,0,1-.461.226.92.92,0,0,1-.107.007Zm-.471-5.192a.4.4,0,0,0-.058,0,.625.625,0,0,0-.4.2.592.592,0,0,0-.148.412.814.814,0,0,0,.007.1l.466,3.805a.623.623,0,0,0,.232.441.613.613,0,0,0,.464.117.631.631,0,0,0,.395-.193.558.558,0,0,0,.15-.4,1.114,1.114,0,0,0-.007-.116c-.134-1.04-.247-1.748-.336-2.1l-.049-.2,2.36,2.432a.716.716,0,0,0,.26.159.576.576,0,0,0,.28.041.624.624,0,0,0,.4-.2.593.593,0,0,0,.148-.412.819.819,0,0,0-.006-.1L76,22.408a.63.63,0,0,0-.232-.441.616.616,0,0,0-.463-.117.638.638,0,0,0-.4.193.557.557,0,0,0-.15.4,1.054,1.054,0,0,0,.007.116c.134,1.058.247,1.776.336,2.131l.05.2-2.361-2.461a.655.655,0,0,0-.261-.163.672.672,0,0,0-.224-.044Z" transform="translate(-30.488 -6.281)" fill="#283138"/>
      <path id="Path_1023" data-name="Path 1023" d="M83.081,27.379a3.151,3.151,0,0,1-1.12-.2q-.688-.256-.688-.729A.661.661,0,0,1,81.445,26a.573.573,0,0,1,.448-.192,1.838,1.838,0,0,1,.564.132,1.841,1.841,0,0,0,.57.132q.519,0,.519-.412,0-.2-.587-.371a4.387,4.387,0,0,1-1.079-.412,1.227,1.227,0,0,1-.587-1.1,1.564,1.564,0,0,1,.56-1.243,1.9,1.9,0,0,1,1.282-.452,2.379,2.379,0,0,1,.911.189q.581.25.581.654a.707.707,0,0,1-.169.466.559.559,0,0,1-.452.2,1.48,1.48,0,0,1-.445-.1,1.487,1.487,0,0,0-.452-.1q-.386,0-.386.27,0,.142.587.31a3.467,3.467,0,0,1,1.08.459,1.427,1.427,0,0,1,.589,1.221,1.6,1.6,0,0,1-.573,1.275,1.973,1.973,0,0,1-1.324.456Z" transform="translate(-34.837 -6.436)" fill="#283138"/>
      <path id="Path_1024" data-name="Path 1024" d="M83.037,27.39a3.221,3.221,0,0,1-1.139-.2c-.48-.178-.723-.441-.723-.78a.716.716,0,0,1,.186-.491.629.629,0,0,1,.489-.21,1.864,1.864,0,0,1,.582.138,1.8,1.8,0,0,0,.551.128c.417,0,.466-.2.466-.358,0-.06-.071-.182-.548-.319a4.388,4.388,0,0,1-1.094-.418,1.284,1.284,0,0,1-.611-1.145,1.623,1.623,0,0,1,.579-1.29,1.962,1.962,0,0,1,1.317-.465,2.445,2.445,0,0,1,.931.193c.408.175.614.412.614.7a.763.763,0,0,1-.181.5.613.613,0,0,1-.5.22,1.513,1.513,0,0,1-.463-.1,1.446,1.446,0,0,0-.434-.1c-.3,0-.331.123-.331.216,0,.01.015.106.548.258a3.532,3.532,0,0,1,1.1.467,1.484,1.484,0,0,1,.609,1.267,1.662,1.662,0,0,1-.592,1.316A2.038,2.038,0,0,1,83.037,27.39ZM81.849,25.82a.517.517,0,0,0-.408.174.6.6,0,0,0-.158.419c0,.293.214.514.653.678a3.113,3.113,0,0,0,1.1.192,1.928,1.928,0,0,0,1.287-.446,1.558,1.558,0,0,0,.554-1.234,1.381,1.381,0,0,0-.565-1.178,3.44,3.44,0,0,0-1.062-.451c-.441-.126-.626-.234-.626-.362,0-.148.076-.324.441-.324a1.523,1.523,0,0,1,.47.1,1.439,1.439,0,0,0,.428.1.5.5,0,0,0,.41-.183.658.658,0,0,0,.156-.431c0-.245-.184-.448-.548-.606a2.336,2.336,0,0,0-.889-.185,1.857,1.857,0,0,0-1.247.441,1.519,1.519,0,0,0-.541,1.207,1.167,1.167,0,0,0,.562,1.054,4.366,4.366,0,0,0,1.065.4c.427.123.626.257.626.423,0,.213-.1.466-.573.466a1.868,1.868,0,0,1-.588-.135,1.8,1.8,0,0,0-.549-.127Z" transform="translate(-34.792 -6.393)" fill="#283138"/>
      <path id="Path_1025" data-name="Path 1025" d="M92.1,27.482a.62.62,0,0,1-.551-.371,6.125,6.125,0,0,1-.176-.681l-1.626-.142a4.932,4.932,0,0,1-.29.634.611.611,0,0,1-.6.275.685.685,0,0,1-.452-.226.59.59,0,0,1-.155-.475.709.709,0,0,1,.081-.27L90,22.684a1.129,1.129,0,0,1,.381-.445.826.826,0,0,1,.557-.142.881.881,0,0,1,.815.743l1,3.774a1.051,1.051,0,0,1,.041.31.585.585,0,0,1-.229.425A.646.646,0,0,1,92.1,27.482Zm-1.336-3.7q-.142.425-.506,1.282l.816.067Z" transform="translate(-37.969 -6.443)" fill="#283138"/>
      <path id="Path_1026" data-name="Path 1026" d="M92.117,27.494h-.062a.674.674,0,0,1-.6-.4,4.314,4.314,0,0,1-.17-.653L89.739,26.3a3.482,3.482,0,0,1-.282.609.661.661,0,0,1-.648.3.741.741,0,0,1-.488-.244.645.645,0,0,1-.169-.517.764.764,0,0,1,.086-.289L89.9,22.62a1.188,1.188,0,0,1,.4-.467A.884.884,0,0,1,90.9,22a.937.937,0,0,1,.864.782l1,3.771a1.108,1.108,0,0,1,.042.327.642.642,0,0,1-.251.465.7.7,0,0,1-.433.151Zm-.055-.11a.588.588,0,0,0,.421-.124.529.529,0,0,0,.208-.386,1,1,0,0,0-.039-.291l-1-3.771a.826.826,0,0,0-.771-.7.771.771,0,0,0-.522.132,1.082,1.082,0,0,0-.363.424l-1.662,3.54a.656.656,0,0,0-.076.25.535.535,0,0,0,.141.436.627.627,0,0,0,.418.209.555.555,0,0,0,.551-.253,4.493,4.493,0,0,0,.285-.625l.015-.036,1.7.148.009.039a5.617,5.617,0,0,0,.172.67.566.566,0,0,0,.508.34ZM91.1,25.142l-.965-.08.029-.069c.241-.565.41-1,.5-1.278l.061-.183Zm-.807-.175.668.055-.253-1.094C90.616,24.19,90.477,24.539,90.3,24.967Z" transform="translate(-37.924 -6.398)" fill="#283138"/>
      <path id="Path_1027" data-name="Path 1027" d="M99.565,24.443a.9.9,0,0,1,.645.3,1.242,1.242,0,0,1,.354.742,2.624,2.624,0,0,1,.014.263,1.438,1.438,0,0,1-.418,1.073,1.873,1.873,0,0,1-1.12.5l-1.377.169a.737.737,0,0,1-.526-.125.642.642,0,0,1-.263-.462l-.459-3.759a.633.633,0,0,1,.135-.516.706.706,0,0,1,.479-.24l1.282-.162q.11-.007.209-.007a1.425,1.425,0,0,1,.924.317,1.267,1.267,0,0,1,.459.864,1.514,1.514,0,0,1,.014.2A1.1,1.1,0,0,1,99.565,24.443Zm-1.39-.958-.358.047.088.668.351-.041a.331.331,0,0,0,.331-.412q-.036-.31-.412-.263Zm.418,1.869-.54.067.095.776.621-.081q.466-.055.412-.472-.034-.3-.441-.3a.921.921,0,0,0-.147.014Z" transform="translate(-41.632 -6.501)" fill="#283138"/>
      <path id="Path_1028" data-name="Path 1028" d="M97.514,27.511a.767.767,0,0,1-.454-.14.7.7,0,0,1-.285-.5l-.459-3.759a.687.687,0,0,1,.148-.558.761.761,0,0,1,.514-.258l1.281-.162c.077,0,.148-.007.216-.007a1.484,1.484,0,0,1,.959.331,1.322,1.322,0,0,1,.478.9,1.559,1.559,0,0,1,.014.209,1.16,1.16,0,0,1-.286.791,1,1,0,0,1,.564.311,1.3,1.3,0,0,1,.37.771,2.69,2.69,0,0,1,.014.27,1.5,1.5,0,0,1-.434,1.111A1.935,1.935,0,0,1,99,27.335l-1.377.169A.97.97,0,0,1,97.514,27.511Zm.96-5.275c-.067,0-.135,0-.205.007L96.99,22.4a.649.649,0,0,0-.445.22.577.577,0,0,0-.122.474l.459,3.759a.585.585,0,0,0,.241.425.689.689,0,0,0,.489.115l1.377-.169a1.831,1.831,0,0,0,1.089-.484,1.393,1.393,0,0,0,.4-1.034,2.555,2.555,0,0,0-.013-.258,1.193,1.193,0,0,0-.339-.71.851.851,0,0,0-.606-.288h-.137l.1-.094a1.052,1.052,0,0,0,.334-.8,1.465,1.465,0,0,0-.013-.2,1.219,1.219,0,0,0-.441-.826,1.377,1.377,0,0,0-.889-.309Zm-.418,3.981-.11-.881.592-.074a.962.962,0,0,1,.156-.014c.375,0,.474.191.493.352a.461.461,0,0,1-.077.354.543.543,0,0,1-.382.178Zm.013-.79.082.668.567-.074a.441.441,0,0,0,.31-.137.358.358,0,0,0,.055-.275c-.012-.11-.066-.257-.386-.257a.853.853,0,0,0-.139.013h0Zm-.256-1.208-.1-.775.412-.055a.459.459,0,0,1,.351.067.343.343,0,0,1,.121.244.419.419,0,0,1-.067.321.443.443,0,0,1-.31.15Zm.02-.681.074.561.3-.035a.342.342,0,0,0,.237-.11.318.318,0,0,0,.045-.241.237.237,0,0,0-.08-.171.362.362,0,0,0-.27-.045Z" transform="translate(-41.588 -6.458)" fill="#283138"/>
      <path id="Path_1029" data-name="Path 1029" d="M104.493,26.7a.7.7,0,0,1,.014-.135l.6-3.785a.693.693,0,0,1,.22-.435.624.624,0,0,1,.429-.159.7.7,0,0,1,.5.186.63.63,0,0,1,.2.483.693.693,0,0,1-.014.135l-.6,3.785a.692.692,0,0,1-.22.435.625.625,0,0,1-.429.158.7.7,0,0,1-.5-.186.63.63,0,0,1-.2-.482Z" transform="translate(-45.265 -6.486)" fill="#283138"/>
      <path id="Path_1030" data-name="Path 1030" d="M105.144,27.38a.754.754,0,0,1-.533-.2.684.684,0,0,1-.216-.522.751.751,0,0,1,.014-.145l.6-3.783a.749.749,0,0,1,.237-.467.679.679,0,0,1,.464-.172.755.755,0,0,1,.533.2.685.685,0,0,1,.217.522.743.743,0,0,1-.014.145l-.6,3.783a.748.748,0,0,1-.237.467A.681.681,0,0,1,105.144,27.38Zm.567-5.182a.566.566,0,0,0-.392.145.645.645,0,0,0-.2.4l-.6,3.786a.657.657,0,0,0-.013.127.573.573,0,0,0,.182.441.641.641,0,0,0,.459.171.567.567,0,0,0,.392-.145.643.643,0,0,0,.2-.4l.6-3.786a.651.651,0,0,0,.013-.127.574.574,0,0,0-.182-.441.642.642,0,0,0-.459-.171Z" transform="translate(-45.221 -6.442)" fill="#283138"/>
      <path id="Path_1031" data-name="Path 1031" d="M110.814,27.348l-1.68-.148a.654.654,0,0,1-.486-.243.744.744,0,0,1-.142-.54l.324-3.751a.669.669,0,0,1,.236-.483.661.661,0,0,1,.5-.145.644.644,0,0,1,.466.226.683.683,0,0,1,.148.523l-.283,3.2,1.026.088a.642.642,0,0,1,.445.205.614.614,0,0,1,.155.415.644.644,0,0,1-.182.466.622.622,0,0,1-.526.183Z" transform="translate(-47.064 -6.416)" fill="#283138"/>
      <path id="Path_1032" data-name="Path 1032" d="M110.841,27.36a.606.606,0,0,1-.077,0h0l-1.68-.148a.71.71,0,0,1-.523-.263.8.8,0,0,1-.153-.578l.324-3.752a.707.707,0,0,1,.794-.677.7.7,0,0,1,.5.245.738.738,0,0,1,.161.562L109.91,25.9l.971.083a.7.7,0,0,1,.481.224.67.67,0,0,1,.169.451.7.7,0,0,1-.2.5.661.661,0,0,1-.493.2Zm-.067-.11a.565.565,0,0,0,.483-.165.586.586,0,0,0,.165-.427.558.558,0,0,0-.142-.38.593.593,0,0,0-.409-.187L109.791,26l.288-3.259a.625.625,0,0,0-.136-.483.587.587,0,0,0-.428-.207.606.606,0,0,0-.462.133.613.613,0,0,0-.217.445l-.322,3.751a.694.694,0,0,0,.131.5.6.6,0,0,0,.448.22Z" transform="translate(-47.02 -6.371)" fill="#283138"/>
      <path id="Path_1033" data-name="Path 1033" d="M116.746,27.384l-1.708-.331a.7.7,0,0,1-.408-.226.624.624,0,0,1-.159-.429.547.547,0,0,1,.02-.142l.708-3.643q.122-.621.661-.621a1,1,0,0,1,.162.014l1.639.317a.63.63,0,0,1,.351,1.073.594.594,0,0,1-.445.189.716.716,0,0,1-.142-.014l-1.005-.2-.121.634.917.182a.681.681,0,0,1,.4.226.606.606,0,0,1,.142.395.634.634,0,0,1-.641.641.8.8,0,0,1-.142-.013l-.924-.182-.128.675,1.059.209a.606.606,0,0,1,.53.613.635.635,0,0,1-.178.452.592.592,0,0,1-.448.189A.8.8,0,0,1,116.746,27.384Z" transform="translate(-49.746 -6.398)" fill="#283138"/>
      <path id="Path_1034" data-name="Path 1034" d="M116.844,27.406a.864.864,0,0,1-.151-.014h0l-1.708-.331a.759.759,0,0,1-.441-.243.68.68,0,0,1-.172-.464.6.6,0,0,1,.022-.156l.709-3.64c.086-.441.327-.664.716-.664a1.074,1.074,0,0,1,.171.014l1.641.318a.684.684,0,0,1,.379,1.164.649.649,0,0,1-.484.205.771.771,0,0,1-.153-.014l-.951-.185-.1.528.865.172a.736.736,0,0,1,.436.245.661.661,0,0,1,.154.429.674.674,0,0,1-.2.5.692.692,0,0,1-.645.187l-.872-.172-.11.569,1.007.2a.661.661,0,0,1,.57.667.69.69,0,0,1-.193.489A.647.647,0,0,1,116.844,27.406Zm-.132-.121a.547.547,0,0,0,.541-.159.6.6,0,0,0,.041-.776.562.562,0,0,0-.359-.2l-1.113-.22.148-.781.978.193a.584.584,0,0,0,.548-.158.562.562,0,0,0,.17-.417.547.547,0,0,0-.129-.36.632.632,0,0,0-.374-.207l-.97-.193.142-.74,1.058.206a.673.673,0,0,0,.132.013.538.538,0,0,0,.406-.172.594.594,0,0,0,.044-.776.6.6,0,0,0-.366-.207l-1.639-.317A.944.944,0,0,0,115.82,22c-.331,0-.532.189-.606.577l-.708,3.643a.513.513,0,0,0-.019.131.566.566,0,0,0,.145.393.65.65,0,0,0,.378.209Z" transform="translate(-49.702 -6.354)" fill="#283138"/>
      <path id="Path_1035" data-name="Path 1035" d="M20.352,24.858a.856.856,0,0,1-1,.685h0a.853.853,0,0,1-.683-1l.068-.374a.856.856,0,0,1,1-.684h0a.857.857,0,0,1,.685,1Z" transform="translate(-6.716 -7.063)" fill="#283138"/>
      <path id="Path_1036" data-name="Path 1036" d="M16.589,18.057l-4.6-.855.085-.942c1.184-.358,1.977-3.956,1.977-3.956.454-2.439,3.145-2.56,3.145-2.56.253-1.359,1.085-1.267,1.085-1.267m-1.693,9.58,4.6.855.085-.459c-.977-.761-.421-4.885-.421-4.885.453-2.439-2.016-3.52-2.016-3.52.252-1.359-.554-1.572-.554-1.572" transform="translate(-3.722 -0.328)" fill="#283138"/>
    </g>
    <g id="Group_787" data-name="Group 787" transform="translate(-168 1453)">
      <g id="aams_positive" transform="translate(1694.637 11.6)">
        <path id="Path_999" data-name="Path 999" d="M12.552,13.788A11.352,11.352,0,0,0,5.587,24.236H3A14.077,14.077,0,0,1,11.358,11.4" transform="translate(-0.008 -0.035)" fill="#283138"/>
        <path id="Path_1000" data-name="Path 1000" d="M22.5,11.4a13.989,13.989,0,0,1,8.557,12.836H28.465A11.352,11.352,0,0,0,21.5,13.788" transform="translate(-0.1 -0.035)" fill="#283138"/>
        <path id="Path_1001" data-name="Path 1001" d="M21.45,13.783a11.21,11.21,0,0,0-8.955,0l-1-2.388a14.375,14.375,0,0,1,10.945,0l-1,2.388Z" transform="translate(-0.05 -0.029)" fill="#283138"/>
        <path id="Path_1002" data-name="Path 1002" d="M28.273,24.428v-.2h0v.2h-.2v-.2a11.132,11.132,0,0,0-3.284-7.861h0a11.132,11.132,0,0,0-7.861-3.284h0a11.132,11.132,0,0,0-7.861,3.284h0a11.132,11.132,0,0,0-3.284,7.861h0v.2H2.8v-.2A14.141,14.141,0,0,1,16.929,10h0A14.226,14.226,0,0,1,31.158,24.229h0v.2Zm2.388-.4a13.912,13.912,0,0,0-3.98-9.453h0a13.763,13.763,0,0,0-9.751-3.98h0a13.763,13.763,0,0,0-9.751,3.98h0A13.239,13.239,0,0,0,3.2,24.03H5.387A11.575,11.575,0,0,1,16.929,12.687h0A11.51,11.51,0,0,1,28.472,24.03h2.189Z" transform="translate(-0.007 -0.028)" fill="#283138"/>
        <path id="Path_1003" data-name="Path 1003" d="M32.445,17.456a.514.514,0,0,0-.7-.3L19.012,22.531a.993.993,0,0,0-.5-.4L23.887,9.4a.536.536,0,1,0-1-.4L17.221,21.635h-.7L10.952,9a.536.536,0,1,0-1,.4L15.33,22.232c-.1.1-.3.2-.4.4L2.1,17.158a.536.536,0,0,0-.4,1l12.736,5.672v.4h5.274v-.4l12.537-5.672a.571.571,0,0,0,.2-.7" transform="translate(0 -0.021)" fill="#283138"/>
        <path id="Path_1004" data-name="Path 1004" d="M18.4,8.181h.9l.1-1.692v-.6h0a3.913,3.913,0,0,0,.2.6l.4,1.095h.8l.4-1.095a3.913,3.913,0,0,0,.2-.6h0v.6l.1,1.692h.9l-.3-3.682h-1l-.5,1.493a3.913,3.913,0,0,0-.2.6h0a3.913,3.913,0,0,0-.2-.6l-.5-1.592h-1l-.3,3.781Z" transform="translate(-0.085)" fill="#283138"/>
        <path id="Path_1005" data-name="Path 1005" d="M13.988,8.182h.9L13.69,4.5h-.9L11.6,8.182h.9l.2-.8h1.095l.2.8Zm-.8-2.886a3.518,3.518,0,0,1,.1.6l.2.7h-.7l.2-.6c.1-.3.2-.7.2-.7Zm1.791,2.886h1.294a1.7,1.7,0,0,0,1.891-1.791A1.656,1.656,0,0,0,16.277,4.6H14.983V8.182Zm.9-.8V5.3h.4a.97.97,0,0,1,1,1.095.97.97,0,0,1-1,1.095h-.4Z" transform="translate(-0.051 0)" fill="#283138"/>
      </g>
      <g id="aams" transform="translate(1736.1 15.1)">
        <path id="Path_1251" data-name="Path 1251" d="M39.863.9l.322.8.916.047-.718.563.248.844-.768-.492-.768.492.223-.844L38.6,1.744l.941-.047Z" transform="translate(-28.365 0)" fill="#283138"/>
        <path id="Path_1252" data-name="Path 1252" d="M59.457,6.7l-.149.868.768.469-.916.141-.223.844-.421-.8-.916.047.644-.61-.322-.821.817.4Z" transform="translate(-42.661 -4.44)" fill="#283138"/>
        <path id="Path_1253" data-name="Path 1253" d="M73.151,20.286l-.594.68.421.774-.867-.3-.644.633.05-.891L70.7,20.8l.891-.234.149-.868.5.727Z" transform="translate(-52.517 -14.392)" fill="#283138"/>
        <path id="Path_1254" data-name="Path 1254" d="M78.977,39.572l-.842.328-.05.868-.569-.68-.891.234.5-.727-.52-.727.891.211.569-.68.074.868Z" transform="translate(-56.956 -28.708)" fill="#283138"/>
        <path id="Path_1255" data-name="Path 1255" d="M73.151,59.059l-.916-.141-.5.75-.149-.868-.891-.234.817-.4-.05-.868.644.633.867-.328-.421.774Z" transform="translate(-52.517 -43.176)" fill="#283138"/>
        <path id="Path_1256" data-name="Path 1256" d="M59.582,72.7l-.718-.539-.817.422.322-.821-.669-.61.916.023.421-.774.248.844.916.117-.768.492Z" transform="translate(-42.736 -53.205)" fill="#283138"/>
        <path id="Path_1257" data-name="Path 1257" d="M39.863,78.851l-.347-.821-.916-.023.718-.563L39.07,76.6l.768.469.768-.469-.223.844.718.539-.916.047Z" transform="translate(-28.365 -57.951)" fill="#283138"/>
        <path id="Path_1258" data-name="Path 1258" d="M20.544,73.021l.149-.844-.792-.469.916-.141.223-.868.421.774.941-.047-.644.633.322.8-.817-.375Z" transform="translate(-14.295 -53.434)" fill="#283138"/>
        <path id="Path_1259" data-name="Path 1259" d="M6.9,59.582l.569-.7-.421-.75.867.281.644-.61-.05.868.842.375-.891.234-.124.868-.52-.727Z" transform="translate(-4.514 -43.559)" fill="#283138"/>
        <path id="Path_1260" data-name="Path 1260" d="M.9,39.772l.867-.3.05-.868.569.657.891-.211-.5.727.5.727-.891-.234-.569.68-.05-.868Z" transform="translate(0 -28.861)" fill="#283138"/>
        <path id="Path_1261" data-name="Path 1261" d="M6.6,20.386l.891.141.5-.727.149.844.891.234-.817.4.074.868-.669-.61-.842.3.4-.774Z" transform="translate(-4.289 -14.469)" fill="#283138"/>
        <path id="Path_1262" data-name="Path 1262" d="M20.419,6.6l.718.539.817-.4-.347.821.669.61-.916-.047-.421.774-.248-.844L19.8,7.936l.768-.492Z" transform="translate(-14.22 -4.364)" fill="#283138"/>
        <path id="Path_1263" data-name="Path 1263" d="M33.582,20.193c.693.258,1.189.445,1.783.61a6.791,6.791,0,0,0,1.956.281A6.961,6.961,0,0,0,39.3,20.8a3.154,3.154,0,0,0,1.015-.516h0l1.015-.75H36.206L34.671,14.8l-1.56,4.736H31.7c.644.211,1.263.445,1.882.657Z" transform="translate(-23.174 -10.641)" fill="#283138"/>
        <path id="Path_1264" data-name="Path 1264" d="M20.3,36.814a26.961,26.961,0,0,1,3.046.985c.693.258,1.189.445,1.783.61a7.145,7.145,0,0,0,1.882.281l1.089-.8a7.126,7.126,0,0,1-1.015.07,6.669,6.669,0,0,1-1.956-.281c-.594-.164-1.089-.352-1.783-.61-.99-.352-2.006-.727-3.046-.985a6.418,6.418,0,0,0-1.659-.188H18.62a3.9,3.9,0,0,0-.52.047l.941.68a7.822,7.822,0,0,1,1.263.188Z" transform="translate(-12.941 -26.794)" fill="#283138"/>
        <path id="Path_1265" data-name="Path 1265" d="M28.534,44c.5.164.966.328,1.436.492.693.258,1.189.445,1.783.61a6.791,6.791,0,0,0,1.956.281h.322l-.223-.7h-.1a6.669,6.669,0,0,1-1.956-.281c-.594-.164-1.089-.352-1.783-.61-.99-.352-2.006-.727-3.046-.985H26.9L28.534,44Z" transform="translate(-19.562 -32.076)" fill="#283138"/>
        <path id="Path_1266" data-name="Path 1266" d="M33.935,52.154a6.669,6.669,0,0,1-1.956-.281c-.594-.164-1.089-.352-1.783-.61-.545-.188-1.089-.4-1.659-.563L27.2,54.85,31.261,51.9l4.061,2.954-.867-2.72a3.86,3.86,0,0,1-.52.023Z" transform="translate(-19.788 -38.124)" fill="#283138"/>
        <path id="Path_1267" data-name="Path 1267" d="M109.5,23.336h.842l-1.139-3.189h-.867L107.2,23.336h.842l.2-.68h1.04l.223.68Zm-.718-2.462a4.444,4.444,0,0,0,.149.539l.2.61h-.669l.2-.61c.05-.188.124-.539.124-.539Zm2.278.868a1.622,1.622,0,0,0,1.659,1.665,1.423,1.423,0,0,0,.891-.281h0v.234h.693V21.554h-1.213v.633h.47v.234a1.231,1.231,0,0,1-.693.234.924.924,0,0,1-.966-.961.874.874,0,0,1,.99-.891,1.361,1.361,0,0,1,.817.3l.4-.586a1.872,1.872,0,0,0-1.288-.422,1.656,1.656,0,0,0-1.758,1.641Zm4.432,1.594h2.179v-.68h-1.362v-.61h1.015v-.68h-1.015V20.78H117.6V20.1h-2.1v3.236Zm3.343,0h.817V21.859a4.641,4.641,0,0,0-.05-.539h0s.149.328.272.539l.941,1.477h.817V20.147h-.817v1.477a4.64,4.64,0,0,0,.05.539h0s-.149-.328-.272-.539l-.941-1.477h-.842v3.189Zm3.986,0h2.625v-.68h-1.337a1.183,1.183,0,0,0-.248.023h0a1.22,1.22,0,0,0,.248-.281l1.312-1.758v-.492h-2.55v.68h1.238a1.183,1.183,0,0,0,.248-.023h0a1.22,1.22,0,0,0-.248.281l-1.288,1.735v.516Zm3.813,0h.817V20.147h-.817v3.189Zm4.086,0h.842l-1.139-3.189h-.867l-1.139,3.189h.842l.2-.68h1.04l.223.68Zm-.743-2.462a4.445,4.445,0,0,0,.149.539l.2.61h-.669l.2-.61c.05-.188.124-.539.124-.539Z" transform="translate(-79.979 -14.698)" fill="#283138"/>
        <path id="Path_1268" data-name="Path 1268" d="M107.4,56.736h.817l.1-1.43a3.5,3.5,0,0,0,0-.539h0s.124.328.2.539l.347.914h.718l.347-.914c.074-.211.2-.539.2-.539h0a3.5,3.5,0,0,0,0,.539l.1,1.43h.817l-.272-3.189h-.891l-.5,1.336c-.074.211-.173.516-.173.516h0s-.1-.328-.173-.516l-.5-1.336h-.891l-.248,3.189Zm3.863-1.618a1.761,1.761,0,0,0,3.516,0,1.764,1.764,0,0,0-3.516,0Zm.867,0a.9.9,0,0,1,.916-.914.915.915,0,0,1,.916.914.917.917,0,1,1-1.832,0Zm2.971,1.618h.817V55.259a4.64,4.64,0,0,0-.05-.539h0s.149.328.272.539l.941,1.477h.817V53.547h-.817v1.477a4.642,4.642,0,0,0,.05.539h0s-.149-.328-.272-.539l-.941-1.477h-.842v3.189Zm3.145-1.618a1.761,1.761,0,0,0,3.516,0,1.764,1.764,0,0,0-3.516,0Zm.867,0a.9.9,0,0,1,.916-.914.915.915,0,0,1,.916.914.917.917,0,1,1-1.832,0Zm2.971,1.618h.817v-.985h.57a1.1,1.1,0,0,0,0-2.2h-1.387v3.189Zm.842-1.665V54.2h.421a.386.386,0,0,1,.421.422.4.4,0,0,1-.421.445Zm1.659.047a1.761,1.761,0,0,0,3.516,0,1.764,1.764,0,0,0-3.516,0Zm.867,0a.9.9,0,0,1,.916-.914.915.915,0,0,1,.916.914.917.917,0,1,1-1.832,0Zm2.971,1.618h2.2v-.68h-1.387V53.547h-.817v3.189Zm2.4,0h.817V53.547h-.817v3.189Z" transform="translate(-80.13 -40.267)" fill="#283138"/>
        <path id="Path_1269" data-name="Path 1269" d="M107.4,40.01h1.189a1.6,1.6,0,1,0,0-3.189H107.4V40.01Zm.817-.657V37.5h.347a.926.926,0,0,1,0,1.852Zm3.343-.938a1.761,1.761,0,0,0,3.516,0,1.764,1.764,0,0,0-3.516,0Zm.842,0a.9.9,0,0,1,.916-.914.915.915,0,0,1,.916.914.926.926,0,0,1-.916.961.94.94,0,0,1-.916-.961Zm3.887,0a1.622,1.622,0,0,0,1.659,1.665,1.423,1.423,0,0,0,.891-.281h0v.234h.693V38.228h-1.213v.657h.47v.234a1.231,1.231,0,0,1-.693.234.924.924,0,0,1-.966-.961.874.874,0,0,1,.99-.891,1.361,1.361,0,0,1,.817.3l.4-.586a1.872,1.872,0,0,0-1.288-.422,1.638,1.638,0,0,0-1.758,1.618ZM122.9,40.01h.842L122.6,36.845h-.867L120.6,40.034h.842l.2-.68h1.04l.223.657Zm-.718-2.462a4.444,4.444,0,0,0,.149.539l.2.61h-.669l.2-.61a2.291,2.291,0,0,1,.124-.539ZM125,40.01h.817V38.533a4.641,4.641,0,0,0-.05-.539h0s.149.328.272.539l.941,1.477h.817V36.845h-.817v1.477a4.642,4.642,0,0,0,.05.539h0s-.149-.328-.272-.539l-.941-1.477h-.842V40.01Zm4.506,0h2.179v-.68h-1.362v-.61h1.015v-.68h-1.015v-.586h1.288v-.61h-2.1V40.01Z" transform="translate(-80.13 -27.481)" fill="#283138"/>
        <path id="Path_1270" data-name="Path 1270" d="M96.3.9v20h.3V.9Z" transform="translate(-71.778 0)" fill="#283138"/>
      </g>
    </g>
    <g id="Group_788" data-name="Group 788" transform="translate(1498 1470)">
      <path id="Path_1271" data-name="Path 1271" d="M17.18,27.427V18.8h-.843c-.353,1.406-.924,1.542-2.338,1.65v.838h2.011v6.139Z" transform="translate(-10 -13.079)" fill="#283138"/>
      <path id="Path_1272" data-name="Path 1272" d="M38.126,21.018c0-1-.761-2.218-2.691-2.218A2.384,2.384,0,0,0,32.8,21.18a1.7,1.7,0,0,0,1.169,1.677A2.138,2.138,0,0,0,32.5,24.966a2.421,2.421,0,0,0,.9,2.055,3.573,3.573,0,0,0,2.093.676,2.668,2.668,0,0,0,2.936-2.731,2.186,2.186,0,0,0-1.413-2.109A1.873,1.873,0,0,0,38.126,21.018Zm-4.186.108a1.29,1.29,0,0,1,1.441-1.352c1.277,0,1.631.757,1.631,1.3a1.548,1.548,0,0,1-3.071.054Zm3.343,3.921c0,1.352-.951,1.623-1.74,1.623A1.651,1.651,0,0,1,33.7,24.939a1.608,1.608,0,0,1,1.794-1.6A1.643,1.643,0,0,1,37.284,25.047Z" transform="translate(-23.471 -13.079)" fill="#283138"/>
      <path id="Path_1273" data-name="Path 1273" d="M18.815,7.756A9.472,9.472,0,0,1,19.1,10,9.051,9.051,0,1,1,10.05.994a8.787,8.787,0,0,1,3.369.653V.6A9.558,9.558,0,0,0,10.05,0,10,10,0,1,0,20.1,10a9.841,9.841,0,0,0-.257-2.244H18.815Z" fill="#283138"/>
      <path id="Path_1274" data-name="Path 1274" d="M53.983,4.657V2.1H53.1V4.657H50.5v.881h2.6V8.094h.885V5.537h2.57V4.657Z" transform="translate(-36.082 -1.503)" fill="#283138"/>
    </g>
    <path id="Path_1796" data-name="Path 1796" d="M21.808,23.461a.78.78,0,0,1-.853.695h0a.778.778,0,0,1-.7-.851l.035-.343a.78.78,0,0,1,.853-.7h0a.778.778,0,0,1,.7.852Z" transform="translate(1412.864 1458.735)" fill="#283138"/>
    <path id="Path_1797" data-name="Path 1797" d="M18.4,16.908l-4.156-.42.041-.4c1.025-.391,1.453-3.543,1.453-3.543.214-2.133,2.6-2.424,2.6-2.424.119-1.188.866-1.165.866-1.165m-.8,7.954,4.157.419.041-.4c-.928-.588-.716-3.762-.716-3.762.215-2.133-2.064-2.893-2.064-2.893.121-1.188-.616-1.316-.616-1.316" transform="translate(1415.564 1464.712)" fill="#283138"/>
  </g>
</svg>
