<svg id="Layer_1" enable-background="new 0 0 512 512" height="512" viewBox="0 0 512 512" width="512" xmlns="http://www.w3.org/2000/svg"><g><path d="m504 104v56h-496v-56c0-13.25 10.75-24 24-24h448c13.25 0 24 10.75 24 24z" fill="#e48c9b"/><path d="m480 80h-40c13.25 0 24 10.75 24 24v56h40v-56c0-13.25-10.75-24-24-24z" fill="#cc5b6f"/><path d="m504 160v232h-64c-13.25 0-24 10.75-24 24v64h-384c-13.25 0-24-10.75-24-24v-296z" fill="#edebfd"/><path d="m376 416v64h40v-64c0-13.25 10.75-24 24-24h-40c-13.25 0-24 10.75-24 24z" fill="#d2d2fc"/><path d="m464 160h40v232h-40z" fill="#d2d2fc"/><path d="m504 392v64c0 13.25-10.75 24-24 24h-64z" fill="#9da0df"/><path d="m104 128c-13.218 0-24-10.709-24-24v-48c0-13.255 10.745-24 24-24 13.218 0 24 10.709 24 24v48c0 13.255-10.745 24-24 24z" fill="#595965"/><path d="m92 35.219c7.171 4.15 12 11.899 12 20.781v48c0 8.882-4.829 16.631-12 20.781 15.857 9.176 36-2.227 36-20.781v-48c0-18.552-20.142-29.958-36-20.781z" fill="#44454e"/><path d="m408 128c-13.218 0-24-10.709-24-24v-48c0-13.255 10.745-24 24-24 13.218 0 24 10.709 24 24v48c0 13.255-10.745 24-24 24z" fill="#595965"/><path d="m396 35.219c7.171 4.15 12 11.899 12 20.781v48c0 8.882-4.829 16.631-12 20.781 15.857 9.176 36-2.227 36-20.781v-48c0-18.552-20.142-29.958-36-20.781z" fill="#44454e"/><path d="m504 392-88 88v-64c0-13.25 10.75-24 24-24z" fill="#9da0df"/><path d="m256 223 31.517 63.861 70.475 10.24-50.996 49.709 12.038 70.19-63.034-33.139-63.034 33.139 12.038-70.19-50.996-49.709 70.475-10.24z" fill="#f1cc76"/><path d="m357.992 297.101-70.475-10.24-31.517-63.861-15 30.393 16.517 33.468 70.475 10.24-50.996 49.709 9.065 52.855 32.973 17.335-12.038-70.19z" fill="#ebb15d"/><path d="m480 72h-40v-16c0-17.645-14.355-32-32-32s-32 14.355-32 32v16h-240v-16c0-17.645-14.355-32-32-32s-32 14.355-32 32v16h-40c-17.645 0-32 14.355-32 32v352c0 17.645 14.355 32 32 32h448c17.645 0 32-14.355 32-32 0-16.97 0-335.097 0-352 0-17.645-14.355-32-32-32zm-88-16c0-8.822 7.178-16 16-16s16 7.178 16 16v48c0 8.822-7.178 16-16 16s-16-7.178-16-16zm-304 0c0-8.822 7.178-16 16-16s16 7.178 16 16v48c0 8.822-7.178 16-16 16s-16-7.178-16-16zm-72 48c0-8.822 7.178-16 16-16h40v16c0 17.645 14.355 32 32 32s32-14.355 32-32v-16h240v16c0 17.645 14.355 32 32 32s32-14.355 32-32v-16h40c8.822 0 16 7.178 16 16v48h-480zm0 352v-288h480v216h-56c-17.645 0-32 14.355-32 32v56h-376c-8.822 0-16-7.178-16-16zm468.687-56-60.687 60.687v-44.687c0-8.822 7.178-16 16-16zm-4.687 72h-44.686l60.686-60.686v44.686c0 8.822-7.178 16-16 16z"/><path d="m359.143 289.185-66.313-9.636-29.656-60.089c-2.929-5.935-11.417-5.937-14.348 0l-29.656 60.089-66.313 9.636c-6.549.952-9.175 9.024-4.434 13.646l47.984 46.773-11.327 66.044c-1.118 6.522 5.747 11.515 11.607 8.434l59.313-31.183c64.508 33.914 60.214 32.101 63.033 32.101 4.916 0 8.731-4.425 7.886-9.353l-11.327-66.044 47.984-46.773c4.739-4.619 2.119-12.693-4.433-13.645zm-57.731 51.897c-1.886 1.838-2.746 4.486-2.301 7.081l9.298 54.213c-52.719-27.716-49.588-26.515-52.409-26.515s.31-1.201-52.409 26.515l9.298-54.213c.445-2.595-.415-5.243-2.301-7.081l-39.389-38.394 54.434-7.91c2.605-.379 4.858-2.015 6.023-4.376l24.344-49.326 24.344 49.325c1.165 2.361 3.418 3.998 6.023 4.376l54.434 7.91z"/></g></svg>